<?xml version="1.0" encoding="utf-8"?>

<!DOCTYPE svg PUBLIC "-//W3C//DTD SVG 1.1//EN" "http://www.w3.org/Graphics/SVG/1.1/DTD/svg11.dtd">
<svg version="1.1" id="Layer_1" xmlns="http://www.w3.org/2000/svg" xmlns:xlink="http://www.w3.org/1999/xlink" x="0px" y="0px"
	 viewBox="0 0 1644.5352 1731.1135" enable-background="new 0 0 1644.5352 1731.1135" xml:space="preserve">
<g>
	<linearGradient id="SVGID_1_" gradientUnits="userSpaceOnUse" x1="822.2658" y1="376.0145" x2="822.2658" y2="8.3239">
		<stop  offset="0" style="stop-color:#B3B3B3"/>
		<stop  offset="0.1313" style="stop-color:#BABABA"/>
		<stop  offset="0.6848" style="stop-color:#D8D8D8"/>
		<stop  offset="1" style="stop-color:#E3E3E3"/>
	</linearGradient>
	<path fill="url(#SVGID_1_)" d="M1027.4554,67.0041c-21.7546-9.4639-60.125,30.5825-205.1879,30.5825
		c-145.0584,0-183.4332-40.0464-205.1826-30.5825L444.4512,376.0145h377.8164h377.8129L1027.4554,67.0041z"/>
	<linearGradient id="SVGID_2_" gradientUnits="userSpaceOnUse" x1="822.2676" y1="1663.5743" x2="822.2676" y2="66.2782">
		<stop  offset="0" style="stop-color:#CCCCCC"/>
		<stop  offset="0.4412" style="stop-color:#D4D4D4"/>
		<stop  offset="1" style="stop-color:#E6E6E6"/>
	</linearGradient>
	<path fill="url(#SVGID_2_)" d="M1311.9619,194.4754c-46.3263-13.4504-243.8759-108.5347-284.532-128.1971
		c2.7749,7.7281,4.2266,15.7228,4.2266,23.9154c0,65.881-93.7357,119.3001-209.3889,119.3001
		c-115.6443,0-209.3968-53.4191-209.3968-119.3001c0-8.1926,1.4561-16.1873,4.2142-23.9154
		C576.4113,85.953,378.9137,181.025,332.5741,194.4754C280.8474,209.4937,62.278,618.2707,62.278,618.2707
		s225.2454,166.843,312,165.1802c18.3604-6.6671,38.3836-61.7272,38.3836-61.7272s1.6628,799.1852-13.3561,849.2489
		c-15.0181,50.047,258.9336,92.6017,422.9621,92.6017c164.025,0,437.9722-42.5547,422.962-92.6017
		c-15.0092-50.0637-13.3508-849.2489-13.3508-849.2489s20.0179,55.0601,38.3793,61.7272
		c86.7589,1.6628,311.9991-165.1802,311.9991-165.1802S1363.7017,209.4937,1311.9619,194.4754z"/>
	<path fill="#DBDBDB" d="M1027.4554,68.4522c0,0-1.5897-0.3827-4.5626-1.1173c-3.0239-0.1628-7.5002-0.0387-12.9813,1.5722
		c-11.0581,2.7414-26.0938,9.4085-45.1237,14.3265c-18.9366,5.2066-41.4558,9.8246-65.8217,12.6901
		c-12.1834,1.405-24.8128,2.6684-37.6833,3.2262c-12.8529,0.8895-25.9301,0.8596-39.0153,1.1341
		c-13.0975-0.2745-26.1096-0.2446-39.0065-1.1341c-12.8784-0.5578-25.5043-1.8212-37.6877-3.2262
		c-24.3746-2.8655-46.885-7.4835-65.8252-12.6901c-19.0264-4.9567-34.07-11.5851-45.1105-14.3265
		c-5.4899-1.6109-9.9707-1.7349-13.0165-1.5722c-2.9597,0.7346-4.5363,1.1173-4.5363,1.1173s1.5678-0.4601,4.5063-1.332
		c3.0414-0.3308,7.6375-0.4082,13.2435,0.9493c5.6368,1.1253,12.2819,3.1752,19.9335,5.3958
		c7.6331,2.1907,16.2463,4.6567,25.6372,7.3498c18.8328,5.1811,41.2103,9.7692,65.4733,12.6259
		c12.1191,1.3962,24.701,2.6587,37.5029,3.2051c12.7675,0.8886,25.8782,0.8587,38.8859,1.1341
		c13.0342-0.2754,26.0674-0.2455,38.8781-1.1341c12.8186-0.5463,25.3882-1.8089,37.5117-3.2051
		c24.2629-2.8567,46.644-7.4448,65.4601-12.6259c9.3989-2.693,18.0085-5.1714,25.6548-7.3674
		c7.6384-2.2118,14.2878-4.2652,19.9326-5.387c5.5938-1.3575,10.1985-1.2713,13.2576-0.9405
		C1025.8921,67.9921,1027.4554,68.4522,1027.4554,68.4522z"/>
	<path fill="#DBDBDB" d="M1582.2572,617.5449c0,0-25.0619-44.4964-62.6765-111.263
		c-18.7809-33.3872-40.9482-72.1879-65.366-113.3762c-24.5374-41.0987-51.0693-84.7703-79.9194-126.8741
		c-14.5896-20.8564-29.35-41.9018-46.8939-59.6395c-2.2944-2.0878-4.3989-4.4333-6.9336-6.1387l-3.6599-2.7537
		c-1.2889-0.7131-2.6298-1.2802-3.9441-1.9374c-5.6958-2.3542-11.6591-4.2702-17.4155-6.4008
		c-11.667-3.9737-22.7418-9.2405-33.8765-13.6867c-22.0642-9.438-43.1996-18.8503-63.1664-27.9917
		c-19.9247-9.2061-38.7751-17.9099-56.1731-25.9468c-34.7878-16.0624-63.2351-30.6001-83.3225-40.364
		c-20.0355-9.9364-31.4799-15.6154-31.4799-15.6154s46.3519,21.4881,115.8766,53.7113
		c17.3812,8.0246,36.2141,16.7363,56.1299,25.938c19.9414,9.1286,41.1198,18.5538,63.0891,27.9488
		c11.0916,4.4291,22.0459,9.6614,33.7303,13.6351c5.7828,2.1436,11.6678,4.0338,17.4674,6.4265
		c1.478,0.7175,3.016,1.3661,4.4421,2.1695l3.8314,2.8825c2.672,1.8214,4.7861,4.1885,7.1395,6.3278
		c17.8536,18.0469,32.5717,39.0966,47.2202,60.0132c28.9117,42.194,55.4595,85.8997,80.0066,127.0283
		c24.4434,41.1981,46.6097,80.0277,65.4003,113.4237c18.9446,33.3107,33.5676,61.7192,44.1525,81.3984
		C1576.3203,606.2466,1582.2572,617.5449,1582.2572,617.5449z"/>
	<path fill="#DBDBDB" d="M62.278,617.5449c0,0,5.9456-11.2983,16.3413-31.0848c10.5813-19.6792,25.2043-48.0877,44.149-81.3984
		c18.7901-33.396,40.9697-72.2257,65.4088-113.4237c24.5466-41.1285,51.0907-84.8343,79.9975-127.0283
		c14.6532-20.9165,29.3793-41.9663,47.2242-60.0132c2.3543-2.1393,4.4641-4.5064,7.1439-6.3278l3.8368-2.8825
		c1.4174-0.8033,2.9552-1.452,4.4421-2.1695c5.7987-2.3928,11.6713-4.2829,17.4577-6.4265
		c11.6854-3.9737,22.6397-9.2061,33.7357-13.6351c21.9693-9.395,43.131-18.8202,63.0803-27.9488
		c19.9247-9.2018,38.7575-17.9135,56.1431-25.938c69.5195-32.2233,115.8634-53.7113,115.8634-53.7113
		s-11.4443,5.6791-31.4631,15.6154c-20.1085,9.7639-48.5513,24.3016-83.3436,40.364
		c-17.3944,8.0369-36.2395,16.7407-56.1686,25.9468c-19.9625,9.1414-41.103,18.5537-63.1621,27.9917
		c-11.139,4.4462-22.2095,9.713-33.8729,13.6867c-5.7609,2.1307-11.7144,4.0467-17.4155,6.4008
		c-1.3056,0.6572-2.6631,1.2243-3.9564,1.9374l-3.6555,2.7537c-2.5259,1.7055-4.6356,4.051-6.9204,6.1387
		c-17.5492,17.7377-32.3094,38.7831-46.9111,59.6395c-28.8424,42.1038-55.3779,85.7755-79.903,126.8741
		c-24.4263,41.1884-46.5972,79.989-65.383,113.3762C87.3442,573.0485,62.278,617.5449,62.278,617.5449z"/>
	<path fill="#D9D9D9" d="M1027.4299,67.0041c0,0,0.6616,2.152,1.8899,6.1779c1.5897,3.9819,2.3885,9.9918,3.1708,18.1369
		c-0.2842,3.9177-0.2499,8.2736-0.8684,12.991c-1.3232,4.6048-1.7007,10.159-4.201,15.1553
		c-3.4285,10.7959-11.066,21.2822-20.4657,31.2265c-9.6566,9.8206-21.6939,18.5841-35.1143,26.5873
		c-13.7467,7.4319-28.6962,14.4341-44.9178,19.5161c-16.1688,5.1808-33.2579,9.3736-50.8969,11.8395
		c-17.6134,2.9297-35.621,3.6944-53.8318,4.0853c-17.8536-0.3909-36.1067-1.1556-53.6893-4.0853
		c-17.639-2.4659-34.7325-6.6586-50.8934-11.8395c-16.2252-5.082-31.1878-12.0928-44.9135-19.5161
		c-13.4194-8.0032-25.47-16.7753-35.1143-26.5873c-9.412-9.9531-16.9985-20.4649-20.4604-31.2265
		c-2.5092-5.0386-2.8488-10.4519-4.1843-15.048c-0.6405-4.7685-0.6105-9.2281-0.9026-13.1758
		c0.7866-7.956,1.5555-14.0089,3.1664-18.0516c1.2247-4.0339,1.8818-6.1858,1.8818-6.1858s-0.5032,2.1907-1.4437,6.2852
		c-1.3056,3.9608-1.654,10.2373-1.8818,17.9522c0.5674,3.8403,0.8296,8.1407,1.7657,12.6769
		c1.6285,4.3735,2.2382,9.4551,5.013,14.1163c1.1816,2.3886,2.4063,4.8591,3.6688,7.3929c1.6197,2.3376,3.2913,4.7342,4.9919,7.1958
		c1.5555,2.5602,3.5526,4.8978,5.6016,7.29c2.071,2.3719,3.952,5.0095,6.3583,7.2776c9.266,9.4335,20.9505,17.948,34.0234,25.7493
		c13.4027,7.2342,28.0389,14.099,43.9852,19.0908c15.8776,5.0949,32.7001,9.2318,50.0813,11.6461
		c17.3337,2.8954,35.0536,3.6472,53.0876,4.0381c17.6733-0.3909,35.6562-1.134,52.9424-4.0294
		c17.3812-2.423,34.2213-6.5598,50.0813-11.6547c15.9374-4.9918,30.5781-11.8566,43.9897-19.0908
		c13.0764-7.8013,24.7617-16.3158,34.0233-25.7493c2.4053-2.2602,4.2784-4.9057,6.3495-7.2856
		c2.0358-2.4018,4.0637-4.7131,5.5761-7.2988c1.7094-2.4705,3.3766-4.8635,4.9999-7.187c1.2546-2.5435,2.4836-5.0051,3.6687-7.3938
		c2.7836-4.6911,3.3599-9.6522,5.0008-14.0081c0.9448-4.5758,1.2281-8.9827,1.7869-12.8582
		c-0.2323-7.5345-0.5411-13.8453-1.8732-17.8615C1027.928,69.1947,1027.4299,67.0041,1027.4299,67.0041z"/>
	<linearGradient id="SVGID_3_" gradientUnits="userSpaceOnUse" x1="398.9844" y1="489.674" x2="-11.8403" y2="489.674">
		<stop  offset="0" style="stop-color:#CFCFCF"/>
		<stop  offset="0.2144" style="stop-color:#DADADA;stop-opacity:0.7856"/>
		<stop  offset="0.525" style="stop-color:#E3E3E3;stop-opacity:0.475"/>
		<stop  offset="1" style="stop-color:#E6E6E6;stop-opacity:0"/>
	</linearGradient>
	<path fill="url(#SVGID_3_)" d="M332.5741,195.1799C280.8474,210.1982,62.278,618.9754,62.278,618.9754
		s225.2454,166.8553,312,165.1802c18.3604-6.6671,38.3836-61.7272,38.3836-61.7272s-3.2086-144.7664-24.5207-268.6245
		L332.5741,195.1799z"/>
	
		<linearGradient id="SVGID_4_" gradientUnits="userSpaceOnUse" x1="459.5791" y1="489.674" x2="48.7605" y2="489.674" gradientTransform="matrix(-1 0 0 1 1705.1349 0)">
		<stop  offset="0" style="stop-color:#CFCFCF"/>
		<stop  offset="0.2144" style="stop-color:#DADADA;stop-opacity:0.7856"/>
		<stop  offset="0.525" style="stop-color:#E3E3E3;stop-opacity:0.475"/>
		<stop  offset="1" style="stop-color:#E6E6E6;stop-opacity:0"/>
	</linearGradient>
	<path fill="url(#SVGID_4_)" d="M1311.9619,195.1799c51.731,15.0183,270.2953,423.7955,270.2953,423.7955
		s-225.2402,166.8553-311.9991,165.1802c-18.3613-6.6671-38.3793-61.7272-38.3793-61.7272s3.2042-144.7664,24.5208-268.6245
		L1311.9619,195.1799z"/>
	<path fill="#D6D6D6" d="M1582.2572,618.9754c-11.7621,9.0724-23.6868,17.9399-35.6897,26.7202
		c-11.9424,8.8366-24.4266,16.9131-36.7472,25.221c-24.7443,16.4407-49.8658,32.3561-75.4431,47.4991
		c-25.6213,15.0787-51.7054,29.4308-78.6923,41.9749c-6.7876,3.059-13.5752,6.1093-20.5079,8.8753
		c-6.8993,2.7749-13.8506,5.4732-20.9636,7.7325c-7.063,2.3631-14.2623,4.4288-21.6174,5.8981
		c-7.2943,1.6716-14.8123,2.3755-22.3556,2.5092l-0.2322,0.0088l-0.1884-0.0731c-3.0677-1.3619-5.722-3.2781-7.9823-5.5163
		c-2.2848-2.2294-4.2609-4.6735-6.1603-7.165c-3.608-5.1169-6.6152-10.5725-9.4675-16.0668
		c-5.525-11.0924-10.2671-22.5104-14.3309-34.165c4.6049,11.4479,9.8713,22.6221,15.8512,33.3486
		c3.0415,5.3395,6.3495,10.5038,9.9575,15.392c1.8475,2.4185,3.7462,4.7641,5.8771,6.8562c2.1309,2.1097,4.545,3.7981,7.1228,4.9532
		l-0.395-0.073c7.2855-0.1373,14.6141-0.8165,21.8057-2.4661c7.2081-1.4349,14.3309-3.4708,21.3331-5.8163
		c7.0454-2.2294,13.9438-4.9145,20.8088-7.6771c6.8818-2.7529,13.6439-5.7864,20.3884-8.8234
		c26.8838-12.4966,52.9081-26.8108,78.4678-41.8632c25.5439-15.1175,50.6233-30.9987,75.3411-47.4393l36.9442-24.8471
		C1557.7628,635.7724,1570.0834,627.4813,1582.2572,618.9754z"/>
	<path fill="#D6D6D6" d="M62.278,618.9754c12.1746,8.5059,24.4996,16.797,36.88,24.9976l36.9403,24.8471
		c24.7184,16.4407,49.8019,32.3218,75.3366,47.4393c25.5647,15.0524,51.5889,29.3666,78.4727,41.8632
		c6.7524,3.037,13.5101,6.0706,20.3795,8.8234c6.8686,2.7626,13.7723,5.4477,20.8133,7.6771
		c7.0067,2.3455,14.1207,4.3814,21.342,5.8163c7.187,1.6496,14.5201,2.3288,21.8101,2.4661l-0.3994,0.073
		c2.5769-1.1552,4.9787-2.8435,7.1052-4.9532c2.1432-2.0921,4.0426-4.4377,5.8849-6.8562
		c3.6089-4.8881,6.9169-10.0525,9.9628-15.392c5.9879-10.7264,11.2552-21.9007,15.8556-33.3486
		c-4.0682,11.6546-8.8147,23.0726-14.3398,34.165c-2.8479,5.4943-5.8506,10.95-9.4639,16.0668
		c-1.903,2.4915-3.8746,4.9356-6.1515,7.165c-2.2681,2.2382-4.9189,4.1544-7.9991,5.5163l-0.1804,0.0731l-0.2235-0.0088
		c-7.5477-0.1337-15.0691-0.8376-22.3679-2.5092c-7.3419-1.4692-14.5421-3.535-21.6086-5.8981
		c-7.114-2.2593-14.0688-4.9576-20.9769-7.7325c-6.916-2.7661-13.708-5.8163-20.4912-8.8753
		c-27.0036-12.5441-53.088-26.8962-78.6999-41.9749c-25.5819-15.143-50.6955-31.0585-75.4526-47.4991
		c-12.3119-8.3079-24.7999-16.3844-36.751-25.221C85.9656,636.9153,74.0356,628.0479,62.278,618.9754z"/>
	<linearGradient id="SVGID_5_" gradientUnits="userSpaceOnUse" x1="822.2676" y1="1664.2958" x2="822.2676" y2="1158.3297">
		<stop  offset="0" style="stop-color:#D4D4D4"/>
		<stop  offset="0.1951" style="stop-color:#D1D1D1;stop-opacity:0.8049"/>
		<stop  offset="1" style="stop-color:#CFCFCF;stop-opacity:0"/>
	</linearGradient>
	<path fill="url(#SVGID_5_)" d="M411.6138,1158.3297c-1.4648,221.0734-4.7984,388.329-12.3083,413.3564
		c-7.509,25.0363,57.2208,48.1819,144.337,65.0818c87.1162,16.8921,196.6135,27.5278,278.6251,27.5278
		c82.0169,0,191.5098-10.6357,278.6304-27.5278c87.1108-16.8999,151.8407-40.0455,144.3317-65.0818
		c-7.509-25.0275-10.8425-192.2831-12.303-413.3564"/>
	<path fill="#BFBFBF" d="M1256.3995,453.8163c0,0-0.9194,6.0486-2.6465,17.3988c-1.6328,11.3581-4.5449,27.9484-6.8219,49.2517
		c-2.7493,21.2479-5.2751,47.1428-7.8618,76.8613c-2.2769,29.7493-4.7078,63.3345-6.1427,100.0254
		c-0.9105,18.3516-0.9449,37.4598-0.8595,57.2684c0.0088,19.7988,0.0343,40.2557,0.0431,61.2969
		c0.1117,42.0787,0.2234,86.4458,0.3264,132.3604c0.3528,91.8108,0.9281,189.7396,2.0621,287.6509
		c0.7646,48.964,1.5212,97.92,2.2594,146.1107c1.0575,48.1738,2.174,95.6088,4.5969,141.4371
		c0.6272,11.4445,1.3398,22.8025,2.5092,33.9714c0.5498,5.6791,1.4086,10.9886,2.7493,16.5217
		c0.6783,6.2377-2.7924,11.6167-6.7101,15.5344c-8.0941,7.9639-18.1801,12.8529-28.0012,17.3206
		c-9.9232,4.3901-20.0355,7.9216-30.0704,11.1346c-40.2954,12.501-79.5165,19.9502-115.7394,26.0938
		c-72.5397,11.8992-133.6783,16.9597-176.4653,19.4258c-42.8212,2.3887-67.3596,2.0614-67.3596,2.0614v-2.4995
		c0,0,24.4697,0.3607,67.2224-1.9594c42.7263-2.3885,103.7961-7.3374,176.2673-19.1082
		c36.1631-6.0653,75.3411-13.4547,115.4983-25.8439c9.9927-3.1787,20.062-6.6759,29.891-10.9974
		c9.7349-4.3989,19.7179-9.2871,27.4592-16.8999c3.7893-3.6943,6.7964-8.7892,6.2465-13.9183
		c-1.28-5.3184-2.2258-11.1003-2.7413-16.6589c-1.1597-11.2551-1.8467-22.6221-2.4652-34.0919
		c-2.3376-45.8716-3.3767-93.2976-4.3567-141.4891c-0.6696-48.1995-1.3488-97.1635-2.0359-146.1362
		c-0.9792-97.92-1.4006-195.8489-1.5898-287.6597c-0.0422-45.9146-0.0774-90.2737-0.1117-132.3604
		c0.0176-21.0411,0.0343-41.498,0.0519-61.2969c-0.0431-19.7997,0-38.9423,0.9537-57.2816
		c1.478-36.6997,3.9608-70.2805,6.2976-100.0289c2.6376-29.7185,5.2065-55.6055,7.9735-76.8534
		c2.3191-21.3112,5.2577-37.8936,6.9072-49.2517C1255.4625,459.8649,1256.3995,453.8163,1256.3995,453.8163z"/>
	<path fill="#BFBFBF" d="M388.1409,453.8163c0,0,0.9238,6.0486,2.6631,17.39c1.6496,11.3581,4.5881,27.9405,6.8993,49.2517
		c2.7793,21.2479,5.3395,47.1349,7.9815,76.8534c2.3244,29.7484,4.8116,63.3292,6.3064,100.0289
		c0.937,18.3393,0.9924,37.4818,0.9414,57.2816c0.0211,19.7988,0.0431,40.2557,0.0598,61.2969
		c-0.0387,42.0867-0.073,86.4458-0.1161,132.3604c-0.1971,91.8108-0.6229,189.7396-1.5977,287.6597
		c-0.6836,48.9728-1.3575,97.9368-2.0323,146.1362c-0.9704,48.1915-2.0191,95.6176-4.3558,141.4891
		c-0.6185,11.4698-1.3056,22.8368-2.4661,34.0919c-0.5156,5.5586-1.4604,11.3406-2.7361,16.6589
		c-0.5631,5.1292,2.4529,10.224,6.2421,13.9183c7.7325,7.6128,17.7331,12.501,27.4592,16.8999
		c9.837,4.3215,19.8983,7.8187,29.8901,10.9974c40.1537,12.3892,79.3406,19.7786,115.5071,25.8439
		c72.4589,11.7708,133.5375,16.7196,176.2594,19.1082c42.7527,2.3201,67.2214,1.9594,67.2214,1.9594v2.4995
		c0,0-24.5374,0.3273-67.3542-2.0614c-42.7914-2.4661-103.9211-7.5266-176.4785-19.4258
		c-36.2096-6.1436-75.4308-13.5928-115.7306-26.0938c-10.0349-3.213-20.1472-6.7445-30.0669-11.1346
		c-9.8246-4.4677-19.9159-9.3567-28.0047-17.3206c-3.9221-3.9177-7.3885-9.2968-6.7014-15.5344
		c1.332-5.5331,2.1907-10.8427,2.745-16.5217c1.1728-11.1689,1.8731-22.527,2.5171-33.9714
		c2.4018-45.8284,3.5271-93.2633,4.5758-141.4371c0.7426-48.1907,1.5071-97.1467,2.2725-146.1107
		c1.1252-97.9113,1.7094-195.8401,2.0569-287.6509c0.1117-45.9146,0.2235-90.2817,0.3273-132.3604
		c0.0123-21.0411,0.0299-41.498,0.0378-61.2969c0.0818-19.8085,0.0651-38.9167-0.8499-57.2684
		c-1.4393-36.6909-3.8667-70.2761-6.148-100.0254c-2.5989-29.7185-5.116-55.6135-7.8654-76.8613
		c-2.2813-21.3033-5.1934-37.8936-6.8219-49.2517C389.0603,459.8649,388.1409,453.8163,388.1409,453.8163z"/>
	<path fill="#D4D4D4" d="M1231.8788,722.4285c0,0,0.2657-8.3475,0.7126-22.9573c0.7478-14.5931,1.8044-35.4407,3.0846-60.4647
		c0.739-12.5045,2.0701-26.0154,3.1963-40.3209c1.1851-14.309,2.4308-29.3965,3.7373-44.9988
		c1.5035-15.5899,4.0461-31.5872,6.0917-47.903c2.1731-16.3069,4.3815-32.8682,6.5897-49.4285
		c3.0669-16.475,6.8131-32.7213,10.1378-48.8311c3.3943-16.0835,6.7709-31.9092,10.0094-47.2325
		c6.4867-30.6299,12.5616-59.2232,17.7419-83.731c10.3789-49.0201,17.3213-81.6945,17.3213-81.6945l2.9297,0.6401
		c0,0-7.114,32.6313-17.7761,81.5913c-5.3271,24.4692-11.5386,53.0366-18.2144,83.6278
		c-3.3336,15.2969-6.7709,31.1059-10.2672,47.1727c-3.411,16.0668-7.2688,32.3737-10.4044,48.7018
		c-2.3033,16.5436-4.5969,33.074-6.8483,49.3511c-2.1388,16.2858-4.7765,32.262-6.3662,47.8343
		c-1.3831,15.5944-2.7239,30.6599-3.9775,44.9609c-1.2115,14.2922-2.6208,27.7979-3.4374,40.2866
		c-1.4174,25.0231-2.5857,45.8627-3.4277,60.447C1232.1788,714.0898,1231.8788,722.4285,1231.8788,722.4285z"/>
	<path fill="#D4D4D4" d="M412.6617,722.4285c0,0-0.3132-8.3387-0.8464-22.9485c-0.8199-14.5844-2.0015-35.424-3.4153-60.447
		c-0.82-12.4887-2.2294-25.9944-3.4321-40.2866c-1.2669-14.301-2.6033-29.3666-3.9864-44.9609
		c-1.5898-15.5723-4.223-31.5485-6.3582-47.8343c-2.2637-16.2771-4.5617-32.8075-6.8562-49.3511
		c-3.1356-16.3281-6.9935-32.635-10.4-48.7018c-3.5016-16.0668-6.9424-31.8758-10.276-47.1727
		c-6.6583-30.5913-12.8828-59.1586-18.2188-83.6278c-10.6622-48.9599-17.763-81.5913-17.763-81.5913l2.9297-0.6401
		c0,0,6.9248,32.6744,17.3161,81.6945c5.1943,24.5078,11.2517,53.1011,17.7463,83.731c3.2482,15.3233,6.5984,31.149,10.005,47.2325
		c3.3256,16.1099,7.0674,32.3561,10.1387,48.8311c2.2039,16.5603,4.4157,33.1216,6.5852,49.4285
		c2.0446,16.3157,4.5881,32.313,6.0961,47.903c1.2933,15.6022,2.547,30.6898,3.7329,44.9988
		c1.1253,14.3054,2.4529,27.8164,3.2095,40.3209c1.2757,25.0239,2.3367,45.8715,3.0757,60.4647
		C412.3995,714.081,412.6617,722.4285,412.6617,722.4285z"/>
</g>
</svg>
