<svg width="57" height="57" xmlns="http://www.w3.org/2000/svg" xmlns:xlink="http://www.w3.org/1999/xlink" overflow="hidden"><defs><clipPath id="clip0"><rect x="0" y="0" width="57" height="57"/></clipPath></defs><g clip-path="url(#clip0)"><path d="M52.2492 28.4992C52.3344 41.6155 41.7707 52.3174 28.6546 52.4027 15.5383 52.4879 4.83636 41.9241 4.75113 28.8078 4.75038 28.705 4.75038 28.602 4.75113 28.4992 4.66589 15.3829 15.2297 4.68097 28.3457 4.59573 41.4621 4.5105 52.164 15.0743 52.2492 28.1906 52.25 28.2934 52.25 28.3964 52.2492 28.4992Z"/><path d="M23.75 19C23.75 21.6234 21.6234 23.75 19 23.75 16.3766 23.75 14.25 21.6234 14.25 19 14.25 16.3766 16.3766 14.25 19 14.25 21.6234 14.25 23.75 16.3766 23.75 19Z" fill="#FFFFFF"/><path d="M42.75 19C42.75 21.6234 40.6234 23.75 38 23.75 35.3766 23.75 33.25 21.6234 33.25 19 33.25 16.3766 35.3766 14.25 38 14.25 40.6234 14.25 42.75 16.3766 42.75 19Z" fill="#FFFFFF"/><path d="M-29.45 28.1042C-34.6967 28.1042-38.95 32.3575-38.95 37.6042L-19.95 37.6042C-19.95 32.3575-24.2033 28.1042-29.45 28.1042Z" fill="#FFFFFF" transform="matrix(1 0 0 -1 57.95 69.2708)"/><path d="M21.375 19C21.375 20.3117 20.3117 21.375 19 21.375 17.6883 21.375 16.625 20.3117 16.625 19 16.625 17.6883 17.6883 16.625 19 16.625 20.3117 16.625 21.375 17.6883 21.375 19Z"/><path d="M40.375 19C40.375 20.3117 39.3117 21.375 38 21.375 36.6883 21.375 35.625 20.3117 35.625 19 35.625 17.6883 36.6883 16.625 38 16.625 39.3117 16.625 40.375 17.6883 40.375 19Z"/></g></svg>