<svg version="1.2" xmlns="http://www.w3.org/2000/svg" viewBox="0 0 360 360" width="360" height="360">
	<title>greyX</title>
	<style>
		.s0 { fill: #d1cfcf } 
		.s1 { fill: #686262 } 
	</style>
	<path id="Shape 1" class="s0" d="m180 342c-89.6 0-162-72.4-162-162c0-89.6 72.4-162 162-162c89.6 0 162 72.4 162 162c0 89.6-72.4 162-162 162z" />
	<path id="Shape 2" class="s1" d="m240.2 94.5c6.1-6.4 16.2-6.7 22.6-0.6c6.4 6.1 6.7 16.2 0.6 22.6l-142.7 150c-6.1 6.4-16.2 6.7-22.6 0.6c-6.4-6.1-6.7-16.2-0.6-22.6z" />
	<path id="Shape 2 copy" class="s1" d="m95.6 119.1c-6.2-6.2-6.3-16.4-0.1-22.7c6.2-6.2 16.4-6.3 22.6-0.1l147.2 145.6c6.3 6.2 6.3 16.4 0.1 22.7c-6.2 6.2-16.4 6.3-22.6 0.1z" />
</svg>