<?xml version="1.0" encoding="UTF-8" standalone="no"?>
<!-- Created with Inkscape (http://www.inkscape.org/) -->

<svg
   xmlns:dc="http://purl.org/dc/elements/1.1/"
   xmlns:cc="http://creativecommons.org/ns#"
   xmlns:rdf="http://www.w3.org/1999/02/22-rdf-syntax-ns#"
   xmlns:svg="http://www.w3.org/2000/svg"
   xmlns="http://www.w3.org/2000/svg"
   xmlns:sodipodi="http://sodipodi.sourceforge.net/DTD/sodipodi-0.dtd"
   xmlns:inkscape="http://www.inkscape.org/namespaces/inkscape"
   id="svg2985"
   sodipodi:docname="owl3.svg"
   xml:space="preserve"
   inkscape:export-filename="/Users/GB/Desktop/AHIS Design/School Rules/rules-poster.png"
   viewBox="0 0 1013.9147 990.7435"
   inkscape:export-xdpi="300"
   version="1.1"
   inkscape:export-ydpi="300"
   inkscape:version="0.91 r13725"
   width="1013.9147"
   height="990.74347"><defs
     id="defs7502" /><sodipodi:namedview
     id="namedview2987"
     bordercolor="#666666"
     inkscape:pageshadow="2"
     guidetolerance="10"
     pagecolor="#ffffff"
     gridtolerance="10"
     inkscape:window-maximized="1"
     inkscape:zoom="0.30207602"
     objecttolerance="10"
     borderopacity="1"
     inkscape:current-layer="g2995"
     inkscape:cx="43.866378"
     inkscape:cy="367.93778"
     inkscape:window-y="1"
     inkscape:window-x="4"
     inkscape:window-width="1916"
     showgrid="false"
     inkscape:pageopacity="0"
     inkscape:window-height="1035"
     inkscape:document-units="mm"
     fit-margin-top="0"
     fit-margin-left="0"
     fit-margin-right="0"
     fit-margin-bottom="0" /><g
     id="g2993"
     inkscape:label="ink_ext_XXXXXX"
     inkscape:groupmode="layer"
     transform="matrix(1.25,0,0,-1.25,-21.036851,1430.6917)"><g
       id="g2995"
       transform="scale(0.1,0.1)"><g
         id="g3685"
         inkscape:label="ink_ext_XXXXXX"
         transform="matrix(77.974682,0,0,64.667437,-104138.92,21225.267)"><g
           id="g4878"
           transform="matrix(1.7365,0,0,1.7365,619.06,-252.2)"><path
             id="path3947"
             style="fill:#f13ea7"
             inkscape:connector-curvature="0"
             d="m 427,49.723 c 0.18,-0.776 0.625,-1.719 1.686,-1.807 0.478,-0.04 0.94,0.121 1.372,0.277 2.013,0.728 4.026,1.455 6.039,2.183 -1.02,2.934 -3.508,5.577 -6.878,7.306 -0.609,0.313 -1.382,0.606 -2.062,0.387 -0.812,-0.262 -0.948,-1.056 -0.943,-1.71 0.014,-2.223 0.278,-4.445 0.786,-6.636" /><path
             id="path3949"
             style="fill:#fce1f1"
             inkscape:connector-curvature="0"
             d="m 428.44,49.18 c 0.138,-0.594 0.479,-1.315 1.29,-1.383 0.366,-0.03 0.72,0.092 1.05,0.212 1.54,0.557 3.08,1.113 4.621,1.67 -0.781,2.245 -2.684,4.267 -5.263,5.59 -0.466,0.239 -1.057,0.464 -1.578,0.296 -0.621,-0.2 -0.725,-0.808 -0.721,-1.308 0.011,-1.701 0.213,-3.401 0.601,-5.077" /><path
             id="path3951"
             style="fill:#f13ea7"
             inkscape:connector-curvature="0"
             d="m 460.6,49.723 c -0.18,-0.776 -0.625,-1.719 -1.685,-1.807 -0.478,-0.04 -0.941,0.121 -1.373,0.277 -2.013,0.728 -4.026,1.455 -6.039,2.183 1.02,2.934 3.508,5.577 6.878,7.306 0.61,0.313 1.382,0.606 2.063,0.387 0.811,-0.262 0.947,-1.056 0.943,-1.71 -0.015,-2.223 -0.278,-4.445 -0.787,-6.636" /><path
             id="path3953"
             style="fill:#fce1f1"
             inkscape:connector-curvature="0"
             d="m 459.16,49.18 c -0.138,-0.594 -0.478,-1.315 -1.29,-1.383 -0.365,-0.03 -0.719,0.092 -1.05,0.212 -1.54,0.557 -3.08,1.113 -4.62,1.67 0.78,2.245 2.684,4.267 5.262,5.59 0.467,0.239 1.057,0.464 1.578,0.296 0.621,-0.2 0.725,-0.808 0.722,-1.308 -0.012,-1.701 -0.213,-3.401 -0.602,-5.077" /><path
             id="path3955"
             style="fill:#f13ea7"
             inkscape:connector-curvature="0"
             d="m 450.04,-3.2239 c -1.636,1.6359 -3.464,2.7519 -5.063,3.2129 -0.401,0.1761 -0.872,0.2531 -1.391,0.2363 -0.519,0.0168 -0.989,-0.0602 -1.39,-0.2363 -1.599,-0.461 -3.427,-1.577 -5.063,-3.2129 -3.113,-3.1141 -4.348,-6.927 -2.757,-8.518 1.591,-1.591 5.404,-0.3559 8.518,2.757 0.243,0.243 0.473,0.491 0.692,0.741 0.22,-0.25 0.45,-0.498 0.693,-0.741 3.114,-3.1129 6.927,-4.348 8.518,-2.757 1.591,1.591 0.356,5.4039 -2.757,8.518" /><path
             id="path3957"
             style="fill:#f89cd2"
             inkscape:connector-curvature="0"
             d="m 443.8,55.453 c -12.492,0 -22.619,-10.126 -22.619,-22.618 0,-1.537 0,-3.239 0.042,-5.042 0.241,-10.285 1.852,-23.861 12.648,-28.877 2.696,-1.2543 5.964,-1.9742 9.929,-1.9742 3.962,0 7.23,0.718 9.926,1.9699 10.546,4.8981 12.329,17.963 12.631,28.153 0.061,2.073 0.061,4.028 0.061,5.77 0,12.492 -10.126,22.618 -22.618,22.618" /><path
             id="path3959"
             style="fill:#ffffff"
             inkscape:connector-curvature="0"
             d="m 442.86,39.927 c 0,-4.54 -3.68,-8.22 -8.22,-8.22 -4.539,0 -8.219,3.68 -8.219,8.22 0,4.539 3.68,8.219 8.219,8.219 4.54,0 8.22,-3.68 8.22,-8.219" /><path
             id="path3961"
             style="fill:#ffffff"
             inkscape:connector-curvature="0"
             d="m 461.18,39.927 c 0,-4.54 -3.68,-8.22 -8.22,-8.22 -4.539,0 -8.22,3.68 -8.22,8.22 0,4.539 3.681,8.219 8.22,8.219 4.54,0 8.22,-3.68 8.22,-8.219" /><path
             id="path3963"
             style="fill:#171717"
             inkscape:connector-curvature="0"
             d="m 439.81,39.927 c 0,-2.854 -2.313,-5.168 -5.168,-5.168 -2.854,0 -5.167,2.314 -5.167,5.168 0,2.854 2.313,5.168 5.167,5.168 2.855,0 5.168,-2.314 5.168,-5.168" /><path
             id="path3965"
             style="fill:#ffffff"
             inkscape:connector-curvature="0"
             d="m 439.95,42.66 c 0,-1.345 -1.09,-2.436 -2.435,-2.436 -1.345,0 -2.435,1.091 -2.435,2.436 0,1.344 1.09,2.435 2.435,2.435 1.345,0 2.435,-1.091 2.435,-2.435" /><path
             id="path3967"
             style="fill:#171717"
             inkscape:connector-curvature="0"
             d="m 457.98,39.927 c 0,-2.854 -2.313,-5.168 -5.167,-5.168 -2.855,0 -5.168,2.314 -5.168,5.168 0,2.854 2.313,5.168 5.168,5.168 2.854,0 5.167,-2.314 5.167,-5.168" /><path
             id="path3969"
             style="fill:#f6831e"
             inkscape:connector-curvature="0"
             d="m 445.94,33.916 c 0,-2.97 -2.216,-5.378 -2.216,-5.378 0,0 -2.216,2.408 -2.216,5.378 0,2.97 0.992,5.378 2.216,5.378 1.224,0 2.216,-2.408 2.216,-5.378" /><path
             id="path3971"
             style="fill:#ffffff"
             inkscape:connector-curvature="0"
             d="m 458.85,42.66 c 0,-1.345 -1.09,-2.436 -2.435,-2.436 -1.345,0 -2.435,1.091 -2.435,2.436 0,1.344 1.09,2.435 2.435,2.435 1.345,0 2.435,-1.091 2.435,-2.435" /><path
             id="path3973"
             style="fill:#f13ea7"
             inkscape:connector-curvature="0"
             d="m 469.41,28.648 c 2.983,-1.817 4.083,-5.62 4.293,-9.107 0.297,-4.919 -0.731,-9.991 -3.397,-14.135 -2.667,-4.1441 -7.059,-7.264 -11.945,-7.9031 2.342,1.5789 3.293,4.6492 3.125,7.468 -0.168,2.8201 -1.265,5.4871 -2.257,8.1321 -0.992,2.644 -1.905,5.417 -1.68,8.233 0.221,2.772 1.644,5.483 3.963,7.016 2.32,1.534 5.524,1.743 7.898,0.296" /><path
             id="path3975"
             style="fill:#f13ea7"
             inkscape:connector-curvature="0"
             d="m 418.19,28.648 c -2.982,-1.817 -4.082,-5.62 -4.293,-9.107 -0.297,-4.919 0.731,-9.991 3.398,-14.135 2.667,-4.1441 7.058,-7.264 11.945,-7.9031 -2.342,1.5789 -3.294,4.6492 -3.126,7.468 0.168,2.8201 1.266,5.4871 2.258,8.1321 0.992,2.644 1.905,5.417 1.68,8.233 -0.221,2.772 -1.644,5.483 -3.964,7.016 -2.319,1.534 -5.524,1.743 -7.898,0.296" /><path
             id="path3977"
             style="fill:#fce1f1"
             inkscape:connector-curvature="0"
             d="m 436.64,8.2031 c 1.815,-1.8149 3.844,-3.054 5.617,-3.5661 0.446,-0.1961 0.968,-0.2809 1.544,-0.2617 0.576,-0.0192 1.098,0.0656 1.543,0.2617 1.774,0.5121 3.803,1.7512 5.618,3.5661 3.455,3.455 4.825,7.687 3.06,9.452 -1.766,1.765 -5.998,0.395 -9.453,-3.06 -0.269,-0.269 -0.525,-0.544 -0.768,-0.822 -0.244,0.278 -0.499,0.553 -0.769,0.822 -3.455,3.455 -7.687,4.825 -9.452,3.06 -1.765,-1.765 -0.395,-5.997 3.06,-9.452" /></g></g></g></g><metadata
     id="metadata7500"><rdf:RDF><cc:Work><dc:format>image/svg+xml</dc:format><dc:type
           rdf:resource="http://purl.org/dc/dcmitype/StillImage" /><cc:license
           rdf:resource="http://creativecommons.org/publicdomain/zero/1.0/" /><dc:publisher><cc:Agent
             rdf:about="http://openclipart.org/"><dc:title>Openclipart</dc:title></cc:Agent></dc:publisher><dc:title></dc:title></cc:Work><cc:License
         rdf:about="http://creativecommons.org/publicdomain/zero/1.0/"><cc:permits
           rdf:resource="http://creativecommons.org/ns#Reproduction" /><cc:permits
           rdf:resource="http://creativecommons.org/ns#Distribution" /><cc:permits
           rdf:resource="http://creativecommons.org/ns#DerivativeWorks" /></cc:License></rdf:RDF></metadata></svg>