<?xml version="1.0" encoding="UTF-8" standalone="no"?>
<!-- Created with Inkscape (http://www.inkscape.org/) -->

<svg
   xmlns:dc="http://purl.org/dc/elements/1.1/"
   xmlns:cc="http://creativecommons.org/ns#"
   xmlns:rdf="http://www.w3.org/1999/02/22-rdf-syntax-ns#"
   xmlns:svg="http://www.w3.org/2000/svg"
   xmlns="http://www.w3.org/2000/svg"
   xmlns:sodipodi="http://sodipodi.sourceforge.net/DTD/sodipodi-0.dtd"
   xmlns:inkscape="http://www.inkscape.org/namespaces/inkscape"
   width="125.75126mm"
   height="225.77779mm"
   viewBox="0 0 445.57533 800.00002"
   id="svg2"
   version="1.1"
   inkscape:version="0.91 r13725"
   sodipodi:docname="PalmTree4.svg">
  <defs
     id="defs4">
    <clipPath
       id="id0">
      <path
         inkscape:connector-curvature="0"
         d="m 6500000,15909400 801930,0 c 189250,-89820 580580,-490790 580580,-490790 1077790,-1491570 -269440,-1504410 -269440,-1504410 l -1113070,0 -1113070,0 c 0,0 -1347230,12840 -266240,1504410 0,0 388130,400970 577380,490790 l 801930,0 z"
         id="path7" />
    </clipPath>
  </defs>
  <sodipodi:namedview
     id="base"
     pagecolor="#ffffff"
     bordercolor="#666666"
     borderopacity="1.0"
     inkscape:pageopacity="0.0"
     inkscape:pageshadow="2"
     inkscape:zoom="0.83749997"
     inkscape:cx="222.78766"
     inkscape:cy="400.00002"
     inkscape:document-units="px"
     inkscape:current-layer="layer1"
     showgrid="false"
     fit-margin-top="0"
     fit-margin-left="0"
     fit-margin-right="0"
     fit-margin-bottom="0"
     inkscape:window-width="1600"
     inkscape:window-height="837"
     inkscape:window-x="-8"
     inkscape:window-y="-8"
     inkscape:window-maximized="1" />
  <metadata
     id="metadata7">
    <rdf:RDF>
      <cc:Work
         rdf:about="">
        <dc:format>image/svg+xml</dc:format>
        <dc:type
           rdf:resource="http://purl.org/dc/dcmitype/StillImage" />
        <dc:title></dc:title>
      </cc:Work>
    </rdf:RDF>
  </metadata>
  <g
     inkscape:label="Layer 1"
     inkscape:groupmode="layer"
     id="layer1"
     transform="translate(-79.293921,2663.7755)">
    <g
       id="g4740"
       transform="matrix(3.3647466,0,0,3.3647466,-187.51002,4407.3562)">
      <path
         inkscape:connector-curvature="0"
         sodipodi:nodetypes="cccccccccccccccccccccccccccczzccccccccccccccscccccccccccccccccccc"
         id="path4155"
         d="m 92.54401,-2100.5624 c 45,14.625 51.22603,72.2787 51.22603,72.2787 -0.5,-33.75 23.89519,-49.7977 23.89519,-49.7977 -2.46676,4.8497 -5.21581,8.6471 5.3033,4.4068 -2.97286,2.9018 -6.92457,6.2066 1.06066,4.5962 -5.32627,5.4901 -6.11175,7.9073 -1.76777,10.2531 2.5,1.5 -10.25305,12.0208 -10.25305,12.0208 0.5,1.5 7.77818,1.7677 7.77818,1.7677 -0.5,2.5 -11.04595,9.3389 -11.04595,9.3389 43.125,-11.5 52.20459,23.9381 52.20459,23.9381 -4.0811,-2.2765 -14.08501,-20.0571 -8.63173,0.3106 -3.56702,-2.6055 -8.97881,-11.4832 -9.54594,-3.8891 -1.89216,-0.4889 -2.34559,-5.7735 -6.01041,-0.3535 -1.98756,-0.3023 -3.42342,-11.0868 -6.01041,0 -5.66479,-10.6933 -7.04403,-6.3872 -7.42462,1.4142 -1.9389,-1.3319 -2.88905,-14.0343 -6.01041,-1.7678 l -6.01041,-2.8284 c -1.17851,-6.2699 -2.35702,-3.1636 -3.53553,-0.3536 0,0 45.41905,4.5827 45.79405,59.8327 -2.41528,-4.5406 -3.27917,-11.8382 -6.90318,-10.3352 -4.04021,-14.0206 -6.4233,-12.5747 -8.48528,-8.1317 -1.25526,-4.1302 -1.30478,-11.8777 -5.65685,-6.7175 -0.97244,-8.0408 -2.62256,-5.9164 -4.24264,-4.2427 -1.29636,-9.3451 -3.09154,-11.8366 -3.88909,-2.1213 -1.75,7.75 -4.19239,-12.1746 -9.19239,-7.4246 -1.23963,-4.5176 -2.74186,-6.6717 -5.3033,0.7071 -0.9305,-3.9322 -2.68772,-4.9708 -4.94975,-4.2426 -1.84214,-2.0653 -3.02672,-1.5003 -3.53553,1.7677 0,0 1.76777,5.4267 1.76777,8.8389 0,3.4121 -2.73231,5.6933 -1.12132,9.3033 1.61099,3.6099 0.76776,4.4852 0.76776,4.4852 l -7.77817,-3.5355 c -2,0 -4.5962,-6.0104 -4.5962,-6.0104 0,0 -1.03036,3.9194 -2.12132,6.0104 -3,5.75 -1.76776,15.2028 -1.76776,15.2028 -6.34746,-6.5667 -5.55868,-1.8608 -4.65686,6.0711 -6.875,-23.125 5.78186,-44.2334 5.78186,-44.2334 l -2.89277,-3.9106 c -3.70631,-2.345 -4.14146,1.8523 -4.59619,6.0105 -1.61026,-2.5548 -2.58136,-7.3466 -6.71752,-1.0607 -0.22451,-2.1437 -2.8324,0.4793 -4.94975,2.1213 -1.64991,-1.0889 -3.29983,4.2533 -4.94974,7.4246 -3.92715,-3.3516 -5.39831,-0.3177 -6.01041,4.9498 -3.44917,-1.658 -4.8047,5.0585 -7.07107,8.1317 -1.81291,-0.1818 -3.46905,-9.6198 -6.72754,-1.5733 -2.34684,5.7953 -1.36629,4.9251 -3.83249,6.3766 1.75,-44 33.27323,-47.9331 33.27323,-47.9331 -1.32087,-1.5531 -3.33454,-7.4509 -7.15685,-2.125 -1.05528,-2.9049 -1.69239,-7.1688 -5.3033,-1.7678 -0.30462,-3.4711 -1.54946,-3.6514 -3.18198,-2.4749 -1.6655,-3.6797 -3.33981,-7.1743 -5.65686,2.8285 -2.22321,-4.8657 -4.59433,-8.3262 -8.13172,-0.7071 -0.0442,-3.5448 -0.0566,-7.157 -5.3033,0.3535 1.25682,-5.6954 -0.82614,-5.2858 -8.23529,1.0178 8.25,-28.625 43.59062,-17.2384 43.59062,-17.2384 0.79503,-2.7659 1.93686,-6.7577 -3.68198,-1.1856 l -3.03553,-1.3321 c 5.55243,-6.2753 2.11025,-5.4497 -4.94975,-1.7678 0.96162,-3.9802 12.20016,-14.8116 -4.94974,-6.7175 0.49949,-3.3657 7.88067,-10.3219 -5.65686,-6.364 2.57023,-3.6466 13.07345,-9.6731 -2.82843,-7.7781 5.60336,-3.7646 12.11361,-7.7794 -1.06066,-6.364 9.0929,-3.0641 -0.7758,-6.1283 -5.3033,-9.1924 5.67171,1.0436 4.91267,-1.8428 -1.41421,-8.1317 11.73946,4.3302 6.72743,-1.4512 1.59987,-8.1495 z"
         style="fill:#000000;fill-opacity:1;fill-rule:evenodd;stroke:#000000;stroke-width:1px;stroke-linecap:butt;stroke-linejoin:miter;stroke-opacity:1" />
      <path
         id="path4072"
         d="m 139.73449,-1869.8511 c -5.3033,-13.7886 1.94454,-17.3241 1.94454,-17.3241 -6.36396,-8.1318 0,-15.5564 0,-15.5564 -7.07106,-12.5511 1.59099,-14.8492 1.59099,-14.8492 -4.5962,-5.4801 -3.84617,-11.8902 -2.82842,-13.9654 0.93954,-1.9157 2.09294,-6.2155 0.35355,-9.7227 -1.72636,-3.4809 1.59099,-9.8995 1.59099,-9.8995 -4.77297,-5.4801 -3.0052,-10.6066 -1.06066,-12.5511 1.60078,-1.6008 2.19678,-4.7194 0.35355,-7.4247 -1.38283,-2.0295 -0.17678,-7.7781 2.47487,-10.253 l -1.41421,-5.6569 c -0.70711,-4.4194 3.9978,-4.6245 4.24264,-0.7071 0.17678,2.8285 1.23744,6.5408 1.23744,6.5408 3.71231,-1.4142 4.59619,2.8284 4.59619,2.8284 0.88388,2.8284 -1.76776,7.955 -1.76776,7.955 6.18718,9.8994 1.59099,19.0918 1.59099,19.0918 4.24264,4.773 3.28505,12.0343 1.76776,13.9654 -1.94454,2.4749 -0.17677,5.3033 0.35356,6.7175 1.1777,3.1406 -0.53033,16.0867 -0.53033,16.0867 5.12652,6.8943 -0.53033,16.4402 -0.53033,16.4402 3.53553,2.6517 3.52148,8.3647 2.29809,10.4298 -0.53033,2.1214 -0.67964,5.6981 0.70711,7.7782 1.06066,1.591 0.88388,12.1976 -1.59099,15.5564 l -15.37957,-5.4801 z"
         style="fill:#854d00;fill-opacity:1;fill-rule:evenodd;stroke:#000000;stroke-width:1px;stroke-linecap:butt;stroke-linejoin:miter;stroke-opacity:1"
         inkscape:connector-curvature="0" />
      <path
         id="path4121"
         d="m 148.57332,-2022.5862 c 0.70711,-6.5407 14.57815,-16.0866 26.51651,-16.0866 11.93836,0 30.75914,3.7123 35.53211,26.1629 0,0 -7.42462,-11.844 -12.02081,-13.2583 0.50913,3.0913 1.26485,6.5524 0.88388,8.3086 0,0 -6.01041,-7.0711 -9.19239,-6.5408 -1.59099,-4.1395 -3.18198,-3.9061 -4.77297,-1.9445 0,0 -1.76777,-3.5356 -5.3033,-5.1266 0,0 1.65062,8.2498 -0.70711,7.7782 -2.65165,-0.3535 -4.29266,-6.9393 -5.12652,-6.0104 -0.70711,1.2375 -2.2981,4.5962 -4.24264,0.3536 0,0 -2.47487,0.8838 -5.12652,-1.0607 -0.58776,-0.431 -2.96658,0.2175 -2.65166,1.4142 1.06066,4.5962 -2.82842,1.7678 -2.82842,1.7678 -1.76777,-1.9446 -3.35876,1.0606 -4.5962,2.2981 -2.91815,2.9181 -6.36396,1.9445 -6.36396,1.9445 z"
         sodipodi:nodetypes="cscccccccccsccsc"
         style="fill:#00802f;fill-opacity:1;fill-rule:evenodd;stroke:#000000;stroke-width:1px;stroke-linecap:butt;stroke-linejoin:miter;stroke-opacity:1"
         inkscape:connector-curvature="0" />
      <path
         id="path4125"
         d="m 146.09845,-2025.5914 c -4.24264,-22.4506 9.72271,-43.3103 14.14213,-44.9013 0,0 -1.23744,4.5962 -0.53033,5.6569 0,0 4.74229,-1.7064 1.41422,2.1213 -0.88388,2.1213 2.2981,2.1213 4.94975,1.0607 l -8.66206,9.5459 c -0.70711,1.7678 -0.53033,2.4749 1.41421,1.7678 l 5.3033,-2.8284 c 0,0 -7.6014,6.3639 -10.07627,9.7227 0,0 4.59619,-0.1768 5.83363,3.182 0,0 -7.24785,0 -9.19239,3.3587 l 4.06587,1.2375 c 0.70711,3.5355 -5.12653,2.1213 -5.12653,2.1213 3.0052,7.2478 -3.53553,7.9549 -3.53553,7.9549 z"
         style="fill:#00802f;fill-opacity:1;fill-rule:evenodd;stroke:#000000;stroke-width:1px;stroke-linecap:butt;stroke-linejoin:miter;stroke-opacity:1"
         inkscape:connector-curvature="0" />
      <path
         id="path4127"
         d="m 142.03258,-2030.8 c -3.53553,-38.5373 -29.87526,-64.4414 -45.25483,-67.6234 l 7.07107,8.6621 -8.30851,0.7071 11.84404,3.5355 c 0,1.9446 -8.83883,2.1213 -8.83883,2.1213 2.65165,1.9446 11.13693,2.2981 11.13693,2.2981 l -3.88909,3.0052 6.71752,0 c 0.35355,3.182 -5.12653,5.6569 -5.12653,5.6569 0,0 11.84404,-1.0607 -1.94454,9.0156 0,0 18.73833,-10.0763 4.24264,6.5408 0,0 15.2028,-9.0157 7.6014,4.2426 0,0 9.19238,-4.4194 4.41941,3.7123 0,0 9.36917,-1.7678 3.53554,3.7123 0,0 4.41941,0.4482 3.53553,4.8677 4.05048,-0.1385 8.78304,5.8618 13.25825,9.5459 z"
         sodipodi:nodetypes="ccccccccccccccccc"
         style="fill:#00802f;fill-opacity:1;fill-rule:evenodd;stroke:#000000;stroke-width:1px;stroke-linecap:butt;stroke-linejoin:miter;stroke-opacity:1"
         inkscape:connector-curvature="0" />
      <path
         id="path4129"
         d="m 141.85581,-2022.2326 c -9.19239,-32.8805 -55.86144,-28.4611 -60.28086,-7.6014 0,0 6.18719,-10.4298 11.84404,-6.8943 0,0 6.01041,-6.0104 10.25305,-0.8839 0,0 4.77297,-3.8891 4.77297,-0.8839 0,0 4.59619,-1.2374 4.24264,1.4142 0,0 3.88909,-1.7677 4.5962,3.7124 l 4.41941,-2.6517 c 0.88388,2.6517 2.46822,2.1077 3.18199,1.7678 3.71231,-1.7678 1.94454,4.4194 1.94454,4.4194 3.35876,-1.4142 4.06586,1.2374 4.06586,1.2374 2.47487,-0.5303 2.12132,3.182 2.12132,3.182 2.2981,-1.591 8.83884,3.182 8.83884,3.182 z"
         style="fill:#00802f;fill-opacity:1;fill-rule:evenodd;stroke:#000000;stroke-width:1px;stroke-linecap:butt;stroke-linejoin:miter;stroke-opacity:1"
         inkscape:connector-curvature="0" />
      <path
         id="path4131"
         d="m 90.41379,-1979.0991 c 1.06066,-42.2496 39.76115,-48.4196 45.78516,-43.6638 6.71751,5.3033 12.55115,1.4142 12.55115,1.4142 2.65165,0.8838 0.17678,4.0658 0.17678,4.0658 47.19938,-3.3587 53.74011,45.6084 53.74011,45.6084 0,0 -4.41942,-10.9601 -7.6014,-8.1317 0,0 -2.47487,-12.0208 -6.71751,-7.4246 0,0 -1.23744,-7.0711 -5.83363,-7.2479 0,0 1.76776,-5.8336 -1.94455,-7.2478 0,0 -3.18198,7.0711 -6.89429,-5.4801 0,0 -0.7071,11.6673 -6.54073,-3.3588 0,0 -2.47488,9.8995 -3.88909,0.1768 -1.06152,-2.9669 -3.88909,2.6517 -3.88909,2.6517 0,0 -2.65165,-11.4905 -4.59619,-1.9446 0,0 -4.06586,-5.3033 -5.3033,5.3033 l -3.18198,-1.591 c 1.59099,-11.1369 -5.48008,-7.071 -5.48008,-7.071 -1.30157,-5.0581 -3.62421,-2.458 -5.83363,-0.7071 -0.1961,-7.3083 -2.65795,-4.4206 -5.65686,0.8838 -0.47454,-4.3119 -1.59891,-5.8946 -4.41941,-0.3535 l -1.591,-3.0052 c -1.55276,5.4403 -3.27987,7.5682 -5.3033,4.0659 0,0 -1.59098,2.4748 -1.76776,5.8336 0,0 -3.53553,-5.4801 -5.83363,4.4194 0,0 -1.76777,1.591 -1.76777,-4.9497 -3.97794,10.9034 -8.10316,22.4941 -7.95495,14.1421 l 0.88388,-6.1872 c -4.41942,4.5962 -11.13693,19.799 -11.13693,19.799 z"
         style="fill:#00802f;fill-opacity:1;fill-rule:evenodd;stroke:#000000;stroke-width:1px;stroke-linecap:butt;stroke-linejoin:miter;stroke-opacity:1"
         inkscape:connector-curvature="0" />
      <path
         id="path4133"
         d="m 140.44159,-2005.9692 c -1.75241,-0.292 -6.0104,8.8389 -6.0104,8.8389 -0.17678,3.3587 3.71231,3.0052 3.71231,3.0052 2.65165,-1.591 3.35875,-11.6673 2.29809,-11.8441 z"
         style="fill:#00802f;fill-opacity:1;fill-rule:evenodd;stroke:#000000;stroke-width:1px;stroke-linecap:butt;stroke-linejoin:miter;stroke-opacity:1"
         inkscape:connector-curvature="0" />
      <path
         id="path4135"
         d="m 133.90086,-1992.1806 c 0,0 -3.83242,6.2033 -1.41422,12.3744 0.17678,3.3588 1.59099,1.0606 2.2981,-0.3536 0.90139,-1.8027 0.88389,-12.0208 -0.88388,-12.0208 z"
         style="fill:#00802f;fill-opacity:1;fill-rule:evenodd;stroke:#000000;stroke-width:1px;stroke-linecap:butt;stroke-linejoin:miter;stroke-opacity:1"
         inkscape:connector-curvature="0" />
      <path
         id="path4137"
         d="m 146.452,-1993.9483 c 0.43702,-2.5207 4.70684,-1.9458 3.88909,1.5909 0.35355,1.2375 -4.33026,0.9536 -3.88909,-1.5909 z"
         style="fill:#00802f;fill-opacity:1;fill-rule:evenodd;stroke:#000000;stroke-width:1px;stroke-linecap:butt;stroke-linejoin:miter;stroke-opacity:1"
         inkscape:connector-curvature="0" />
      <path
         id="path4139"
         d="m 139.5205,-1993.9717 c 0.43702,-2.5206 4.70684,-1.9458 3.88909,1.591 0.35355,1.2374 -4.33026,0.9535 -3.88909,-1.591 z"
         style="fill:#00802f;fill-opacity:1;fill-rule:evenodd;stroke:#000000;stroke-width:1px;stroke-linecap:butt;stroke-linejoin:miter;stroke-opacity:1"
         inkscape:connector-curvature="0" />
      <path
         inkscape:connector-curvature="0"
         sodipodi:nodetypes="cccccccc"
         id="path4074"
         d="m 149.634,-1866.8459 c 3.22772,-0.9683 1.06029,-16.6491 -1.23743,-16.4402 2.96585,-4.6043 4.60956,-10.0641 -0.35356,-19.799 4.3914,-5.3855 1.8102,-10.2729 -0.17677,-15.2028 2.28963,-3.6514 3.9254,-7.8562 0.17677,-16.617 1.55627,-4.3066 3.50101,-8.4041 -0.88388,-15.9099 0.21368,-4.5151 3.38122,-7.6876 -1.06066,-14.3189 3.82939,-5.7154 1.40235,-8.3026 0.88388,-11.844"
         style="fill:none;stroke:#000000;stroke-width:1.5;stroke-linecap:round;stroke-linejoin:miter;stroke-miterlimit:4;stroke-dasharray:none;stroke-opacity:1" />
      <path
         inkscape:connector-curvature="0"
         sodipodi:nodetypes="cc"
         id="path4076"
         d="m 153.87664,-1898.1353 c -1.23744,1.468 -2.82842,-0.7446 -4.06586,-1.4142"
         style="fill:none;stroke:#000000;stroke-width:1px;stroke-linecap:butt;stroke-linejoin:miter;stroke-opacity:1" />
      <path
         inkscape:connector-curvature="0"
         sodipodi:nodetypes="cc"
         id="path4078"
         d="m 154.2302,-1914.5756 c -1.76777,0.2611 -3.53553,-0.6071 -5.3033,-1.2374"
         style="fill:none;stroke:#000000;stroke-width:1px;stroke-linecap:butt;stroke-linejoin:miter;stroke-opacity:1" />
      <path
         inkscape:connector-curvature="0"
         sodipodi:nodetypes="cc"
         id="path4080"
         d="m 148.57334,-1934.5513 c 1.64992,0.8509 3.29983,1.7608 4.94975,1.2374"
         style="fill:none;stroke:#000000;stroke-width:1px;stroke-linecap:butt;stroke-linejoin:miter;stroke-opacity:1" />
      <path
         inkscape:connector-curvature="0"
         sodipodi:nodetypes="cc"
         id="path4082"
         d="m 152.28565,-1950.9916 c -0.85811,0.3204 -2.68196,0.3822 -4.94974,-0.7071"
         style="fill:none;stroke:#000000;stroke-width:1px;stroke-linecap:butt;stroke-linejoin:miter;stroke-opacity:1" />
      <path
         inkscape:connector-curvature="0"
         sodipodi:nodetypes="cc"
         id="path3506"
         d="m 151.25292,-1970.2951 c -0.85811,0.3204 -1.05696,0.6321 -3.32474,-0.4571"
         style="fill:none;stroke:#000000;stroke-width:1px;stroke-linecap:butt;stroke-linejoin:miter;stroke-opacity:1" />
    </g>
  </g>
</svg>
