<?xml version="1.0"?>
<svg xmlns:rdf="http://www.w3.org/1999/02/22-rdf-syntax-ns#" xmlns="http://www.w3.org/2000/svg" xmlns:cc="http://creativecommons.org/ns#" xmlns:xlink="http://www.w3.org/1999/xlink" xmlns:dc="http://purl.org/dc/elements/1.1/" xmlns:svg="http://www.w3.org/2000/svg" id="svg2433" viewBox="0 0 309.04 314.13" version="1.0">
  <defs id="defs2435">
    <filter id="filter3734" y="-.26726" width="1.1823" height="1.5345" x="-.091156">
      <feGaussianBlur id="feGaussianBlur3736" stdDeviation="8.1683695"/>
    </filter>
    <radialGradient id="radialGradient3763" gradientUnits="userSpaceOnUse" cy="416.03" cx="410.37" gradientTransform="matrix(.99588 .13685 -.13123 .95501 585.57 -213.35)" r="214.27">
      <stop id="stop5645" stop-color="#fff" offset="0"/>
      <stop id="stop5651" stop-color="#e9e9de" offset=".5"/>
      <stop id="stop5939" stop-color="#c2b7ae" offset=".71496"/>
      <stop id="stop5647" stop-color="#756559" offset="1"/>
    </radialGradient>
    <radialGradient id="radialGradient3765" gradientUnits="userSpaceOnUse" cy="408.74" cx="379.28" gradientTransform="matrix(-1 0 0 -.18383 1385.9 411.41)" r="153.9">
      <stop id="stop3455" stop-color="#b9b9b9" offset="0"/>
      <stop id="stop3457" stop-color="#525252" offset="1"/>
    </radialGradient>
    <radialGradient id="radialGradient3769" gradientUnits="userSpaceOnUse" cy="256" cx="978.69" gradientTransform="matrix(1.3427 .035694 -.0046840 .17619 -334.16 295.31)" r="160.15">
      <stop id="stop4850" stop-color="#fcfcfc" offset="0"/>
      <stop id="stop4852" stop-color="#fcfcfc" stop-opacity="0" offset="1"/>
    </radialGradient>
  </defs>
  <g id="layer1" transform="translate(-763.63 -73.801)">
    <g id="g3742">
      <g id="g3460" transform="matrix(.72368 0 0 .72368 211.01 20.393)">
        <path id="path5653" opacity=".84387" d="m564.15 662.26a106.64 40.112 0 1 1 -213.29 0 106.64 40.112 0 1 1 213.29 0z" fill-rule="evenodd" transform="matrix(1.5404 0 0 1.2111 273.88 -338.6)" filter="url(#filter3734)" stroke="#fff" stroke-linecap="round" stroke-width="2"/>
        <path id="path4744" d="m1190.4 287.32c0 47.13-15.3 90.71-41.2 126.02-2.6 3.49-2.7 9.6-8 10.2-1.3 7.15-5.2 6.45-9.8 11.08-38.6 38.63-95.4 65.97-154.25 65.97-59.42 0-113.18-24.34-151.87-63.58-3.58-3.64-10.63-4.61-8.48-8.92-4.31 2.09-7.95-9.73-10.8-13.56-26.46-35.52-42.12-79.55-42.12-127.21 0-45.91 14.53-88.77 39.24-123.58 2.97-4.2-1.56-9.4 6.79-11.34 0.15-9.88 8.62-10.11 13.29-14.81 38.64-38.932 94.8-63.539 153.95-63.539 59.25 0 112.85 24.21 151.55 63.269 2.8 2.82 7.1 3.52 8.1 8.67 4.5 1.06 5.7 6.59 8.4 10.01 28.3 36.21 45.2 81.8 45.2 131.32z" fill-rule="evenodd" stroke="#52392b" stroke-linecap="round" stroke-width=".5" fill="url(#radialGradient3763)"/>
        <path id="path3405" d="m1136.1 148.87c-0.6 3.35-5.3 6.17-6.8 5.18m-2.5 1.86c-0.7 3.32-5.5 5.88-7 4.82m-2.5 1.71c-1 3.25-5.9 5.61-7.3 4.49m-2.7 1.56c-1.1 3.21-6.2 5.32-7.5 4.13m-2.7 1.42c-1.3 3.16-6.5 5.01-7.7 3.73m-2.9 1.31c-1.4 3.1-6.7 4.67-7.9 3.34m-2.9 1.18c-1.6 3.03-6.9 4.33-8 2.95m-3 1.05c-1.7 2.95-7.2 3.99-8.2 2.56m-3 0.9c-1.9 2.83-7.3 3.67-8.3 2.2m-3 0.76c-2.1 2.75-7.6 3.36-8.5 1.85m-3 0.62c-2.2 2.67-7.7 3.04-8.6 1.49m-3 0.5c-2.3 2.58-7.8 2.73-8.6 1.15m-3.1 0.38c-2.4 2.49-7.94 2.43-8.65 0.82m-3.09 0.26c-2.49 2.4-8.02 2.14-8.67 0.51m-3.11 0.15c-2.57 2.3-8.1 1.85-8.68 0.2m-3.11 0.05c-2.66 2.21-8.16 1.57-8.68-0.1m-3.11-0.05c-2.75 2.12-8.22 1.29-8.68-0.4m-3.1-0.16c-2.83 2.01-8.26 0.98-8.65-0.72m-3.09-0.27c-2.91 1.9-8.3 0.67-8.62-1.05m-3.07-0.39c-2.99 1.78-8.32 0.33-8.56-1.4m-3.06-0.52c-3.06 1.67-8.32 0-8.49-1.74m-3.03-0.65c-3.13 1.54-8.31-0.36-8.4-2.1m-2.99-0.79c-3.2 1.4-8.28-0.72-8.29-2.47m-2.94-0.93c-3.27 1.27-8.23-1.08-8.12-2.82m-2.94-1.09c-3.31 1.12-8.15-1.48-7.95-3.21m-2.88-1.22c-3.37 0.98-8.06-1.87-7.78-3.6m-2.82-1.34c-3.41 0.82-7.93-2.28-7.57-3.99m-2.7-1.45c-3.46 0.58-7.84-2.69-7.39-4.38m-2.61-1.6c-3.49 0.43-7.69-3.05-7.16-4.72m-2.52-1.74c-3.5 0.27-7.5-3.41-6.85-5.04" stroke="#fff" stroke-linecap="round" stroke-width="1.0023px" fill="none"/>
        <g id="g2582" transform="matrix(-1.0069 0 0 -.96649 1958.4 561.98)">
          <path id="path4573" d="m809.46 416.98c-1.11-0.25-1.93-1.01-2.27-2.1s0.23-2.46 1.03-3.28 1.62-0.92 2.73-0.66 1.93 1.03 2.27 2.12c0.33 1.09 0.24 2.04-0.55 2.86-0.8 0.82-2.09 1.32-3.21 1.06v0m9.61-7.59c-1.1-0.31-1.89-1.11-2.18-2.22-0.28-1.1 0.37-2.43 1.21-3.2 0.83-0.78 1.66-0.85 2.76-0.53 1.09 0.31 1.88 1.12 2.15 2.22 0.28 1.11 0.15 2.06-0.68 2.84s-2.16 1.2-3.26 0.89v0m10.24-7.25c-1.07-0.39-1.8-1.24-2-2.37-0.21-1.12 0.17-2.18 1.04-2.92 0.87-0.73 2.05-1 3.12-0.6 1.07 0.39 1.8 1.25 2 2.37 0.19 1.12-0.23 2.23-1.1 2.96-0.88 0.74-1.98 0.94-3.06 0.56v0m10.36-6.53c-1.05-0.44-1.74-1.33-1.89-2.46s0.28-2.17 1.18-2.87c0.91-0.69 2.1-0.87 3.16-0.43 1.05 0.44 1.73 1.33 1.88 2.46 0.14 1.14-0.35 2.2-1.25 2.89-0.91 0.7-2.02 0.84-3.08 0.41v0m10.68-5.99c-1.04-0.48-1.68-1.4-1.78-2.54-0.09-1.14 0.39-2.16 1.32-2.81 0.94-0.65 2.15-0.75 3.18-0.26s1.67 1.41 1.76 2.55-0.19 2.05-1.14 2.68c-0.96 0.63-2.31 0.87-3.34 0.38v0m10.96-5.43c-1.01-0.53-1.61-1.48-1.65-2.62s0.85-2.32 1.83-2.91c0.98-0.58 1.8-0.47 2.81 0.07s1.6 1.49 1.64 2.64c0.04 1.14-0.29 2.04-1.27 2.62-0.98 0.59-2.35 0.74-3.36 0.2v0m11.22-4.87c-0.99-0.58-1.54-1.55-1.53-2.69 0.01-1.15 0.96-2.26 1.97-2.8 1-0.54 1.82-0.39 2.8 0.2 0.98 0.58 1.53 1.56 1.52 2.7-0.02 1.15-0.39 2.03-1.39 2.57-1.01 0.54-2.39 0.6-3.37 0.02v0m11.71-4.4c-0.94-0.64-1.74-1.53-1.68-2.67s1.06-2.19 2.09-2.68 1.84-0.3 2.79 0.32c0.96 0.63 1.46 1.64 1.39 2.78-0.06 1.14-0.47 2-1.5 2.49-1.03 0.5-2.15 0.41-3.09-0.24v0m11.62-3.72c-0.91-0.68-1.35-1.72-1.22-2.85 0.14-1.13 0.82-2.03 1.87-2.48 1.05-0.44 1.85-0.22 2.77 0.45 0.93 0.67 1.7 1.63 1.56 2.76s-0.85 2.06-1.9 2.5c-1.05 0.45-2.17 0.31-3.08-0.38v0m11.77-3.17c-0.88-0.73-1.28-1.78-1.09-2.9 0.19-1.13 0.9-2 1.97-2.4s2.22-0.23 3.1 0.5 1.27 1.78 1.08 2.91c-0.19 1.12-0.93 2-2 2.4s-2.18 0.22-3.06-0.51v0m11.88-2.64c-0.85-0.76-1.2-1.83-0.96-2.95 0.23-1.12 0.98-1.95 2.07-2.31 1.08-0.35 2.22-0.12 3.07 0.64s1.19 1.83 0.96 2.95c-0.24 1.12-1.02 1.95-2.1 2.31-1.09 0.35-2.19 0.12-3.04-0.64v0m11.98-2.13c-0.82-0.79-1.13-1.88-0.85-2.98 0.29-1.11 1.07-1.91 2.17-2.22s2.21-0.03 3.03 0.77 1.12 1.88 0.84 2.98c-0.29 1.11-1.09 1.91-2.19 2.22s-2.19 0.03-3-0.77v0m12.03-1.62c-0.78-0.83-1.04-1.92-0.72-3.02 0.33-1.09 1.14-1.87 2.25-2.13 1.11-0.27 2.21 0.06 2.99 0.89s1.05 1.92 0.72 3.02c-0.33 1.09-1.16 1.86-2.27 2.12-1.11 0.27-2.18-0.05-2.97-0.88v0m12.08-1.15c-0.75-0.86-0.97-1.96-0.61-3.04 0.37-1.08 1.22-1.82 2.34-2.05 1.12-0.22 2.19 0.15 2.94 1.01s0.97 1.96 0.6 3.04-1.22 1.82-2.34 2.04-2.18-0.14-2.93-1v0m12.09-0.69c-0.72-0.89-0.89-2-0.49-3.06 0.41-1.07 1.28-1.78 2.41-1.96s2.17 0.22 2.89 1.11 0.9 1.99 0.49 3.06-1.27 1.78-2.4 1.96-2.18-0.22-2.9-1.11v0m12.1-0.26c-0.69-0.91-0.82-2.03-0.38-3.08 0.45-1.05 1.35-1.72 2.48-1.86s1.84 0.3 2.54 1.2c0.71 0.9 1.13 2.03 0.69 3.08-0.45 1.05-1.34 1.74-2.48 1.88-1.13 0.14-2.17-0.31-2.85-1.22v0m12.1 0.17c-0.65-0.94-0.74-2.06-0.26-3.09 0.49-1.03 1.41-1.68 2.55-1.77 1.14-0.1 1.82 0.37 2.49 1.29 0.67 0.93 1.07 2.07 0.58 3.1s-1.41 1.69-2.55 1.79-2.15-0.38-2.81-1.32v0m12.11 0.61c-0.6-0.96-0.7-2.08-0.1-3.1 0.5-1.01 1.4-1.62 2.6-1.67 1.1-0.05 1.8 0.44 2.4 1.39s0.7 2.07 0.2 3.09-1.2 1.66-2.3 1.72c-1.2 0.05-2.2-0.47-2.8-1.43v0m12.1 1.07c-0.6-0.98-0.6-2.11 0-3.1 0.5-0.99 1.5-1.56 2.6-1.57 1.2 0 1.8 0.51 2.4 1.49 0.6 0.97 0.7 2.09 0.1 3.1-0.5 1-1.3 1.61-2.4 1.62-1.2 0-2.1-0.55-2.7-1.54v0m12 1.56c-0.5-1.01-0.5-2.13 0.1-3.1s1.6-1.5 2.8-1.46c1.1 0.04 1.8 0.58 2.3 1.58 0.6 1 0.8 2.18 0.2 3.15s-1.6 1.51-2.7 1.47c-1.2-0.04-2.1-0.63-2.7-1.64v0m12 2.06c-0.5-1.03-0.4-2.15 0.3-3.09 0.6-0.95 1.6-1.43 2.8-1.35 1.1 0.09 1.7 0.66 2.2 1.68s0.8 2.22 0.1 3.16c-0.6 0.94-1.7 1.44-2.8 1.35s-2.1-0.72-2.6-1.75v0m11.9 2.58c-0.4-1.05-0.3-2.16 0.4-3.08 0.7-0.91 1.7-1.36 2.8-1.22 1.2 0.14 2.1 0.82 2.6 1.87 0.4 1.05 0.3 2.16-0.4 3.08-0.7 0.91-1.7 1.35-2.9 1.21-1.1-0.14-2-0.81-2.5-1.86v0m11.8 3.12c-0.4-1.07-0.2-2.18 0.5-3.06 0.7-0.89 1.8-1.28 2.9-1.1 1.1 0.19 2.1 0.92 2.5 1.99s0.2 2.18-0.5 3.06c-0.8 0.88-1.9 1.26-3 1.07-1.1-0.18-2-0.89-2.4-1.96v0m11.7 3.66c-0.4-1.08-0.2-2.18 0.6-3.03s1.8-1.2 2.9-0.97c1.2 0.24 2.1 1.03 2.4 2.12 0.4 1.09 0.1 2.19-0.6 3.03-0.8 0.85-1.9 1.16-3 0.92-1.1-0.23-2-0.98-2.3-2.07v0m11.4 4.22c-0.3-1.1 0-2.18 0.8-3s2.3-0.99 3.4-0.68 1.5 0.99 1.8 2.09 0.1 2.19-0.7 3-1.7 1.19-2.8 0.88-2.2-1.19-2.5-2.29v0m11.3 4.78c-0.3-1.11 0-2.19 0.9-2.96 0.8-0.78 2.3-0.86 3.4-0.5s1.5 1.06 1.8 2.17c0.2 1.11-0.1 2.19-1 2.96-0.8 0.77-1.7 1.11-2.8 0.75s-2.1-1.31-2.3-2.42v0m11 5.34c-0.2-1.13 0.2-2.18 1-2.92 0.9-0.74 2.4-0.73 3.4-0.32 1.1 0.41 1.5 1.13 1.7 2.25 0.2 1.13-0.2 2.18-1.1 2.92-0.8 0.73-1.7 1.03-2.8 0.62-1.1-0.42-2-1.43-2.2-2.55v0m11 6.05c-0.2-1.13 0.3-2.16 1.2-2.84 0.9-0.67 2-0.79 3.1-0.33 1 0.46 1.8 1.4 1.9 2.54 0.1 1.13-0.3 2.16-1.3 2.83-0.9 0.67-2.1 0.77-3.1 0.3-1.1-0.46-1.7-1.36-1.8-2.5v0m10.4 6.46c-0.1-1.14 0.4-2.15 1.3-2.78 1-0.63 2.1-0.69 3.1-0.18 1.1 0.51 1.7 1.5 1.8 2.64s-0.4 2.14-1.4 2.77c-1 0.62-2.1 0.65-3.1 0.14-1.1-0.51-1.7-1.45-1.7-2.59v0m10 6.98c0-1.14 0.5-2.12 1.5-2.71 1-0.58 2.1-0.59 3.1-0.04 1 0.56 1.6 1.6 1.6 2.74 0.1 1.15-0.5 2.12-1.5 2.7s-1.9 0.73-2.9 0.15c-1-0.59-1.8-1.7-1.8-2.84v0" fill-rule="evenodd" stroke="url(#radialGradient3765)" stroke-linecap="round" stroke-width=".5" fill="#434343"/>
          <path id="path4575" d="m830.93 437.69c-1.11-0.28-1.91-1.06-2.22-2.16s0.13-2.33 0.91-3.17c0.78-0.83 1.65-0.95 2.76-0.67 1.1 0.29 1.9 1.08 2.21 2.18 0.3 1.1 0.02 2.18-0.78 3-0.8 0.81-1.77 1.1-2.88 0.82v0m8.6-6.57c-1.09-0.34-1.86-1.16-2.11-2.27-0.26-1.11-0.01-2.18 0.83-2.95 0.84-0.78 1.94-1.03 3.03-0.69s1.85 1.17 2.1 2.28c0.26 1.11-0.08 2.19-0.92 2.96-0.84 0.78-1.83 1-2.93 0.67v0m8.94-6.12c-1.08-0.38-1.8-1.24-2.01-2.36-0.2-1.13 0.12-2.16 0.99-2.9 0.88-0.73 1.98-0.92 3.06-0.53 1.07 0.39 1.79 1.25 1.99 2.37 0.2 1.13-0.19 2.18-1.06 2.91-0.88 0.74-1.9 0.89-2.97 0.51v0m9.24-5.64c-1.05-0.44-1.74-1.33-1.89-2.46s0.23-2.13 1.14-2.82 2.02-0.83 3.08-0.39c1.05 0.44 1.43 1.51 1.55 2.65 0.11 1.14 0.04 1.98-0.87 2.68-0.91 0.69-1.95 0.77-3.01 0.34v0m9.19-4.96c-1.02-0.51-1.64-1.45-1.71-2.59-0.07-1.13 0.62-2.25 1.56-2.9 0.94-0.64 1.81-0.61 2.83-0.09 1.02 0.51 1.64 1.45 1.7 2.59 0.07 1.14-0.07 1.96-1.01 2.61s-2.35 0.89-3.37 0.38v0m9.79-4.66c-0.99-0.56-1.57-1.52-1.59-2.66-0.01-1.14 0.73-2.23 1.7-2.83s1.85-0.51 2.84 0.06c1 0.56 1.57 1.52 1.58 2.66 0.01 1.15-0.17 1.95-1.14 2.55s-2.39 0.78-3.39 0.22v0m10.03-4.17c-0.97-0.6-1.5-1.59-1.47-2.73 0.04-1.14 0.84-2.18 1.83-2.74 1-0.56 1.88-0.41 2.85 0.2 0.97 0.6 1.49 1.6 1.45 2.74s-0.64 2.09-1.64 2.62c-1.01 0.54-2.05 0.52-3.02-0.09v0m10.23-3.67c-0.94-0.64-1.43-1.65-1.34-2.79s0.67-2.08 1.7-2.57c1.04-0.49 2.16-0.4 3.09 0.25 0.94 0.65 1.43 1.66 1.33 2.8-0.09 1.14-0.73 2.07-1.76 2.55-1.03 0.49-2.08 0.41-3.02-0.24v0m10.41-3.18c-0.91-0.68-1.35-1.72-1.22-2.85 0.14-1.13 0.78-2.04 1.83-2.48s2.17-0.3 3.08 0.39 1.34 1.72 1.2 2.86c-0.14 1.13-0.82 2.02-1.87 2.47-1.05 0.44-2.11 0.3-3.02-0.39v0m10.56-2.7c-0.88-0.72-1.28-1.78-1.09-2.9 0.19-1.13 0.87-1.99 1.94-2.39s2.18-0.21 3.06 0.52 1.27 1.78 1.08 2.91c-0.19 1.12-0.91 1.99-1.98 2.39-1.07 0.39-2.13 0.2-3.01-0.53v0m10.69-2.23c-0.85-0.76-1.2-1.83-0.97-2.95 0.24-1.11 0.96-1.94 2.05-2.29 1.09-0.36 2.18-0.12 3.03 0.64 0.85 0.77 1.2 1.84 0.96 2.95-0.24 1.12-0.99 1.95-2.07 2.31-1.09 0.35-2.15 0.1-3-0.66v0m10.79-1.77c-0.82-0.8-1.12-1.88-0.84-2.99 0.28-1.1 1.05-1.9 2.15-2.21 1.1-0.3 2.18-0.02 3 0.78 0.82 0.79 1.12 1.87 0.84 2.98-0.29 1.11-1.07 1.91-2.17 2.22s-2.16 0.02-2.98-0.78v0m10.88-1.33c-0.79-0.83-1.05-1.92-0.73-3.02 0.33-1.09 1.14-1.86 2.25-2.12 1.11-0.27 2.18 0.06 2.97 0.89 0.78 0.83 1.04 1.92 0.72 3.01-0.33 1.1-1.15 1.87-2.26 2.13-1.11 0.27-2.17-0.06-2.95-0.89v0m10.94-0.91c-0.76-0.86-0.98-1.96-0.61-3.04s1.21-1.82 2.33-2.04 2.19 0.14 2.94 1 0.97 1.96 0.6 3.04-1.21 1.82-2.33 2.04c-1.12 0.23-2.18-0.14-2.93-1v0m10.98-0.5c-0.72-0.89-0.89-2-0.49-3.06 0.41-1.07 1.29-1.78 2.42-1.96 1.12-0.18 2.17 0.22 2.89 1.11s0.9 2 0.49 3.06c-0.41 1.07-1.28 1.78-2.41 1.96-1.12 0.18-2.18-0.22-2.9-1.11v0m11.02-0.11c-0.69-0.91-0.82-2.03-0.38-3.08 0.45-1.05 1.35-1.74 2.49-1.88 1.13-0.14 2.16 0.3 2.85 1.22 0.69 0.91 0.82 2.02 0.38 3.08-0.45 1.05-1.35 1.72-2.48 1.86s-2.17-0.29-2.86-1.2v0m11.01 0.27c-0.66-0.93-0.75-2.05-0.27-3.09 0.49-1.03 1.41-1.69 2.55-1.79 1.13-0.09 2.15 0.38 2.8 1.32s0.79 2.06 0.26 3.09c-0.48 1.04-1.41 1.68-2.54 1.77-1.14 0.1-2.15-0.36-2.8-1.3v0m10.97 0.68c-0.6-0.96-0.7-2.08-0.2-3.1 0.6-1.01 1.5-1.64 2.7-1.69 1.1-0.06 2.1 0.46 2.7 1.42 0.6 0.97 0.7 2.09 0.1 3.1-0.5 1.02-1.4 1.62-2.6 1.67-1.1 0.05-2.1-0.44-2.7-1.4v0m10.9 1.1c-0.6-0.99-0.6-2.11 0-3.1 0.5-1 1.5-1.59 2.6-1.6 1.2 0 2.2 0.55 2.7 1.54 0.6 0.99 0.6 2.11 0.1 3.1-0.6 0.99-1.6 1.56-2.7 1.57-1.2 0-2.1-0.53-2.7-1.51v0m10.8 1.53c-0.5-1.01-0.5-2.13 0.2-3.1 0.6-0.97 1.5-1.52 2.7-1.48 1.1 0.04 2.1 0.64 2.6 1.65s0.5 2.13-0.1 3.1c-0.6 0.96-1.6 1.49-2.8 1.45-1.1-0.04-2-0.61-2.6-1.62v0m10.8 1.98c-0.5-1.02-0.4-2.14 0.2-3.09 0.7-0.94 1.7-1.45 2.8-1.36s2.1 0.73 2.6 1.76c0.4 1.03 0.4 2.15-0.3 3.09-0.6 0.94-1.6 1.43-2.8 1.34-1.1-0.09-2-0.71-2.5-1.74v0m10.6 2.46c-0.4-1.05-0.3-2.17 0.4-3.08 0.7-0.92 1.7-1.37 2.8-1.24 1.1 0.14 2 0.82 2.5 1.87 0.4 1.05 0.3 2.17-0.4 3.08s-1.7 1.35-2.8 1.21c-1.2-0.14-2-0.8-2.5-1.84v0m10.5 2.92c-0.4-1.07-0.2-2.17 0.5-3.06 0.8-0.88 1.8-1.28 2.9-1.09s2 0.9 2.4 1.97-0.1 2.08-0.9 2.95c-0.7 0.86-1.4 1.38-2.5 1.19-1.2-0.18-2-0.89-2.4-1.96v0m10 3.3c-0.3-1.09-0.1-2.19 0.7-3.02s2.1-1.09 3.2-0.85 1.7 0.89 2 1.98 0.1 2.19-0.7 3.02-1.5 1.3-2.6 1.06-2.3-1.1-2.6-2.19v0m10.1 3.9c-0.2-1.1 0.1-2.18 0.9-2.98s2.1-1 3.2-0.71 1.6 0.98 1.9 2.09 0 2.19-0.8 2.98c-0.9 0.79-1.6 1.22-2.7 0.93s-2.2-1.2-2.5-2.31v0m10 4.4c-0.3-1.12 0.1-2.18 0.9-2.94 0.9-0.76 2.2-0.9 3.3-0.56s1.6 1.07 1.8 2.19-0.1 2.19-1 2.94c-0.9 0.76-2 0.98-3 0.61-1.1-0.37-1.8-1.12-2-2.24v0m9.6 4.89c-0.1-1.13 0.3-2.18 1.2-2.89 0.8-0.72 1.9-0.95 3-0.54 1 0.42 1.7 1.3 1.9 2.43 0.2 1.12-0.2 2.17-1.1 2.88-0.9 0.72-2 0.88-3.1 0.47-1-0.42-1.7-1.22-1.9-2.35v0m9.5 5.37c-0.2-1.13 0.3-2.16 1.2-2.83 0.9-0.68 2-0.84 3-0.37 1.1 0.46 1.7 1.37 1.9 2.51 0.1 1.13-0.4 2.16-1.3 2.83s-2 0.78-3.1 0.32c-1-0.47-1.6-1.32-1.7-2.46v0m9.1 5.86c-0.1-1.14 0.4-2.15 1.4-2.78 0.9-0.63 2-0.72 3-0.21 1 0.52 1.6 1.46 1.7 2.6s-0.7 1.95-1.7 2.55-1.8 0.9-2.8 0.39c-1-0.52-1.6-1.41-1.6-2.55v0m8.5 6.09c0-1.14 0.5-2.11 1.5-2.67s2.3-0.43 3.3 0.14c1 0.56 1.4 1.35 1.4 2.49-0.1 1.15-0.6 2.11-1.6 2.67-1 0.55-1.8 0.8-2.8 0.24-1-0.57-1.9-1.73-1.8-2.87v0" fill-rule="evenodd" stroke="url(#radialGradient3765)" stroke-linecap="round" stroke-width=".5" fill="#434343"/>
          <path id="path4577" d="m809.32 412.94c-0.53 0.54-0.96 1.59-0.66 2.28l5.47 12.84 0.57 1.36 1.47-0.25s0.26-0.03 0.33-0.04c0 0.08-0.03 0.35-0.03 0.35l-0.12 1.5s1.37 0.47 1.37 0.47 12.97 4.81 12.97 4.81c0.64 0.28 1.37 0.18 1.92-0.26s0.53-0.9 0.41-1.59c-0.11-0.69-0.61-1.25-1.27-1.47 0 0-0.93-0.37-1.08-0.43-0.68 0.44-1.01 0.51-1.14 0.35-2.19 0.4-6.94-1.05-10.96-4.29-0.31-0.37 0.58-1.61 2.06-2.91l0.13-0.98-0.8 0.11-0.56 0.45c-1.82 1.47-3.55 2.34-3.92 1.89-2.6-4.52-3.05-9.62-2.42-11.94-0.13-0.31-0.63-1.58-0.63-1.58-0.22-0.6-0.73-1.06-1.36-1.19-0.63-0.14-1.29 0.06-1.75 0.52m9.81-7.58c-0.56 0.51-0.75 1.31-0.5 2.02l4.57 13.3 0.51 1.38 1.47-0.18s0.26-0.02 0.34-0.03c-0.01 0.08-0.05 0.35-0.05 0.35l-0.2 1.49 1.36 0.54 12.73 5.44c0.63 0.31 1.04 0.46 1.61 0.07 0.58-0.4 0.91-1.09 0.82-1.79-0.08-0.69-0.55-1.27-1.2-1.52 0 0-0.91-0.42-1.06-0.48-0.69 0.41-1.04 0.44-1.16 0.27-2.21 0.3-6.9-1.4-10.76-4.82-0.3-0.39 0.66-1.57 2.2-2.79 0 0 0.18-0.98 0.18-0.98s-0.79 0.08-0.79 0.08l-0.59 0.42c-1.89 1.37-3.67 2.15-4.02 1.68-2.38-4.65-2.58-9.73-1.84-12.02-0.1-0.32-0.55-1.61-0.55-1.61-0.19-0.62-0.68-1.09-1.3-1.26s-1.29 0-1.77 0.44m10.19-7.07c-0.58 0.49-0.81 1.28-0.59 2l3.91 13.48 0.44 1.4 1.48-0.11h0.34c-0.02 0.07-0.07 0.35-0.07 0.35l-0.27 1.47 1.33 0.61 12.48 6.06c0.61 0.34 1.02 0.53 1.62 0.16 0.59-0.37 0.95-1.04 0.9-1.74s-0.49-1.3-1.13-1.58-0.89-0.46-1.03-0.53c-0.72 0.37-1.32 0.54-1.43 0.37-2.22 0.14-6.72-1.81-10.33-5.5-0.26-0.4 0.79-1.54 2.39-2.69l0.22-0.97-0.8 0.04-0.6 0.39c-1.95 1.29-3.78 1.96-4.12 1.47-2.15-4.75-2.09-9.82-1.24-12.08-0.09-0.31-0.47-1.63-0.47-1.63-0.16-0.62-0.63-1.12-1.24-1.32-0.61-0.19-1.29-0.06-1.79 0.35m10.54-6.52c-0.6 0.46-0.87 1.23-0.69 1.97l3.25 13.62 0.38 1.43 1.48-0.04s0.26 0.01 0.34 0.01c-0.02 0.07-0.08 0.34-0.08 0.34l-0.34 1.47 1.29 0.66 11.88 6.87c0.59 0.38 1.32 0.4 1.93 0.06 0.62-0.34 1.01-0.99 0.99-1.69s-0.43-1.32-1.05-1.63-0.87-0.51-1.01-0.59c-0.73 0.35-1.34 0.49-1.44 0.31-2.23 0.03-6.64-2.15-10.07-6.01-0.25-0.42 0.86-1.5 2.51-2.57l0.27-0.95-0.8-0.01-0.62 0.37c-2.01 1.19-3.89 1.74-4.2 1.25-1.92-4.86-1.4-10.06-0.4-12.25-0.07-0.32-0.35-1.66-0.35-1.66-0.12-0.63-0.55-1.17-1.14-1.4-0.6-0.24-1.61 0.05-2.13 0.44m10.86-5.97c-0.63 0.42-0.93 1.19-0.78 1.93l2.59 13.74 0.3 1.44 1.47 0.04s0.27 0.03 0.34 0.04c-0.03 0.07-0.11 0.34-0.11 0.34l-0.38 1.43 1.26 0.72 11.56 7.47c0.57 0.41 1.3 0.46 1.93 0.15s1.05-0.95 1.07-1.65c0.01-0.7-0.37-1.33-0.98-1.67 0 0-0.84-0.55-0.98-0.63-0.74 0.31-1.36 0.42-1.45 0.23-2.22-0.07-6.55-2.48-9.79-6.5-0.22-0.42 0.9-1.47 2.62-2.43l0.34-0.93-0.8-0.06-0.64 0.33c-2.07 1.09-3.96 1.55-4.23 1.03-1.57-4.98-0.95-10.07 0.16-12.21-0.05-0.33-0.27-1.68-0.27-1.68-0.09-0.64-0.49-1.19-1.08-1.45-0.58-0.27-1.62-0.05-2.15 0.32m11.49-5.56c-0.65 0.39-1.34 1.29-1.22 2.04l1.96 13.82 0.21 1.47 1.47 0.12s0.27 0.05 0.34 0.06c-0.03 0.07-0.12 0.33-0.12 0.33l-0.47 1.39 1.17 0.83 11.28 7.99c0.55 0.44 1.28 0.53 1.92 0.25s0.76-0.75 0.82-1.45c0.07-0.69-0.27-1.36-0.86-1.74 0 0-0.53-0.71-0.66-0.81-0.76 0.28-1.38 0.36-1.46 0.17-2.22-0.18-6.44-2.8-9.48-6.97-0.21-0.43 0.97-1.41 2.73-2.28 0 0 0.38-0.92 0.38-0.92s-0.79-0.1-0.79-0.1l-0.66 0.29c-2.14 0.95-4.03 1.35-4.28 0.82-1.33-5.04-0.46-10.08 0.75-12.17-0.04-0.32-0.2-1.68-0.2-1.68-0.06-0.65-0.43-1.21-1.01-1.51-0.57-0.29-1.26-0.27-1.82 0.05m11.4-4.8c-0.67 0.35-1.4 1.21-1.31 1.96l1.31 13.9s0.14 1.46 0.14 1.46l1.47 0.21s0.26 0.05 0.33 0.06c-0.03 0.07-0.14 0.33-0.14 0.33l-0.57 1.39 1.17 0.86 10.92 8.52c0.52 0.47 1.25 0.59 1.9 0.34 0.66-0.25 0.8-0.7 0.9-1.39 0.09-0.69-0.21-1.37-0.78-1.78 0 0-0.77-0.64-0.9-0.74-0.77 0.22-1.13 0.18-1.2-0.01-2.21-0.28-6.31-3.12-9.16-7.42-0.19-0.45 1.04-1.35 2.84-2.14 0 0 0.43-0.9 0.43-0.9l-0.79-0.13-0.67 0.26c-2.18 0.84-4.1 1.14-4.32 0.6-1.1-5.1 0.01-10.08 1.31-12.1-0.02-0.33-0.12-1.7-0.12-1.7-0.03-0.64-0.38-1.22-0.94-1.55-0.55-0.32-1.25-0.33-1.82-0.03m11.61-4.23c-0.68 0.32-1.11 1.02-1.08 1.78l0.36 14.04 0.07 1.47 1.46 0.27s0.25 0.06 0.32 0.08c-0.03 0.07-0.15 0.32-0.15 0.32l-0.63 1.36 1.13 0.92 10.52 9.02c0.51 0.49 0.88 0.75 1.54 0.55 0.67-0.21 1.19-0.77 1.32-1.46s-0.15-1.38-0.7-1.81-0.74-0.67-0.86-0.78c-0.79 0.19-1.41 0.2-1.47 0-2.19-0.43-5.91-3.5-8.57-7.93-0.16-0.45 1.12-1.28 2.95-1.98 0 0 0.47-0.88 0.47-0.88l-0.79-0.17-0.68 0.23c-2.21 0.74-4.15 0.93-4.35 0.38-0.86-5.15 0.47-10.05 1.87-12.01-0.01-0.33-0.05-1.7-0.05-1.7 0-0.64-0.31-1.24-0.86-1.59-0.54-0.34-1.23-0.39-1.82-0.11m11.79-3.67c-0.7 0.29-1.16 0.97-1.16 1.73l-0.27 14.02v1.47l1.44 0.34s0.26 0.08 0.33 0.09c-0.04 0.07-0.17 0.32-0.17 0.32l-0.7 1.33 1.09 0.97 10.12 9.49c0.49 0.51 0.85 0.81 1.53 0.63s1.22-0.72 1.38-1.4-0.08-1.38-0.62-1.84-0.71-0.7-0.82-0.82c-0.8 0.16-1.42 0.14-1.48-0.06-2.16-0.52-5.9-3.71-8.25-8.31-0.13-0.46 1.21-1.23 3.08-1.86l0.5-0.86-0.77-0.2-0.7 0.2c-2.24 0.65-4.19 0.73-4.36 0.18-0.64-5.19 0.92-10.01 2.4-11.9 0.01-0.33 0.03-1.7 0.03-1.7 0.03-0.65-0.26-1.26-0.79-1.63s-1.22-0.44-1.81-0.19m11.93-3.13c-0.72 0.26-1.2 0.93-1.24 1.68l-0.88 13.99-0.07 1.47 1.43 0.4s0.25 0.09 0.32 0.11c-0.04 0.06-0.17 0.3-0.17 0.3l-0.76 1.3 1.04 1.02s9.71 9.94 9.71 9.94c0.46 0.53 0.82 0.85 1.51 0.7 0.68-0.15 1.25-0.66 1.43-1.34 0.19-0.67-0.02-1.39-0.53-1.86 0 0-0.68-0.74-0.8-0.86-0.8 0.12-1.42 0.08-1.46-0.12-2.14-0.62-5.75-3.98-7.9-8.67-0.11-0.47 1.27-1.18 3.16-1.72 0 0 0.54-0.84 0.54-0.84l-0.77-0.23-0.7 0.16c-2.27 0.55-4.22 0.54-4.37-0.03-0.4-5.2 1.36-9.93 2.92-11.77 0.02-0.33 0.11-1.69 0.11-1.69 0.05-0.64-0.21-1.27-0.72-1.66s-1.2-0.5-1.8-0.28m12.03-2.58c-0.72 0.23-1.23 0.87-1.3 1.63l-1.48 13.92-0.13 1.47s1.42 0.46 1.42 0.46 0.24 0.1 0.31 0.12c-0.04 0.07-0.19 0.3-0.19 0.3l-0.81 1.26 1 1.06 8.96 10.42c0.43 0.56 1.11 0.82 1.8 0.7 0.69-0.11 1.28-0.6 1.49-1.27 0.22-0.67 0.04-1.39-0.45-1.89 0 0-0.65-0.76-0.76-0.88-0.8 0.08-1.42 0.01-1.46-0.19-2.11-0.7-5.58-4.22-7.53-9-0.09-0.47 1.32-1.13 3.23-1.59 0 0 0.57-0.81 0.57-0.81l-0.75-0.27-0.71 0.14c-2.29 0.45-4.24 0.35-4.37-0.22-0.18-5.22 1.78-9.87 3.42-11.63 0.04-0.33 0.46-1.74 0.46-1.74 0.1-0.63-0.44-1.22-0.93-1.64-0.49-0.41-1.17-0.54-1.79-0.35m12.12-2.06c-0.73 0.2-1.27 0.82-1.37 1.57l-2.05 13.84-0.19 1.46 1.39 0.52s0.24 0.11 0.31 0.14c-0.04 0.06-0.2 0.29-0.2 0.29l-0.87 1.23 0.96 1.1 8.54 10.79c0.4 0.57 1.08 0.86 1.77 0.77s1.3-0.55 1.54-1.21 0.09-1.38-0.38-1.9-0.62-0.79-0.72-0.92c-0.8 0.05-1.42-0.04-1.45-0.25-2.08-0.78-5.41-4.45-7.15-9.3-0.08-0.48 1.35-1.07 3.28-1.45 0 0 0.61-0.79 0.61-0.79l-0.74-0.3-0.71 0.11c-2.31 0.35-4.25 0.17-4.33-0.41 0.14-5.22 2.36-9.84 4.11-11.5 0.05-0.33 0.28-1.68 0.28-1.68 0.12-0.63-0.08-1.28-0.55-1.73-0.46-0.44-1.46-0.55-2.08-0.38m12.18-1.56c-0.74 0.17-1.31 0.77-1.44 1.52l-2.6 13.74-0.25 1.45 1.37 0.58 0.3 0.15c-0.04 0.06-0.21 0.28-0.21 0.28l-0.91 1.19 0.9 1.14 8.11 11.13c0.38 0.59 1.05 0.9 1.75 0.84 0.69-0.06 1.32-0.5 1.58-1.15 0.27-0.65 0.15-1.38-0.3-1.92 0 0-0.59-0.81-0.68-0.94-0.81 0.02-1.42-0.1-1.44-0.31-2.05-0.87-5.24-4.66-6.79-9.58-0.05-0.48 1.4-1.02 3.35-1.32 0 0 0.63-0.76 0.63-0.76l-0.73-0.33s-0.71 0.08-0.71 0.08c-2.32 0.26-4.25 0-4.31-0.58 0.35-5.21 2.75-9.74 4.56-11.33 0.07-0.33 0.35-1.67 0.35-1.67 0.15-0.62-0.03-1.28-0.48-1.74s-1.43-0.61-2.05-0.47m12.2-1.08c-0.74 0.15-1.33 0.72-1.49 1.46l-3.13 13.64-0.31 1.44 1.35 0.63s0.23 0.13 0.3 0.16c-0.06 0.06-0.23 0.27-0.23 0.27l-0.96 1.15 0.86 1.18 7.68 11.43c0.36 0.6 1.01 0.94 1.71 0.91 0.7-0.04 1.34-0.46 1.63-1.09 0.3-0.64 0.2-1.38-0.23-1.93 0 0-0.55-0.83-0.64-0.97-0.81-0.01-1.42-0.15-1.43-0.36-2.01-0.95-5.06-4.86-6.41-9.83-0.04-0.49 1.43-0.97 3.39-1.19 0 0 0.66-0.74 0.66-0.74l-0.71-0.36-0.72 0.06c-2.33 0.17-4.24-0.17-4.28-0.76 0.55-5.19 2.92-9.57 4.76-11.12 0.07-0.33 0.64-1.67 0.64-1.67 0.17-0.62 0.02-1.28-0.41-1.76s-1.39-0.67-2.03-0.55m12.22-0.61c-0.75 0.11-1.35 0.66-1.54 1.4l-3.65 13.51-0.36 1.43 1.32 0.68s0.23 0.13 0.29 0.17c-0.05 0.06-0.23 0.26-0.23 0.26l-1.01 1.12 0.82 1.21 7.26 11.69c0.33 0.62 0.97 0.99 1.67 0.98s1.36-0.41 1.67-1.03c0.32-0.63 0.25-1.37-0.16-1.94 0 0-0.52-0.85-0.61-0.99-0.8-0.04-1.41-0.2-1.41-0.41-1.98-1.02-4.88-5.04-6.04-10.06-0.02-0.49 1.47-0.91 3.43-1.06 0 0 0.69-0.72 0.69-0.72l-0.7-0.38-0.72 0.03c-2.33 0.08-4.24-0.33-4.27-0.91 0.65-5.18 3.3-9.46 5.2-10.95 0.08-0.32 0.44-1.64 0.44-1.64 0.18-0.61 0.05-1.28-0.38-1.77-0.42-0.48-1.07-0.72-1.71-0.62m12.22-0.18c-0.75 0.08-1.38 0.61-1.6 1.34l-4.13 13.38-0.41 1.41 1.29 0.73s0.22 0.14 0.28 0.18c-0.05 0.06-0.24 0.25-0.24 0.25l-1.05 1.08 0.77 1.24 7.12 11.95c0.32 0.62 0.65 1 1.35 1.02s1.37-0.35 1.71-0.97c0.33-0.61 0.29-1.35-0.09-1.94 0 0-0.5-0.87-0.58-1.01-0.8-0.07-1.4-0.26-1.39-0.46-1.94-1.1-4.69-5.21-5.68-10.27 0-0.48 1.51-0.85 3.47-0.93l0.72-0.69-0.68-0.41h-0.72c-2.34 0-4.23-0.47-4.24-1.06 0.84-5.15 3.65-9.33 5.59-10.75 0.1-0.32 0.51-1.62 0.51-1.62 0.2-0.61 0.09-1.28-0.31-1.79-0.41-0.5-1.05-0.76-1.69-0.68m12.22 0.24c-0.75 0.06-1.4 0.57-1.64 1.29l-4.63 13.22-0.47 1.4 1.27 0.77s0.22 0.16 0.28 0.2c-0.06 0.05-0.26 0.24-0.26 0.24l-1.08 1.04 0.73 1.27 6.66 12.19c0.3 0.63 0.6 1.02 1.3 1.06 0.7 0.05 1.38-0.3 1.74-0.9 0.37-0.6 0.35-1.34-0.01-1.94 0 0-0.46-0.89-0.54-1.03-0.8-0.1-1.39-0.31-1.37-0.52-1.9-1.16-4.49-5.36-5.29-10.46 0.02-0.48 1.54-0.8 3.51-0.81l0.74-0.66-0.67-0.43-0.72-0.03c-2.34-0.08-4.21-0.61-4.2-1.2 1.04-5.12 4-9.21 5.99-10.55 0.11-0.31 0.57-1.6 0.57-1.6 0.22-0.6 0.14-1.28-0.25-1.79-0.38-0.52-1.02-0.81-1.66-0.76m12.27 0.7c-0.8 0.03-1.5 0.51-1.7 1.22l-5.17 13.05-0.52 1.37 1.29 0.83s0.2 0.16 0.2 0.2c0 0.05-0.2 0.24-0.2 0.24l-1.16 1 0.67 1.29 6.19 12.43c0.3 0.64 0.6 1.04 1.3 1.11s1.3-0.25 1.7-0.84c0.4-0.58 0.4-1.33 0.1-1.94 0 0-0.4-0.9-0.5-1.05-0.8-0.13-1.4-0.36-1.4-0.57-1.8-1.24-4.2-5.53-4.8-10.65 0-0.49 1.5-0.74 3.5-0.67l0.8-0.63-0.7-0.46-0.7-0.06c-2.3-0.18-4.2-0.77-4.2-1.36 1.3-5.07 4.4-9.05 6.4-10.31 0.2-0.31 0.7-1.58 0.7-1.58 0.2-0.6 0.2-1.27-0.2-1.8s-1-0.84-1.6-0.82m12.2 1.17c-0.8 0-1.5 0.45-1.8 1.15l-5.6 12.84-0.6 1.35 1.2 0.87s0.2 0.17 0.3 0.22c-0.1 0.05-0.3 0.22-0.3 0.22l-1.2 0.96 0.7 1.31 5.7 12.67c0.2 0.65 0.5 1.06 1.2 1.15 0.7 0.1 1.4-0.19 1.8-0.76s0.4-1.31 0.1-1.93-0.4-0.93-0.4-1.08c-0.8-0.16-1.4-0.42-1.4-0.62-1.8-1.31-4-5.69-4.4-10.84 0-0.48 1.6-0.67 3.5-0.53l0.8-0.6-0.6-0.48s-0.7-0.08-0.7-0.08c-2.3-0.27-4.2-0.94-4.1-1.52 1.4-5.02 4.7-8.88 6.8-10.06 0.1-0.3 0.7-1.56 0.7-1.56 0.2-0.58 0.2-1.26-0.1-1.8-0.4-0.55-1-0.88-1.6-0.88m12.1 1.66c-0.7-0.03-1.4 0.39-1.8 1.08l-6.1 12.6-0.6 1.33 1.1 0.92s0.2 0.17 0.3 0.22c-0.1 0.05-0.3 0.21-0.3 0.21l-1.2 0.91 0.6 1.34 5.2 12.89c0.2 0.66 0.4 1.08 1.1 1.2 0.7 0.13 1.4-0.13 1.8-0.68 0.5-0.56 0.5-1.3 0.2-1.93 0 0-0.3-0.94-0.4-1.09-0.7-0.2-1.3-0.48-1.3-0.68-1.7-1.39-3.8-5.86-4-11.01 0.1-0.48 1.7-0.61 3.6-0.39l0.8-0.56-0.6-0.51-0.7-0.11c-2.3-0.37-4.1-1.11-4-1.69 1.6-4.96 5-8.68 7.2-9.77 0.1-0.3 0.7-1.53 0.7-1.53 0.3-0.57 0.3-1.25 0-1.81s-0.9-0.91-1.6-0.94m12.1 2.17c-0.7-0.06-1.4 0.33-1.8 1l-6.7 12.33-0.6 1.31 1.1 0.96s0.2 0.19 0.2 0.23c0 0.05-0.3 0.21-0.3 0.21l-1.2 0.86 0.5 1.36 4.6 13.09c0.2 0.67 0.4 1.1 1.1 1.26 0.7 0.15 1.4-0.08 1.9-0.61 0.4-0.53 0.6-1.27 0.3-1.92 0 0-0.3-0.95-0.4-1.1-0.7-0.23-1.3-0.54-1.2-0.74-1.7-1.45-3.6-6.01-3.6-11.17 0.1-0.47 1.7-0.54 3.6-0.24l0.9-0.53-0.6-0.53-0.7-0.14c-2.3-0.46-4.1-1.28-4-1.86 1.8-4.89 5.4-8.46 7.6-9.46 0.2-0.29 0.8-1.5 0.8-1.5 0.3-0.55 0.4-1.23 0.1-1.8s-0.9-0.96-1.6-1.01m12.1 2.7c-0.8-0.1-1.5 0.27-1.9 0.93l-7.2 12.02-0.7 1.27 1 1.01s0.2 0.2 0.3 0.25c-0.1 0.04-0.3 0.19-0.3 0.19s-1.3 0.8-1.3 0.8l0.5 1.39 4 13.28c0.2 0.68 0.4 1.13 1 1.31 0.7 0.19 1.5-0.01 1.9-0.52 0.5-0.52 0.6-1.25 0.4-1.91 0 0-0.3-0.96-0.3-1.12-0.8-0.26-1.3-0.58-1.2-0.78-1.7-1.53-3.3-6.17-3.1-11.33 0.1-0.47 1.7-0.47 3.6-0.08l0.9-0.5-0.6-0.55-0.7-0.18c-2.3-0.55-4-1.46-3.9-2.03 2.1-4.81 5.8-8.21 8-9.12 0.2-0.28 0.9-1.45 0.9-1.45 0.4-0.55 0.4-1.23 0.1-1.81-0.2-0.58-0.8-0.99-1.4-1.07m11.9 3.24c-0.8-0.13-1.5 0.21-2 0.85l-7.7 11.68-0.8 1.24 1.1 1.06s0.2 0.2 0.2 0.26c-0.1 0.03-0.3 0.17-0.3 0.17l-1.3 0.75 0.4 1.4 3.1 13.38c0.2 0.69 0.6 1.24 1.3 1.45s1.4 0.05 1.9-0.44 0.7-1.22 0.5-1.89-0.2-0.97-0.3-1.13c-0.7-0.3-1.2-0.65-1.2-0.84-1.5-1.6-3-6.32-2.5-11.46 0.1-0.46 1.7-0.39 3.6 0.08l0.9-0.46-0.6-0.58-0.7-0.21c-2.2-0.65-3.9-1.64-3.7-2.21 2.2-4.71 6.3-7.91 8.6-8.67 0.2-0.27 1-1.4 1-1.4 0.3-0.52 0.4-1.19 0.2-1.79s-1.1-1.13-1.7-1.24m11.7 3.8c-0.7-0.16-1.5 0.14-1.9 0.76l-8.3 11.31-0.8 1.21 1 1.1s0.1 0.21 0.2 0.26c-0.1 0.04-0.3 0.17-0.3 0.17l-1.4 0.69 0.4 1.42 2.5 13.53c0.1 0.69 0.6 1.26 1.2 1.51 0.7 0.24 1.4 0.11 1.9-0.36 0.6-0.47 0.8-1.19 0.6-1.86 0 0-0.2-0.99-0.2-1.15-0.8-0.33-1.3-0.7-1.2-0.89-1.5-1.67-2.7-6.46-2-11.57 0.2-0.46 1.7-0.37 3.6 0.23l0.9-0.4-0.5-0.62-0.7-0.24c-2.2-0.75-3.8-1.81-3.6-2.37 2.5-4.55 6.6-7.6 8.9-8.26 0.2-0.27 1.1-1.36 1.1-1.36 0.4-0.5 0.5-1.17 0.3-1.78s-1.1-1.19-1.7-1.33m11.9 4.5c-0.7-0.21-1.8-0.07-2.3 0.53l-8.7 10.91-0.9 1.17 0.9 1.15s0.1 0.22 0.2 0.28c-0.1 0.03-0.3 0.14-0.3 0.14l-1.4 0.63 0.2 1.41 2 13.68c0 0.7 0.5 1.29 1.1 1.56 0.7 0.28 1.1 0.03 1.6-0.41 0.6-0.43 1.1-1 1-1.69 0 0-0.1-0.99-0.2-1.15-0.7-0.37-1.2-0.76-1.1-0.95-1.4-1.73-2.4-6.59-1.4-11.67 0.1-0.45 1.7-0.27 3.5 0.41l0.9-0.35-0.4-0.64-0.7-0.28c-2.2-0.91-3.8-2-3.5-2.54 2.7-4.44 7-7.28 9.3-7.83 0.2-0.26 1.1-1.31 1.1-1.31 0.4-0.48 0.6-1.14 0.4-1.76s-0.7-1.11-1.3-1.29m11.3 4.96c-0.7-0.24-1.8-0.18-2.3 0.4l-9.2 10.51-0.9 1.1 0.8 1.21s0.2 0.23 0.2 0.29c-0.1 0.03-0.3 0.12-0.3 0.12s-1.4 0.54-1.4 0.54l0.1 1.45 1.4 13.77c0 0.7 0.4 1.31 1 1.62 0.6 0.3 1.1 0.08 1.6-0.32 0.6-0.41 0.9-1.09 0.8-1.79 0 0-0.1-1-0.1-1.16-0.7-0.41-0.9-0.69-0.8-0.87-1.3-1.8-2.1-6.72-0.9-11.74 0.2-0.44 1.7-0.18 3.5 0.59l0.9-0.31-0.4-0.67-0.6-0.31c-2.2-1-3.7-2.18-3.5-2.71 3-4.31 7.4-6.93 9.7-7.38 0.3-0.24 1.2-1.25 1.2-1.25 0.4-0.46 0.6-1.11 0.5-1.74-0.2-0.63-0.6-1.14-1.3-1.35m11.1 5.53c-0.7-0.28-1.5-0.11-2 0.43l-10 9.91-1 1.05 0.8 1.25s0.1 0.23 0.2 0.29l-0.4 0.12-1.4 0.46 0.1 1.46 0.7 13.84c0 0.7 0 1.13 0.6 1.48 0.6 0.34 1.4 0.34 2-0.04s0.9-1.05 0.8-1.75v-1.16c-0.7-0.45-0.9-0.75-0.8-0.94-1.2-1.85-1.7-6.82-0.3-11.78 0.2-0.43 1.7-0.08 3.5 0.77l0.9-0.27-0.4-0.68-0.6-0.34c-2.1-1.1-3.6-2.37-3.3-2.89 3.1-4.17 7.6-6.56 10-6.89 0.3-0.24 1.2-1.2 1.2-1.2 0.5-0.44 0.7-1.09 0.6-1.72s-0.6-1.16-1.2-1.4m10.8 6.08c-0.7-0.31-1.5-0.18-2 0.34l-10.5 9.4-1 1.01 0.7 1.28s0.1 0.24 0.2 0.3c-0.1 0.02-0.4 0.1-0.4 0.1s-1.4 0.4-1.4 0.4v15.33c0 0.7 0 1.15 0.6 1.53 0.6 0.37 1.3 0.4 1.9 0.05s1-1.01 1-1.7v-1.17c-0.7-0.47-1.1-0.94-1-1.12-1.1-1.93-1.3-6.84 0.5-11.69 0.2-0.42 1.7 0.04 3.4 0.97l1-0.22-0.4-0.7-0.6-0.37c-2-1.2-3.4-2.56-3.1-3.06 3.3-4.02 7.9-6.18 10.3-6.4 0.3-0.22 1.3-1.13 1.3-1.13 0.5-0.42 0.7-1.06 0.6-1.69-0.1-0.64-0.5-1.2-1.1-1.46m10.5 6.62c-0.7-0.34-1.5-0.25-2.1 0.24l-10.8 8.88-1.1 0.96 0.6 1.32s0.2 0.24 0.2 0.31c-0.1 0.01-0.4 0.08-0.4 0.08s-1.4 0.33-1.4 0.33l-0.1 1.46-0.9 13.68c-0.1 0.69 0.2 1.36 0.7 1.76 0.6 0.41 1.4 0.47 2 0.15s1-0.96 1-1.66 0.1-1 0.1-1.16c-0.6-0.51-1-0.99-0.9-1.16-1-1.99-1-6.92 1-11.68 0.3-0.41 1.7 0.11 3.4 1.13l1-0.18-0.4-0.71-0.6-0.4c-1.9-1.29-3.2-2.73-2.9-3.23 3.5-3.85 8.2-5.77 10.6-5.87 0.2-0.21 1.6-0.89 1.6-0.89 0.5-0.38 0.8-1 0.7-1.64 0-0.64-0.7-1.42-1.3-1.72m10.1 7.16c-0.7-0.38-1.5-0.33-2.1 0.14l-11.2 8.33-1.2 0.91 0.7 1.35s0 0.24 0.1 0.3c-0.1 0.01-0.4 0.07-0.4 0.07l-1.4 0.27-0.1 1.45-1.7 13.66c-0.1 0.69 0.1 1.37 0.7 1.8s1.3 0.53 1.9 0.24c0.7-0.29 1.1-0.91 1.1-1.61 0 0 0.1-1 0.2-1.16-0.6-0.53-1-1.04-0.9-1.2-0.9-2.03-0.6-6.97 1.6-11.64 0.3-0.39 1.7 0.15 3.3 1.29l1-0.11s-0.3-0.74-0.3-0.74l-0.6-0.44c-1.9-1.38-3.1-2.87-2.7-3.35 3.7-3.59 8.6-5.25 11-5.19 0.3-0.19 1.4-0.98 1.4-0.98 0.5-0.36 0.9-0.96 0.8-1.6 0-0.65-0.6-1.48-1.2-1.79" fill="#740000" fill-rule="evenodd"/>
          <path id="path4579" d="m819.03 428.61c0.54-3.41 5.15-6.28 6.61-5.27m2.43-1.89c0.7-3.37 5.47-5.98 6.87-4.9m2.49-1.73c0.94-3.32 5.81-5.72 7.16-4.57m2.58-1.59c1.1-3.26 6.09-5.41 7.39-4.2m2.66-1.44c1.25-3.21 6.34-5.09 7.55-3.79m2.78-1.34c1.4-3.14 6.58-4.74 7.73-3.39m2.84-1.2c1.55-3.08 6.81-4.4 7.9-3m2.89-1.07c1.69-3 7.02-4.05 8.04-2.6m2.89-0.91c1.89-2.88 7.24-3.74 8.2-2.24m2.94-0.77c2-2.8 7.39-3.42 8.29-1.88m2.96-0.64c2.13-2.71 7.54-3.09 8.37-1.51m2.99-0.51c2.24-2.62 7.67-2.78 8.43-1.17m3.01-0.39c2.34-2.52 7.77-2.46 8.46-0.83m3.03-0.27c2.44-2.43 7.86-2.16 8.49-0.5m3.04-0.16c2.53-2.35 7.93-1.88 8.5-0.2m3.05-0.06c2.61-2.24 7.99-1.59 8.5 0.11m3.05 0.04c2.69-2.15 8.04-1.3 8.49 0.42m3.06 0.15c2.7-2.04 8.1-0.99 8.4 0.74m3.1 0.27c2.8-1.93 8.1-0.67 8.4 1.07m3 0.4c2.9-1.82 8.2-0.34 8.4 1.42m3 0.52c3-1.69 8.1 0.01 8.3 1.78m3 0.66c3-1.57 8.1 0.36 8.2 2.14m2.9 0.8c3.2-1.43 8.1 0.73 8.1 2.51m2.9 0.94c3.2-1.29 8.1 1.1 8 2.87m2.9 1.11c3.2-1.14 7.9 1.5 7.7 3.26m2.9 1.24c3.3-0.99 7.9 1.91 7.6 3.66m2.7 1.37c3.4-0.84 7.8 2.31 7.4 4.05m2.7 1.48c3.4-0.6 7.7 2.73 7.2 4.45m2.6 1.62c3.4-0.44 7.5 3.11 7 4.81m2.5 1.76c3.4-0.28 7.3 3.47 6.7 5.12" stroke="url(#radialGradient3769)" stroke-linecap="round" stroke-width="1px" fill="none"/>
          <path id="path4581" d="m815.53 426.85c3.95-0.84 7.76-3.87 8.84-6.21m0.28-1.11c3.99-0.65 7.97-3.45 9.16-5.75m0.33-1.09c4.02-0.45 8.16-3.02 9.46-5.26m0.41-1.09c4.04-0.17 8.25-2.61 9.7-4.74m0.46-1.05c4.04 0.02 8.38-2.18 9.94-4.24m0.5-1.02c4.04 0.21 8.5-1.74 10.15-3.73m0.55-1c4.03 0.4 8.58-1.31 10.32-3.22m0.6-0.97c4 0.58 8.64-0.88 10.46-2.72m0.64-0.94c3.98 0.77 8.69-0.47 10.59-2.22m0.68-0.91c3.93 0.94 8.7-0.07 10.67-1.74m0.75-0.89c3.87 1.19 8.67 0.32 10.71-1.26m0.79-0.85c3.81 1.35 8.64 0.68 10.75-0.82m0.82-0.81c3.76 1.49 8.61 1.02 10.77-0.39m0.85-0.79c3.7 1.65 8.57 1.36 10.79 0.03m0.87-0.76c3.64 1.78 8.51 1.67 10.78 0.42m0.88-0.72c3.59 1.84 8.47 1.95 10.77 0.79m0.91-0.69c3.53 1.98 8.39 2.26 10.69 1.18m1-0.66c3.4 2.11 8.3 2.57 10.7 1.59m0.9-0.63c3.4 2.25 8.2 2.9 10.6 2.01m1-0.58c3.3 2.37 8.1 3.22 10.6 2.44m1-0.54c3.1 2.5 7.9 3.57 10.4 2.89m1-0.5c3.1 2.64 7.8 3.93 10.3 3.36m1.1-0.45c2.8 2.84 7.5 4.28 10 3.82m1.1-0.38c2.8 2.96 7.4 4.59 9.9 4.3m1.1-0.33c2.6 3.08 7.1 4.95 9.7 4.78m1.1-0.28c2.5 3.2 6.9 5.31 9.5 5.26m1.1-0.23c2.3 3.31 6.6 5.67 9.1 5.74m1.2-0.18c2.1 3.42 6.3 6.02 8.8 6.21m1.2-0.13c2 3.52 5.9 6.3 8.5 6.67m1.1-0.04c1.8 3.64 5.7 6.58 8.2 7.08" stroke="#000" stroke-linecap="round" stroke-width="1px" fill="none"/>
        </g>
        <path id="path2597" d="m809.46 416.98c-1.11-0.25-1.93-1.01-2.27-2.1s0.23-2.46 1.03-3.28 1.62-0.92 2.73-0.66 1.93 1.03 2.27 2.12c0.33 1.09 0.24 2.04-0.55 2.86-0.8 0.82-2.09 1.32-3.21 1.06v0m9.61-7.59c-1.1-0.31-1.89-1.11-2.18-2.22-0.28-1.1 0.37-2.43 1.21-3.2 0.83-0.78 1.66-0.85 2.76-0.53 1.09 0.31 1.88 1.12 2.15 2.22 0.28 1.11 0.15 2.06-0.68 2.84s-2.16 1.2-3.26 0.89v0m10.24-7.25c-1.07-0.39-1.8-1.24-2-2.37-0.21-1.12 0.17-2.18 1.04-2.92 0.87-0.73 2.05-1 3.12-0.6 1.07 0.39 1.8 1.25 2 2.37 0.19 1.12-0.23 2.23-1.1 2.96-0.88 0.74-1.98 0.94-3.06 0.56v0m10.36-6.53c-1.05-0.44-1.74-1.33-1.89-2.46s0.28-2.17 1.18-2.87c0.91-0.69 2.1-0.87 3.16-0.43 1.05 0.44 1.73 1.33 1.88 2.46 0.14 1.14-0.35 2.2-1.25 2.89-0.91 0.7-2.02 0.84-3.08 0.41v0m10.68-5.99c-1.04-0.48-1.68-1.4-1.78-2.54-0.09-1.14 0.39-2.16 1.32-2.81 0.94-0.65 2.15-0.75 3.18-0.26s1.67 1.41 1.76 2.55-0.19 2.05-1.14 2.68c-0.96 0.63-2.31 0.87-3.34 0.38v0m10.96-5.43c-1.01-0.53-1.61-1.48-1.65-2.62s0.85-2.32 1.83-2.91c0.98-0.58 1.8-0.47 2.81 0.07s1.6 1.49 1.64 2.64c0.04 1.14-0.29 2.04-1.27 2.62-0.98 0.59-2.35 0.74-3.36 0.2v0m11.22-4.87c-0.99-0.58-1.54-1.55-1.53-2.69 0.01-1.15 0.96-2.26 1.97-2.8 1-0.54 1.82-0.39 2.8 0.2 0.98 0.58 1.53 1.56 1.52 2.7-0.02 1.15-0.39 2.03-1.39 2.57-1.01 0.54-2.39 0.6-3.37 0.02v0m11.71-4.4c-0.94-0.64-1.74-1.53-1.68-2.67s1.06-2.19 2.09-2.68 1.84-0.3 2.79 0.32c0.96 0.63 1.46 1.64 1.39 2.78-0.06 1.14-0.47 2-1.5 2.49-1.03 0.5-2.15 0.41-3.09-0.24v0m11.62-3.72c-0.91-0.68-1.35-1.72-1.22-2.85 0.14-1.13 0.82-2.03 1.87-2.48 1.05-0.44 1.85-0.22 2.77 0.45 0.93 0.67 1.7 1.63 1.56 2.76s-0.85 2.06-1.9 2.5c-1.05 0.45-2.17 0.31-3.08-0.38v0m11.77-3.17c-0.88-0.73-1.28-1.78-1.09-2.9 0.19-1.13 0.9-2 1.97-2.4s2.22-0.23 3.1 0.5 1.27 1.78 1.08 2.91c-0.19 1.12-0.93 2-2 2.4s-2.18 0.22-3.06-0.51v0m11.88-2.64c-0.85-0.76-1.2-1.83-0.96-2.95 0.23-1.12 0.98-1.95 2.07-2.31 1.08-0.35 2.22-0.12 3.07 0.64s1.19 1.83 0.96 2.95c-0.24 1.12-1.02 1.95-2.1 2.31-1.09 0.35-2.19 0.12-3.04-0.64v0m11.98-2.13c-0.82-0.79-1.13-1.88-0.85-2.98 0.29-1.11 1.07-1.91 2.17-2.22s2.21-0.03 3.03 0.77 1.12 1.88 0.84 2.98c-0.29 1.11-1.09 1.91-2.19 2.22s-2.19 0.03-3-0.77v0m12.03-1.62c-0.78-0.83-1.04-1.92-0.72-3.02 0.33-1.09 1.14-1.87 2.25-2.13 1.11-0.27 2.21 0.06 2.99 0.89s1.05 1.92 0.72 3.02c-0.33 1.09-1.16 1.86-2.27 2.12-1.11 0.27-2.18-0.05-2.97-0.88v0m12.08-1.15c-0.75-0.86-0.97-1.96-0.61-3.04 0.37-1.08 1.22-1.82 2.34-2.05 1.12-0.22 2.19 0.15 2.94 1.01s0.97 1.96 0.6 3.04-1.22 1.82-2.34 2.04-2.18-0.14-2.93-1v0m12.09-0.69c-0.72-0.89-0.89-2-0.49-3.06 0.41-1.07 1.28-1.78 2.41-1.96s2.17 0.22 2.89 1.11 0.9 1.99 0.49 3.06-1.27 1.78-2.4 1.96-2.18-0.22-2.9-1.11v0m12.1-0.26c-0.69-0.91-0.82-2.03-0.38-3.08 0.45-1.05 1.35-1.72 2.48-1.86s1.84 0.3 2.54 1.2c0.71 0.9 1.13 2.03 0.69 3.08-0.45 1.05-1.34 1.74-2.48 1.88-1.13 0.14-2.16-0.31-2.85-1.22v0m12.1 0.17c-0.65-0.94-0.74-2.06-0.26-3.09 0.49-1.03 1.41-1.68 2.55-1.77 1.14-0.1 1.82 0.37 2.49 1.29 0.67 0.93 1.07 2.07 0.58 3.1s-1.41 1.69-2.55 1.79-2.15-0.38-2.81-1.32v0m12.11 0.61c-0.6-0.96-0.7-2.08-0.1-3.1 0.5-1.01 1.4-1.62 2.6-1.67 1.1-0.05 1.8 0.44 2.4 1.39s0.7 2.07 0.2 3.09-1.2 1.66-2.3 1.72c-1.2 0.05-2.2-0.47-2.8-1.43v0m12.1 1.07c-0.6-0.98-0.6-2.11 0-3.1 0.5-0.99 1.5-1.56 2.6-1.57 1.2 0 1.8 0.51 2.4 1.49 0.6 0.97 0.7 2.09 0.1 3.1-0.5 1-1.3 1.61-2.4 1.62-1.2 0-2.1-0.55-2.7-1.54v0m12 1.56c-0.5-1.01-0.5-2.13 0.1-3.1s1.6-1.5 2.8-1.46c1.1 0.04 1.8 0.58 2.3 1.58 0.6 1 0.8 2.18 0.2 3.15s-1.6 1.51-2.7 1.47c-1.2-0.04-2.1-0.63-2.7-1.64v0m12 2.06c-0.5-1.03-0.4-2.15 0.3-3.09 0.6-0.95 1.6-1.43 2.8-1.35 1.1 0.09 1.7 0.66 2.2 1.68s0.8 2.22 0.1 3.16c-0.6 0.94-1.7 1.44-2.8 1.35s-2.1-0.72-2.6-1.75v0m11.9 2.58c-0.4-1.05-0.3-2.16 0.4-3.08 0.7-0.91 1.7-1.36 2.8-1.22 1.2 0.14 2.1 0.82 2.6 1.87 0.4 1.05 0.3 2.16-0.4 3.08-0.7 0.91-1.7 1.35-2.9 1.21-1.1-0.14-2-0.81-2.5-1.86v0m11.8 3.12c-0.4-1.07-0.2-2.18 0.5-3.06 0.7-0.89 1.8-1.28 2.9-1.1 1.1 0.19 2.1 0.92 2.5 1.99s0.2 2.18-0.5 3.06c-0.8 0.88-1.9 1.26-3 1.07-1.1-0.18-2-0.89-2.4-1.96v0m11.7 3.66c-0.4-1.08-0.2-2.18 0.6-3.03s1.8-1.2 2.9-0.97c1.2 0.24 2.1 1.03 2.4 2.12 0.4 1.09 0.1 2.19-0.6 3.03-0.8 0.85-1.9 1.16-3 0.92-1.1-0.23-2-0.98-2.3-2.07v0m11.4 4.22c-0.3-1.1 0-2.18 0.8-3s2.3-0.99 3.4-0.68 1.5 0.99 1.8 2.09 0.1 2.19-0.7 3-1.7 1.19-2.8 0.88-2.2-1.19-2.5-2.29v0m11.3 4.78c-0.3-1.11 0-2.19 0.9-2.96 0.8-0.78 2.3-0.86 3.4-0.5s1.5 1.06 1.8 2.17c0.2 1.11-0.1 2.19-1 2.96-0.8 0.77-1.7 1.11-2.8 0.75s-2.1-1.31-2.3-2.42v0m11 5.34c-0.2-1.13 0.2-2.18 1-2.92 0.9-0.74 2.4-0.73 3.4-0.32 1.1 0.41 1.5 1.13 1.7 2.25 0.2 1.13-0.2 2.18-1.1 2.92-0.8 0.73-1.7 1.03-2.8 0.62-1.1-0.42-2-1.43-2.2-2.55v0m11 6.05c-0.2-1.13 0.3-2.16 1.2-2.84 0.9-0.67 2-0.79 3.1-0.33 1 0.46 1.8 1.4 1.9 2.54 0.1 1.13-0.3 2.16-1.3 2.83-0.9 0.67-2.1 0.77-3.1 0.3-1.1-0.46-1.7-1.36-1.8-2.5v0m10.4 6.46c-0.1-1.14 0.4-2.15 1.3-2.78 1-0.63 2.1-0.69 3.1-0.18 1.1 0.51 1.7 1.5 1.8 2.64s-0.4 2.14-1.4 2.77c-1 0.62-2.1 0.65-3.1 0.14-1.1-0.51-1.7-1.45-1.7-2.59v0m10 6.98c0-1.14 0.5-2.12 1.5-2.71 1-0.58 2.1-0.59 3.1-0.04 1 0.56 1.6 1.6 1.6 2.74 0.1 1.15-0.5 2.12-1.5 2.7s-1.9 0.73-2.9 0.15c-1-0.59-1.8-1.7-1.8-2.84v0" fill-rule="evenodd" stroke="url(#radialGradient3765)" stroke-linecap="round" stroke-width=".5" fill="#434343"/>
        <path id="path2599" d="m830.93 437.69c-1.11-0.28-1.91-1.06-2.22-2.16s0.13-2.33 0.91-3.17c0.78-0.83 1.65-0.95 2.76-0.67 1.1 0.29 1.9 1.08 2.21 2.18 0.3 1.1 0.02 2.18-0.78 3-0.8 0.81-1.77 1.1-2.88 0.82v0m8.6-6.57c-1.09-0.34-1.86-1.16-2.11-2.27-0.26-1.11-0.01-2.18 0.83-2.95 0.84-0.78 1.94-1.03 3.03-0.69s1.85 1.17 2.1 2.28c0.26 1.11-0.08 2.19-0.92 2.96-0.84 0.78-1.83 1-2.93 0.67v0m8.94-6.12c-1.08-0.38-1.8-1.24-2.01-2.36-0.2-1.13 0.12-2.16 0.99-2.9 0.88-0.73 1.98-0.92 3.06-0.53 1.07 0.39 1.79 1.25 1.99 2.37 0.2 1.13-0.19 2.18-1.06 2.91-0.88 0.74-1.9 0.89-2.97 0.51v0m9.24-5.64c-1.05-0.44-1.74-1.33-1.89-2.46s0.23-2.13 1.14-2.82 2.02-0.83 3.08-0.39c1.05 0.44 1.43 1.51 1.55 2.65 0.11 1.14 0.04 1.98-0.87 2.68-0.91 0.69-1.95 0.77-3.01 0.34v0m9.19-4.96c-1.02-0.51-1.64-1.45-1.71-2.59-0.07-1.13 0.62-2.25 1.56-2.9 0.94-0.64 1.81-0.61 2.83-0.09 1.02 0.51 1.64 1.45 1.7 2.59 0.07 1.14-0.07 1.96-1.01 2.61s-2.35 0.89-3.37 0.38v0m9.79-4.66c-0.99-0.56-1.57-1.52-1.59-2.66-0.01-1.14 0.73-2.23 1.7-2.83s1.85-0.51 2.84 0.06c1 0.56 1.57 1.52 1.58 2.66 0.01 1.15-0.17 1.95-1.14 2.55s-2.39 0.78-3.39 0.22v0m10.03-4.17c-0.97-0.6-1.5-1.59-1.47-2.73 0.04-1.14 0.84-2.18 1.83-2.74 1-0.56 1.88-0.41 2.85 0.2 0.97 0.6 1.49 1.6 1.45 2.74s-0.64 2.09-1.64 2.62c-1.01 0.54-2.05 0.52-3.02-0.09v0m10.23-3.67c-0.94-0.64-1.43-1.65-1.34-2.79s0.67-2.08 1.7-2.57c1.04-0.49 2.16-0.4 3.09 0.25 0.94 0.65 1.43 1.66 1.33 2.8-0.09 1.14-0.73 2.07-1.76 2.55-1.03 0.49-2.08 0.41-3.02-0.24v0m10.41-3.18c-0.91-0.68-1.35-1.72-1.22-2.85 0.14-1.13 0.78-2.04 1.83-2.48s2.17-0.3 3.08 0.39 1.34 1.72 1.2 2.86c-0.14 1.13-0.82 2.02-1.87 2.47-1.05 0.44-2.11 0.3-3.02-0.39v0m10.56-2.7c-0.88-0.72-1.28-1.78-1.09-2.9 0.19-1.13 0.87-1.99 1.94-2.39s2.18-0.21 3.06 0.52 1.27 1.78 1.08 2.91c-0.19 1.12-0.91 1.99-1.98 2.39-1.07 0.39-2.13 0.2-3.01-0.53v0m10.69-2.23c-0.85-0.76-1.2-1.83-0.97-2.95 0.24-1.11 0.96-1.94 2.05-2.29 1.09-0.36 2.18-0.12 3.03 0.64 0.85 0.77 1.2 1.84 0.96 2.95-0.24 1.12-0.99 1.95-2.07 2.31-1.09 0.35-2.15 0.1-3-0.66v0m10.79-1.77c-0.82-0.8-1.12-1.88-0.84-2.99 0.28-1.1 1.05-1.9 2.15-2.21 1.1-0.3 2.18-0.02 3 0.78 0.82 0.79 1.12 1.87 0.84 2.98-0.29 1.11-1.07 1.91-2.17 2.22s-2.16 0.02-2.98-0.78v0m10.88-1.33c-0.79-0.83-1.05-1.92-0.73-3.02 0.33-1.09 1.14-1.86 2.25-2.12 1.11-0.27 2.18 0.06 2.97 0.89 0.78 0.83 1.04 1.92 0.72 3.01-0.33 1.1-1.15 1.87-2.26 2.13-1.11 0.27-2.17-0.06-2.95-0.89v0m10.94-0.91c-0.76-0.86-0.97-1.96-0.61-3.04 0.37-1.08 1.21-1.82 2.33-2.04s2.19 0.14 2.94 1 0.97 1.96 0.6 3.04-1.21 1.82-2.33 2.04c-1.12 0.23-2.18-0.14-2.93-1v0m10.98-0.5c-0.72-0.89-0.89-2-0.49-3.06 0.41-1.07 1.29-1.78 2.42-1.96 1.12-0.18 2.17 0.22 2.89 1.11s0.9 2 0.49 3.06c-0.41 1.07-1.28 1.78-2.41 1.96-1.12 0.18-2.18-0.22-2.9-1.11v0m11.02-0.11c-0.69-0.91-0.82-2.03-0.38-3.08 0.45-1.05 1.35-1.74 2.49-1.88 1.13-0.14 2.16 0.3 2.85 1.22 0.69 0.91 0.82 2.02 0.38 3.08-0.45 1.05-1.35 1.72-2.48 1.86s-2.17-0.29-2.86-1.2v0m11.01 0.27c-0.66-0.93-0.75-2.05-0.27-3.09 0.49-1.03 1.41-1.69 2.55-1.79 1.13-0.09 2.15 0.38 2.8 1.32s0.79 2.06 0.26 3.09c-0.48 1.04-1.41 1.68-2.54 1.77-1.14 0.1-2.15-0.36-2.8-1.3v0m10.97 0.68c-0.6-0.96-0.7-2.08-0.2-3.1 0.6-1.01 1.5-1.64 2.7-1.69 1.1-0.06 2.1 0.46 2.7 1.42 0.6 0.97 0.7 2.09 0.1 3.1-0.5 1.02-1.4 1.62-2.6 1.67-1.1 0.05-2.1-0.44-2.7-1.4v0m10.9 1.1c-0.6-0.99-0.6-2.11 0-3.1 0.5-1 1.5-1.59 2.6-1.6 1.2 0 2.2 0.55 2.7 1.54 0.6 0.99 0.6 2.11 0.1 3.1-0.6 0.99-1.6 1.56-2.7 1.57-1.2 0-2.1-0.53-2.7-1.51v0m10.8 1.53c-0.5-1.01-0.5-2.13 0.2-3.1 0.6-0.97 1.5-1.52 2.7-1.48 1.1 0.04 2.1 0.64 2.6 1.65s0.5 2.13-0.1 3.1c-0.6 0.96-1.6 1.49-2.8 1.45-1.1-0.04-2-0.61-2.6-1.62v0m10.8 1.98c-0.5-1.02-0.4-2.14 0.2-3.09 0.7-0.94 1.7-1.45 2.8-1.36s2.1 0.73 2.6 1.76c0.4 1.03 0.4 2.15-0.3 3.09-0.6 0.94-1.6 1.43-2.8 1.34-1.1-0.09-2-0.71-2.5-1.74v0m10.6 2.46c-0.4-1.05-0.3-2.17 0.4-3.08 0.7-0.92 1.7-1.37 2.8-1.24 1.1 0.14 2 0.82 2.5 1.87 0.4 1.05 0.3 2.17-0.4 3.08s-1.7 1.35-2.8 1.21c-1.2-0.14-2-0.8-2.5-1.84v0m10.5 2.92c-0.4-1.07-0.2-2.17 0.5-3.06 0.8-0.88 1.8-1.28 2.9-1.09s2 0.9 2.4 1.97-0.1 2.08-0.9 2.95c-0.7 0.86-1.4 1.38-2.5 1.19-1.2-0.18-2-0.89-2.4-1.96v0m10 3.3c-0.3-1.09-0.1-2.19 0.7-3.02s2.1-1.09 3.2-0.85 1.7 0.89 2 1.98 0.1 2.19-0.7 3.02-1.5 1.3-2.6 1.06-2.3-1.1-2.6-2.19v0m10.1 3.9c-0.2-1.1 0.1-2.18 0.9-2.98s2.1-1 3.2-0.71 1.6 0.98 1.9 2.09 0 2.19-0.8 2.98c-0.9 0.79-1.6 1.22-2.7 0.93s-2.2-1.2-2.5-2.31v0m10 4.4c-0.3-1.12 0.1-2.18 0.9-2.94 0.9-0.76 2.2-0.9 3.3-0.56s1.6 1.07 1.8 2.19-0.1 2.19-1 2.94c-0.9 0.76-2 0.98-3 0.61-1.1-0.37-1.8-1.12-2-2.24v0m9.6 4.89c-0.1-1.13 0.3-2.18 1.2-2.89 0.8-0.72 1.9-0.95 3-0.54 1 0.42 1.7 1.3 1.9 2.43 0.2 1.12-0.2 2.17-1.1 2.88-0.9 0.72-2 0.88-3.1 0.47-1-0.42-1.7-1.22-1.9-2.35v0m9.5 5.37c-0.2-1.13 0.3-2.16 1.2-2.83 0.9-0.68 2-0.84 3-0.37 1.1 0.46 1.7 1.37 1.9 2.51 0.1 1.13-0.4 2.16-1.3 2.83s-2 0.78-3.1 0.32c-1-0.47-1.6-1.32-1.7-2.46v0m9.1 5.86c-0.1-1.14 0.4-2.15 1.4-2.78 0.9-0.63 2-0.72 3-0.21 1 0.52 1.6 1.46 1.7 2.6s-0.7 1.95-1.7 2.55-1.8 0.9-2.8 0.39c-1-0.52-1.6-1.41-1.6-2.55v0m8.5 6.09c0-1.14 0.5-2.11 1.5-2.67s2.3-0.43 3.3 0.14c1 0.56 1.4 1.35 1.4 2.49-0.1 1.15-0.6 2.11-1.6 2.67-1 0.55-1.8 0.8-2.8 0.24-1-0.57-1.9-1.73-1.8-2.87v0" fill-rule="evenodd" stroke="url(#radialGradient3765)" stroke-linecap="round" stroke-width=".5" fill="#434343"/>
        <path id="path2601" d="m809.32 412.94c-0.53 0.54-0.96 1.59-0.66 2.28l5.47 12.84 0.57 1.36 1.47-0.25s0.26-0.03 0.33-0.04c0 0.08-0.03 0.35-0.03 0.35l-0.12 1.5s1.37 0.47 1.37 0.47 12.97 4.81 12.97 4.81c0.64 0.28 1.37 0.18 1.92-0.26s0.53-0.9 0.41-1.59c-0.11-0.69-0.61-1.25-1.27-1.47 0 0-0.93-0.37-1.08-0.43-0.68 0.44-1.01 0.51-1.14 0.35-2.19 0.4-6.94-1.05-10.96-4.29-0.31-0.37 0.58-1.61 2.06-2.91l0.13-0.98-0.8 0.11-0.56 0.45c-1.82 1.47-3.55 2.34-3.92 1.89-2.6-4.52-3.05-9.62-2.42-11.94-0.13-0.31-0.63-1.58-0.63-1.58-0.22-0.6-0.73-1.06-1.36-1.19-0.63-0.14-1.29 0.06-1.75 0.52m9.81-7.58c-0.56 0.51-0.75 1.31-0.5 2.02l4.57 13.3 0.51 1.38 1.47-0.18s0.26-0.02 0.34-0.03c-0.01 0.08-0.05 0.35-0.05 0.35l-0.2 1.49 1.36 0.54 12.73 5.44c0.63 0.31 1.04 0.46 1.61 0.07 0.58-0.4 0.91-1.09 0.82-1.79-0.08-0.69-0.55-1.27-1.2-1.52 0 0-0.91-0.42-1.06-0.48-0.69 0.41-1.04 0.44-1.16 0.27-2.21 0.3-6.9-1.4-10.76-4.82-0.3-0.39 0.66-1.57 2.2-2.79 0 0 0.18-0.98 0.18-0.98s-0.79 0.08-0.79 0.08l-0.59 0.42c-1.89 1.37-3.67 2.15-4.02 1.68-2.38-4.65-2.58-9.73-1.84-12.02-0.1-0.32-0.55-1.61-0.55-1.61-0.19-0.62-0.68-1.09-1.3-1.26s-1.29 0-1.77 0.44m10.19-7.07c-0.58 0.49-0.81 1.28-0.59 2l3.91 13.48 0.44 1.4 1.48-0.11h0.34c-0.02 0.07-0.07 0.35-0.07 0.35l-0.27 1.47 1.33 0.61 12.48 6.06c0.61 0.34 1.02 0.53 1.62 0.16 0.59-0.37 0.95-1.04 0.9-1.74s-0.49-1.3-1.13-1.58-0.89-0.46-1.03-0.53c-0.72 0.37-1.32 0.54-1.43 0.37-2.22 0.14-6.72-1.81-10.33-5.5-0.26-0.4 0.79-1.54 2.39-2.69l0.22-0.97-0.8 0.04-0.6 0.39c-1.95 1.29-3.78 1.96-4.12 1.47-2.15-4.75-2.09-9.82-1.24-12.08-0.09-0.31-0.47-1.63-0.47-1.63-0.16-0.62-0.63-1.12-1.24-1.32-0.61-0.19-1.29-0.06-1.79 0.35m10.54-6.52c-0.6 0.46-0.87 1.23-0.69 1.97l3.25 13.62 0.38 1.43 1.48-0.04s0.26 0.01 0.34 0.01c-0.02 0.07-0.08 0.34-0.08 0.34l-0.34 1.47 1.29 0.66 11.88 6.87c0.59 0.38 1.32 0.4 1.93 0.06 0.62-0.34 1.01-0.99 0.99-1.69s-0.43-1.32-1.05-1.63-0.87-0.51-1.01-0.59c-0.73 0.35-1.34 0.49-1.44 0.31-2.23 0.03-6.64-2.15-10.07-6.01-0.25-0.42 0.86-1.5 2.51-2.57l0.27-0.95-0.8-0.01-0.62 0.37c-2.01 1.19-3.89 1.74-4.2 1.25-1.92-4.86-1.4-10.06-0.4-12.25-0.07-0.32-0.35-1.66-0.35-1.66-0.12-0.63-0.55-1.17-1.14-1.4-0.6-0.24-1.61 0.05-2.13 0.44m10.86-5.97c-0.63 0.42-0.93 1.19-0.78 1.93l2.59 13.74 0.3 1.44 1.47 0.04s0.27 0.03 0.34 0.04c-0.03 0.07-0.11 0.34-0.11 0.34l-0.38 1.43 1.26 0.72 11.56 7.47c0.57 0.41 1.3 0.46 1.93 0.15s1.05-0.95 1.07-1.65c0.01-0.7-0.37-1.33-0.98-1.67 0 0-0.84-0.55-0.98-0.63-0.74 0.31-1.36 0.42-1.45 0.23-2.22-0.07-6.55-2.48-9.79-6.5-0.22-0.42 0.9-1.47 2.62-2.43l0.34-0.93-0.8-0.06-0.64 0.33c-2.07 1.09-3.96 1.55-4.23 1.03-1.57-4.98-0.95-10.07 0.16-12.21-0.05-0.33-0.27-1.68-0.27-1.68-0.09-0.64-0.49-1.19-1.08-1.45-0.58-0.27-1.62-0.05-2.15 0.32m11.49-5.56c-0.65 0.39-1.34 1.29-1.22 2.04l1.96 13.82 0.21 1.47 1.47 0.12s0.27 0.05 0.34 0.06c-0.03 0.07-0.12 0.33-0.12 0.33l-0.47 1.39 1.17 0.83 11.28 7.99c0.55 0.44 1.28 0.53 1.92 0.25s0.76-0.75 0.82-1.45c0.07-0.69-0.27-1.36-0.86-1.74 0 0-0.53-0.71-0.66-0.81-0.76 0.28-1.38 0.36-1.46 0.17-2.22-0.18-6.44-2.8-9.48-6.97-0.21-0.43 0.97-1.41 2.73-2.28 0 0 0.38-0.92 0.38-0.92s-0.79-0.1-0.79-0.1l-0.66 0.29c-2.14 0.95-4.03 1.35-4.28 0.82-1.33-5.04-0.46-10.08 0.75-12.17-0.04-0.32-0.2-1.68-0.2-1.68-0.06-0.65-0.43-1.21-1.01-1.51-0.57-0.29-1.26-0.27-1.82 0.05m11.4-4.8c-0.67 0.35-1.4 1.21-1.31 1.96l1.31 13.9s0.14 1.46 0.14 1.46l1.47 0.21s0.26 0.05 0.33 0.06c-0.03 0.07-0.14 0.33-0.14 0.33l-0.57 1.39 1.17 0.86 10.92 8.52c0.52 0.47 1.25 0.59 1.9 0.34 0.66-0.25 0.8-0.7 0.9-1.39 0.09-0.69-0.21-1.37-0.78-1.78 0 0-0.77-0.64-0.9-0.74-0.77 0.22-1.13 0.18-1.2-0.01-2.21-0.28-6.31-3.12-9.16-7.42-0.19-0.45 1.04-1.35 2.84-2.14 0 0 0.43-0.9 0.43-0.9l-0.79-0.13-0.67 0.26c-2.18 0.84-4.1 1.14-4.32 0.6-1.1-5.1 0.01-10.08 1.31-12.1-0.02-0.33-0.12-1.7-0.12-1.7-0.03-0.64-0.38-1.22-0.94-1.55-0.55-0.32-1.25-0.33-1.82-0.03m11.61-4.23c-0.68 0.32-1.11 1.02-1.08 1.78l0.36 14.04 0.07 1.47 1.46 0.27s0.25 0.06 0.32 0.08c-0.03 0.07-0.15 0.32-0.15 0.32l-0.63 1.36 1.13 0.92 10.52 9.02c0.51 0.49 0.88 0.75 1.54 0.55 0.67-0.21 1.19-0.77 1.32-1.46s-0.15-1.38-0.7-1.81-0.74-0.67-0.86-0.78c-0.79 0.19-1.41 0.2-1.47 0-2.19-0.43-5.91-3.5-8.57-7.93-0.16-0.45 1.12-1.28 2.95-1.98 0 0 0.47-0.88 0.47-0.88l-0.79-0.17-0.68 0.23c-2.21 0.74-4.15 0.93-4.35 0.38-0.86-5.15 0.47-10.05 1.87-12.01-0.01-0.33-0.05-1.7-0.05-1.7 0.01-0.64-0.31-1.24-0.86-1.59-0.54-0.34-1.23-0.39-1.82-0.11m11.79-3.67c-0.7 0.29-1.16 0.97-1.16 1.73l-0.27 14.02v1.47l1.44 0.34s0.26 0.08 0.33 0.09c-0.04 0.07-0.17 0.32-0.17 0.32l-0.7 1.33 1.09 0.97 10.12 9.49c0.49 0.51 0.85 0.81 1.53 0.63s1.22-0.72 1.38-1.4-0.08-1.38-0.61-1.84-0.72-0.7-0.83-0.82c-0.8 0.16-1.42 0.14-1.48-0.06-2.16-0.52-5.9-3.71-8.25-8.31-0.13-0.46 1.21-1.23 3.08-1.86l0.5-0.86-0.77-0.2-0.7 0.2c-2.24 0.65-4.19 0.73-4.36 0.18-0.64-5.19 0.92-10.01 2.4-11.9 0.01-0.33 0.03-1.7 0.03-1.7 0.03-0.65-0.26-1.26-0.79-1.63s-1.22-0.44-1.81-0.19m11.93-3.13c-0.72 0.26-1.2 0.93-1.24 1.68l-0.88 13.99-0.07 1.47 1.43 0.4s0.25 0.09 0.32 0.11c-0.04 0.06-0.17 0.3-0.17 0.3l-0.76 1.3 1.04 1.02s9.71 9.94 9.71 9.94c0.46 0.53 0.82 0.85 1.51 0.7 0.68-0.15 1.25-0.66 1.43-1.34 0.19-0.67-0.02-1.39-0.53-1.86 0 0-0.68-0.74-0.8-0.86-0.8 0.12-1.42 0.08-1.46-0.12-2.14-0.62-5.75-3.98-7.9-8.67-0.11-0.47 1.27-1.18 3.16-1.72 0 0 0.54-0.84 0.54-0.84l-0.77-0.23-0.7 0.16c-2.27 0.55-4.22 0.54-4.37-0.03-0.4-5.2 1.36-9.93 2.92-11.77 0.02-0.33 0.11-1.69 0.11-1.69 0.05-0.64-0.21-1.27-0.72-1.66s-1.2-0.5-1.8-0.28m12.03-2.58c-0.72 0.23-1.23 0.87-1.3 1.63l-1.48 13.92-0.13 1.47s1.42 0.46 1.42 0.46 0.24 0.1 0.31 0.12c-0.04 0.07-0.19 0.3-0.19 0.3l-0.81 1.26 1 1.06 8.96 10.42c0.43 0.56 1.11 0.82 1.8 0.7 0.69-0.11 1.28-0.6 1.49-1.27 0.22-0.67 0.04-1.39-0.45-1.89 0 0-0.65-0.76-0.76-0.88-0.8 0.08-1.42 0.01-1.46-0.19-2.11-0.7-5.58-4.22-7.53-9-0.09-0.47 1.32-1.13 3.23-1.59 0 0 0.57-0.81 0.57-0.81l-0.75-0.27-0.71 0.14c-2.29 0.45-4.24 0.35-4.37-0.22-0.18-5.22 1.78-9.87 3.42-11.63 0.04-0.33 0.46-1.74 0.46-1.74 0.1-0.63-0.44-1.22-0.93-1.64-0.49-0.41-1.17-0.54-1.79-0.35m12.12-2.06c-0.73 0.2-1.27 0.82-1.37 1.57l-2.05 13.84-0.19 1.46 1.39 0.52s0.24 0.11 0.31 0.14c-0.04 0.06-0.2 0.29-0.2 0.29l-0.87 1.23 0.96 1.1 8.54 10.79c0.4 0.57 1.08 0.86 1.77 0.77s1.3-0.55 1.54-1.21 0.09-1.38-0.38-1.9-0.62-0.79-0.72-0.92c-0.8 0.05-1.42-0.04-1.45-0.25-2.08-0.78-5.41-4.45-7.15-9.3-0.08-0.48 1.35-1.07 3.28-1.45 0 0 0.61-0.79 0.61-0.79l-0.74-0.3-0.71 0.11c-2.31 0.35-4.25 0.17-4.33-0.41 0.14-5.22 2.36-9.84 4.11-11.5 0.05-0.33 0.28-1.68 0.28-1.68 0.12-0.63-0.08-1.28-0.55-1.73-0.46-0.44-1.46-0.55-2.08-0.38m12.18-1.56c-0.74 0.17-1.31 0.77-1.44 1.52l-2.6 13.74-0.25 1.45 1.37 0.58 0.3 0.15c-0.04 0.06-0.21 0.28-0.21 0.28l-0.91 1.19 0.9 1.14 8.11 11.13c0.38 0.59 1.05 0.9 1.75 0.84 0.69-0.06 1.32-0.5 1.58-1.15 0.27-0.65 0.15-1.38-0.3-1.92 0 0-0.59-0.81-0.68-0.94-0.81 0.02-1.42-0.1-1.44-0.31-2.05-0.87-5.24-4.66-6.79-9.58-0.05-0.48 1.4-1.02 3.35-1.32 0 0 0.63-0.76 0.63-0.76l-0.73-0.33s-0.71 0.08-0.71 0.08c-2.32 0.26-4.25 0-4.31-0.58 0.35-5.21 2.75-9.74 4.56-11.33 0.07-0.33 0.35-1.67 0.35-1.67 0.15-0.62-0.03-1.28-0.48-1.74s-1.43-0.61-2.05-0.47m12.2-1.08c-0.74 0.15-1.33 0.72-1.49 1.46l-3.13 13.64-0.31 1.44 1.35 0.63s0.23 0.13 0.3 0.16c-0.06 0.06-0.23 0.27-0.23 0.27l-0.96 1.15 0.86 1.18 7.68 11.43c0.36 0.6 1.01 0.94 1.71 0.91 0.7-0.04 1.34-0.46 1.63-1.09 0.3-0.64 0.2-1.38-0.23-1.93 0 0-0.55-0.83-0.64-0.97-0.81-0.01-1.42-0.15-1.43-0.36-2.01-0.95-5.06-4.86-6.41-9.83-0.04-0.49 1.43-0.97 3.39-1.19 0 0 0.66-0.74 0.66-0.74l-0.71-0.36-0.72 0.06c-2.33 0.17-4.24-0.17-4.28-0.76 0.55-5.19 2.92-9.57 4.76-11.12 0.07-0.33 0.64-1.67 0.64-1.67 0.17-0.62 0.02-1.28-0.41-1.76s-1.39-0.67-2.03-0.55m12.22-0.61c-0.75 0.11-1.35 0.66-1.54 1.4l-3.65 13.51-0.36 1.43 1.32 0.68s0.23 0.13 0.29 0.17c-0.05 0.06-0.23 0.26-0.23 0.26l-1.01 1.12 0.82 1.21 7.26 11.69c0.33 0.62 0.97 0.99 1.67 0.98s1.36-0.41 1.67-1.03c0.32-0.63 0.25-1.37-0.16-1.94 0 0-0.52-0.85-0.61-0.99-0.8-0.04-1.41-0.2-1.41-0.41-1.98-1.02-4.88-5.04-6.04-10.06-0.02-0.49 1.47-0.91 3.43-1.06 0 0 0.69-0.72 0.69-0.72l-0.7-0.38-0.72 0.03c-2.33 0.08-4.24-0.33-4.27-0.91 0.65-5.18 3.3-9.46 5.2-10.95 0.08-0.32 0.44-1.64 0.44-1.64 0.18-0.61 0.05-1.28-0.38-1.77-0.42-0.48-1.07-0.72-1.71-0.62m12.22-0.18c-0.75 0.08-1.38 0.61-1.6 1.34l-4.13 13.38-0.41 1.41 1.29 0.73s0.22 0.14 0.28 0.18c-0.05 0.06-0.24 0.25-0.24 0.25l-1.05 1.08 0.77 1.24 7.12 11.95c0.32 0.62 0.65 1 1.35 1.02s1.37-0.35 1.71-0.97c0.33-0.61 0.29-1.35-0.09-1.94 0 0-0.5-0.87-0.58-1.01-0.8-0.07-1.4-0.26-1.39-0.46-1.94-1.1-4.69-5.21-5.68-10.27 0-0.48 1.51-0.85 3.47-0.93l0.72-0.69-0.68-0.41h-0.72c-2.34 0-4.23-0.47-4.24-1.06 0.84-5.15 3.65-9.33 5.59-10.75 0.1-0.32 0.51-1.62 0.51-1.62 0.2-0.61 0.09-1.28-0.31-1.79-0.41-0.5-1.05-0.76-1.69-0.68m12.22 0.24c-0.75 0.06-1.4 0.57-1.64 1.29l-4.63 13.22-0.47 1.4 1.27 0.77s0.22 0.16 0.28 0.2c-0.06 0.05-0.26 0.24-0.26 0.24l-1.08 1.04 0.73 1.27 6.66 12.19c0.3 0.63 0.6 1.02 1.3 1.06 0.7 0.05 1.38-0.3 1.74-0.9 0.37-0.6 0.35-1.34-0.01-1.94 0 0-0.46-0.89-0.54-1.03-0.8-0.1-1.39-0.31-1.37-0.52-1.9-1.16-4.49-5.36-5.29-10.46 0.02-0.48 1.54-0.8 3.51-0.81l0.74-0.66-0.67-0.43-0.72-0.03c-2.34-0.08-4.21-0.61-4.2-1.2 1.04-5.12 4-9.21 5.99-10.55 0.11-0.31 0.57-1.6 0.57-1.6 0.22-0.6 0.14-1.28-0.25-1.79-0.38-0.52-1.02-0.81-1.66-0.76m12.27 0.7c-0.8 0.03-1.5 0.51-1.7 1.22l-5.17 13.05-0.52 1.37 1.29 0.83s0.2 0.16 0.2 0.2c0 0.05-0.2 0.24-0.2 0.24l-1.16 1 0.67 1.29 6.19 12.43c0.3 0.64 0.6 1.04 1.3 1.11s1.3-0.25 1.7-0.84c0.4-0.58 0.4-1.33 0.1-1.94 0 0-0.4-0.9-0.5-1.05-0.8-0.13-1.4-0.36-1.4-0.57-1.8-1.24-4.2-5.53-4.8-10.65 0-0.49 1.5-0.74 3.5-0.67l0.8-0.63-0.7-0.46-0.7-0.06c-2.3-0.18-4.2-0.77-4.2-1.36 1.3-5.07 4.4-9.05 6.4-10.31 0.2-0.31 0.7-1.58 0.7-1.58 0.2-0.6 0.2-1.27-0.2-1.8s-1-0.84-1.6-0.82m12.2 1.17c-0.8 0-1.5 0.45-1.8 1.15l-5.6 12.84-0.6 1.35 1.2 0.87s0.2 0.17 0.3 0.22c-0.1 0.05-0.3 0.22-0.3 0.22l-1.2 0.96 0.7 1.31 5.7 12.67c0.2 0.65 0.5 1.06 1.2 1.15 0.7 0.1 1.4-0.19 1.8-0.76s0.4-1.31 0.1-1.93-0.4-0.93-0.4-1.08c-0.8-0.16-1.4-0.42-1.4-0.62-1.8-1.31-4-5.69-4.4-10.84 0-0.48 1.6-0.67 3.5-0.53l0.8-0.6-0.6-0.48s-0.7-0.08-0.7-0.08c-2.3-0.27-4.2-0.94-4.1-1.52 1.4-5.02 4.7-8.88 6.8-10.06 0.1-0.3 0.7-1.56 0.7-1.56 0.2-0.58 0.2-1.26-0.1-1.8-0.4-0.55-1-0.88-1.6-0.88m12.1 1.66c-0.7-0.03-1.4 0.39-1.8 1.08l-6.1 12.6-0.6 1.33 1.1 0.92s0.2 0.17 0.3 0.22c-0.1 0.05-0.3 0.21-0.3 0.21l-1.2 0.91 0.6 1.34 5.2 12.89c0.2 0.66 0.4 1.08 1.1 1.2 0.7 0.13 1.4-0.13 1.8-0.68 0.5-0.56 0.5-1.3 0.2-1.93 0 0-0.3-0.94-0.4-1.09-0.7-0.2-1.3-0.48-1.3-0.68-1.7-1.39-3.8-5.86-4-11.01 0.1-0.48 1.7-0.61 3.6-0.39l0.8-0.56-0.6-0.51-0.7-0.11c-2.3-0.37-4.1-1.11-4-1.69 1.6-4.96 5-8.68 7.2-9.77 0.1-0.3 0.7-1.53 0.7-1.53 0.3-0.57 0.3-1.25 0-1.81s-0.9-0.91-1.6-0.94m12.1 2.17c-0.7-0.06-1.4 0.33-1.8 1l-6.7 12.33-0.6 1.31 1.1 0.96s0.2 0.19 0.2 0.23c0 0.05-0.3 0.21-0.3 0.21l-1.2 0.86 0.5 1.36 4.6 13.09c0.2 0.67 0.4 1.1 1.1 1.26 0.7 0.15 1.4-0.08 1.9-0.61 0.4-0.53 0.6-1.27 0.3-1.92 0 0-0.3-0.95-0.4-1.1-0.7-0.23-1.3-0.54-1.2-0.74-1.7-1.45-3.6-6.01-3.6-11.17 0.1-0.47 1.7-0.54 3.6-0.24l0.9-0.53-0.6-0.53-0.7-0.14c-2.3-0.46-4.1-1.28-4-1.86 1.8-4.89 5.4-8.46 7.6-9.46 0.2-0.29 0.8-1.5 0.8-1.5 0.3-0.55 0.4-1.23 0.1-1.8s-0.9-0.96-1.6-1.01m12.1 2.7c-0.8-0.1-1.5 0.27-1.9 0.93l-7.2 12.02-0.7 1.27 1 1.01s0.2 0.2 0.3 0.25c-0.1 0.04-0.3 0.19-0.3 0.19s-1.3 0.8-1.3 0.8l0.5 1.39 4 13.28c0.2 0.68 0.4 1.13 1 1.31 0.7 0.19 1.5-0.01 1.9-0.52 0.5-0.52 0.6-1.25 0.4-1.91 0 0-0.3-0.96-0.3-1.12-0.8-0.26-1.3-0.58-1.2-0.78-1.7-1.53-3.3-6.17-3.1-11.33 0.1-0.47 1.7-0.47 3.6-0.08l0.9-0.5-0.6-0.55-0.7-0.18c-2.3-0.55-4-1.46-3.9-2.03 2.1-4.81 5.8-8.21 8-9.12 0.2-0.28 0.9-1.45 0.9-1.45 0.4-0.55 0.4-1.23 0.1-1.81-0.2-0.58-0.8-0.99-1.4-1.07m11.9 3.24c-0.8-0.13-1.5 0.21-2 0.85l-7.7 11.68-0.8 1.24 1.1 1.06s0.2 0.2 0.2 0.26c-0.1 0.03-0.3 0.17-0.3 0.17l-1.3 0.75 0.4 1.4 3.1 13.38c0.2 0.69 0.6 1.24 1.3 1.45s1.4 0.05 1.9-0.44 0.7-1.22 0.5-1.89-0.2-0.97-0.3-1.13c-0.7-0.3-1.2-0.65-1.2-0.84-1.5-1.6-3-6.32-2.5-11.46 0.1-0.46 1.7-0.39 3.6 0.08l0.9-0.46-0.6-0.58-0.7-0.21c-2.2-0.65-3.9-1.64-3.7-2.21 2.2-4.71 6.3-7.91 8.6-8.67 0.2-0.27 1-1.4 1-1.4 0.3-0.52 0.4-1.19 0.2-1.79s-1.1-1.13-1.7-1.24m11.7 3.8c-0.7-0.16-1.5 0.14-1.9 0.76l-8.3 11.31-0.8 1.21 1 1.1s0.1 0.21 0.2 0.26c-0.1 0.04-0.3 0.17-0.3 0.17l-1.4 0.69 0.4 1.42 2.5 13.53c0.1 0.69 0.6 1.26 1.2 1.51 0.7 0.24 1.4 0.11 1.9-0.36 0.6-0.47 0.8-1.19 0.6-1.86 0 0-0.2-0.99-0.2-1.15-0.8-0.33-1.3-0.7-1.2-0.89-1.5-1.67-2.7-6.46-2-11.57 0.2-0.46 1.7-0.37 3.6 0.23l0.9-0.4-0.5-0.62-0.7-0.24c-2.2-0.75-3.8-1.81-3.6-2.37 2.5-4.55 6.6-7.6 8.9-8.26 0.2-0.27 1.1-1.36 1.1-1.36 0.4-0.5 0.5-1.17 0.3-1.78s-1.1-1.19-1.7-1.33m11.9 4.5c-0.7-0.21-1.8-0.07-2.3 0.53l-8.7 10.91-0.9 1.17 0.9 1.15s0.1 0.22 0.2 0.28c-0.1 0.03-0.3 0.14-0.3 0.14l-1.4 0.63 0.2 1.41 2 13.68c0 0.7 0.5 1.29 1.1 1.56 0.7 0.28 1.1 0.03 1.6-0.41 0.6-0.43 1.1-1 1-1.69 0 0-0.1-0.99-0.2-1.15-0.7-0.37-1.2-0.76-1.1-0.95-1.4-1.73-2.4-6.59-1.4-11.67 0.1-0.45 1.7-0.27 3.5 0.41l0.9-0.35-0.4-0.64-0.7-0.28c-2.2-0.91-3.8-2-3.5-2.54 2.7-4.44 7-7.28 9.3-7.83 0.2-0.26 1.1-1.31 1.1-1.31 0.4-0.48 0.6-1.14 0.4-1.76s-0.7-1.11-1.3-1.29m11.3 4.96c-0.7-0.24-1.8-0.18-2.3 0.4l-9.2 10.51-0.9 1.1 0.8 1.21s0.2 0.23 0.2 0.29c-0.1 0.03-0.3 0.12-0.3 0.12s-1.4 0.54-1.4 0.54l0.1 1.45 1.4 13.77c0 0.7 0.4 1.31 1 1.62 0.6 0.3 1.1 0.08 1.6-0.32 0.6-0.41 0.9-1.09 0.8-1.79 0 0-0.1-1-0.1-1.16-0.7-0.41-0.9-0.69-0.8-0.87-1.3-1.8-2.1-6.72-0.9-11.74 0.2-0.44 1.7-0.18 3.5 0.59l0.9-0.31-0.4-0.67-0.6-0.31c-2.2-1-3.7-2.18-3.5-2.71 3-4.31 7.4-6.93 9.7-7.38 0.3-0.24 1.2-1.25 1.2-1.25 0.4-0.46 0.6-1.11 0.5-1.74-0.2-0.63-0.6-1.14-1.3-1.35m11.1 5.53c-0.7-0.28-1.5-0.11-2 0.43l-10 9.91-1 1.05 0.8 1.25s0.1 0.23 0.2 0.29l-0.4 0.12-1.4 0.46 0.1 1.46 0.7 13.84c0 0.7 0 1.13 0.6 1.48 0.6 0.34 1.4 0.34 2-0.04s0.9-1.05 0.8-1.75v-1.16c-0.7-0.45-0.9-0.75-0.8-0.94-1.2-1.85-1.7-6.82-0.3-11.78 0.2-0.43 1.7-0.08 3.5 0.77l0.9-0.27-0.4-0.68-0.6-0.34c-2.1-1.1-3.6-2.37-3.3-2.89 3.1-4.17 7.6-6.56 10-6.89 0.3-0.24 1.2-1.2 1.2-1.2 0.5-0.44 0.7-1.09 0.6-1.72s-0.6-1.16-1.2-1.4m10.8 6.08c-0.7-0.31-1.5-0.18-2 0.34l-10.5 9.4-1 1.01 0.7 1.28s0.1 0.24 0.2 0.3c-0.1 0.02-0.4 0.1-0.4 0.1s-1.4 0.4-1.4 0.4v15.33c0 0.7 0 1.15 0.6 1.53 0.6 0.37 1.3 0.4 1.9 0.05s1-1.01 1-1.7v-1.17c-0.7-0.47-1.1-0.94-1-1.12-1.1-1.93-1.3-6.84 0.5-11.69 0.2-0.42 1.7 0.04 3.4 0.97l1-0.22-0.4-0.7-0.6-0.37c-2-1.2-3.4-2.56-3.1-3.06 3.3-4.02 7.9-6.18 10.3-6.4 0.3-0.22 1.3-1.13 1.3-1.13 0.5-0.42 0.7-1.06 0.6-1.69-0.1-0.64-0.5-1.2-1.1-1.46m10.5 6.62c-0.7-0.34-1.5-0.25-2.1 0.24l-10.8 8.88-1.1 0.96 0.6 1.32s0.2 0.24 0.2 0.31c-0.1 0.01-0.4 0.08-0.4 0.08s-1.4 0.33-1.4 0.33l-0.1 1.46-0.9 13.68c-0.1 0.69 0.2 1.36 0.7 1.76 0.6 0.41 1.4 0.47 2 0.15s1-0.96 1-1.66 0.1-1 0.1-1.16c-0.6-0.51-1-0.99-0.9-1.16-1-1.99-1-6.92 1-11.68 0.3-0.41 1.7 0.11 3.4 1.13l1-0.18-0.4-0.71-0.6-0.4c-1.9-1.29-3.2-2.73-2.9-3.23 3.5-3.85 8.2-5.77 10.6-5.87 0.2-0.21 1.6-0.89 1.6-0.89 0.5-0.38 0.8-1 0.7-1.64 0-0.64-0.7-1.42-1.3-1.72m10.1 7.16c-0.7-0.38-1.5-0.33-2.1 0.14l-11.2 8.33-1.2 0.91 0.7 1.35s0 0.24 0.1 0.3c-0.1 0.01-0.4 0.07-0.4 0.07l-1.4 0.27-0.1 1.45-1.7 13.66c-0.1 0.69 0.1 1.37 0.7 1.8s1.3 0.53 1.9 0.24c0.7-0.29 1.1-0.91 1.1-1.61 0 0 0.1-1 0.2-1.16-0.6-0.53-1-1.04-0.9-1.2-0.9-2.03-0.6-6.97 1.6-11.64 0.3-0.39 1.7 0.15 3.3 1.29l1-0.11s-0.3-0.74-0.3-0.74l-0.6-0.44c-1.9-1.38-3.1-2.87-2.7-3.35 3.7-3.59 8.6-5.25 11-5.19 0.3-0.19 1.4-0.98 1.4-0.98 0.5-0.36 0.9-0.96 0.8-1.6 0-0.65-0.6-1.48-1.2-1.79" fill="#740000" fill-rule="evenodd"/>
        <path id="path2603" d="m819.03 428.61c0.54-3.41 5.15-6.28 6.61-5.27m2.43-1.89c0.7-3.37 5.47-5.98 6.87-4.9m2.49-1.73c0.94-3.32 5.81-5.72 7.16-4.57m2.58-1.59c1.1-3.26 6.09-5.41 7.39-4.2m2.66-1.44c1.25-3.21 6.34-5.09 7.55-3.79m2.78-1.34c1.4-3.14 6.58-4.74 7.73-3.39m2.84-1.2c1.55-3.08 6.81-4.4 7.9-3m2.89-1.07c1.69-3 7.02-4.05 8.04-2.6m2.89-0.91c1.89-2.88 7.24-3.74 8.2-2.24m2.94-0.77c2-2.8 7.39-3.42 8.29-1.88m2.96-0.64c2.13-2.71 7.54-3.09 8.37-1.51m2.99-0.51c2.24-2.62 7.67-2.78 8.43-1.17m3.01-0.39c2.34-2.52 7.77-2.46 8.46-0.83m3.03-0.27c2.44-2.43 7.86-2.16 8.49-0.5m3.04-0.16c2.53-2.35 7.93-1.88 8.5-0.2m3.05-0.06c2.61-2.24 7.99-1.59 8.5 0.11m3.05 0.04c2.69-2.15 8.04-1.3 8.49 0.42m3.06 0.15c2.7-2.04 8.1-0.99 8.4 0.74m3.1 0.27c2.8-1.93 8.1-0.67 8.4 1.07m3 0.4c2.9-1.82 8.2-0.34 8.4 1.42m3 0.52c3-1.69 8.1 0.01 8.3 1.78m3 0.66c3-1.57 8.1 0.36 8.2 2.14m2.9 0.8c3.2-1.43 8.1 0.73 8.1 2.51m2.9 0.94c3.2-1.29 8.1 1.1 8 2.87m2.9 1.11c3.2-1.14 7.9 1.5 7.7 3.26m2.9 1.24c3.3-0.99 7.9 1.91 7.6 3.66m2.7 1.37c3.4-0.84 7.8 2.31 7.4 4.05m2.7 1.48c3.4-0.6 7.7 2.73 7.2 4.45m2.6 1.62c3.4-0.44 7.5 3.11 7 4.81m2.5 1.76c3.4-0.28 7.3 3.47 6.7 5.12" stroke="url(#radialGradient3769)" stroke-linecap="round" stroke-width="1px" fill="none"/>
        <path id="path2605" d="m815.53 426.85c3.95-0.84 7.76-3.87 8.84-6.21m0.28-1.11c3.99-0.65 7.97-3.45 9.16-5.75m0.33-1.09c4.02-0.45 8.16-3.02 9.46-5.26m0.41-1.09c4.04-0.17 8.25-2.61 9.7-4.74m0.46-1.05c4.04 0.02 8.38-2.18 9.94-4.24m0.5-1.02c4.04 0.21 8.5-1.74 10.15-3.73m0.55-1c4.03 0.4 8.58-1.31 10.32-3.22m0.6-0.97c4 0.58 8.64-0.88 10.46-2.72m0.64-0.94c3.98 0.77 8.69-0.47 10.59-2.22m0.68-0.91c3.93 0.94 8.7-0.07 10.67-1.74m0.75-0.89c3.87 1.19 8.67 0.32 10.71-1.26m0.79-0.85c3.81 1.35 8.64 0.68 10.75-0.82m0.82-0.81c3.76 1.49 8.61 1.02 10.77-0.39m0.85-0.79c3.7 1.65 8.57 1.36 10.79 0.03m0.87-0.76c3.64 1.78 8.51 1.67 10.78 0.42m0.88-0.72c3.59 1.84 8.47 1.95 10.77 0.79m0.91-0.69c3.53 1.98 8.39 2.26 10.69 1.18m1-0.66c3.4 2.11 8.3 2.57 10.7 1.59m0.9-0.63c3.4 2.25 8.2 2.9 10.6 2.01m1-0.58c3.3 2.37 8.1 3.22 10.6 2.44m1-0.54c3.1 2.5 7.9 3.57 10.4 2.89m1-0.5c3.1 2.64 7.8 3.93 10.3 3.36m1.1-0.45c2.8 2.84 7.5 4.28 10 3.82m1.1-0.38c2.8 2.96 7.4 4.59 9.9 4.3m1.1-0.33c2.6 3.08 7.1 4.95 9.7 4.78m1.1-0.28c2.5 3.2 6.9 5.31 9.5 5.26m1.1-0.23c2.3 3.31 6.6 5.67 9.1 5.74m1.2-0.18c2.1 3.42 6.3 6.02 8.8 6.21m1.2-0.13c2 3.52 5.9 6.3 8.5 6.67m1.1-0.04c1.8 3.64 5.7 6.58 8.2 7.08" stroke="#000" stroke-linecap="round" stroke-width="1px" fill="none"/>
        <path id="path2613" d="m812.05 146.32l-1.4 6.49-5.61 2.98" stroke="#740000" stroke-linecap="round" fill="none"/>
        <path id="path3385" d="m1138.4 429.24l1.7-6.44 5.7-2.78" stroke="#740000" stroke-linecap="round" fill="none"/>
      </g>
    </g>
  </g>
  <metadata>
    <rdf:RDF>
      <cc:Work>
        <dc:format>image/svg+xml</dc:format>
        <dc:type rdf:resource="http://purl.org/dc/dcmitype/StillImage"/>
        <cc:license rdf:resource="http://creativecommons.org/licenses/publicdomain/"/>
        <dc:publisher>
          <cc:Agent rdf:about="http://openclipart.org/">
            <dc:title>Openclipart</dc:title>
          </cc:Agent>
        </dc:publisher>
        <dc:title>baseball</dc:title>
        <dc:date>2009-02-28T23:08:00</dc:date>
        <dc:description>Check out my Tutorial:&#xD;\nhttp://inkscapesportschool.wordpress.com/baseball/</dc:description>
        <dc:source>http://openclipart.org/detail/21795/baseball-by-chrisdesign-21795</dc:source>
        <dc:creator>
          <cc:Agent>
            <dc:title>Chrisdesign</dc:title>
          </cc:Agent>
        </dc:creator>
        <dc:subject>
          <rdf:Bag>
            <rdf:li>baseball</rdf:li>
            <rdf:li>clip art</rdf:li>
            <rdf:li>clipart</rdf:li>
            <rdf:li>equipment</rdf:li>
            <rdf:li>image</rdf:li>
            <rdf:li>jpg</rdf:li>
            <rdf:li>media</rdf:li>
            <rdf:li>public domain</rdf:li>
            <rdf:li>sport</rdf:li>
            <rdf:li>svg</rdf:li>
          </rdf:Bag>
        </dc:subject>
      </cc:Work>
      <cc:License rdf:about="http://creativecommons.org/licenses/publicdomain/">
        <cc:permits rdf:resource="http://creativecommons.org/ns#Reproduction"/>
        <cc:permits rdf:resource="http://creativecommons.org/ns#Distribution"/>
        <cc:permits rdf:resource="http://creativecommons.org/ns#DerivativeWorks"/>
      </cc:License>
    </rdf:RDF>
  </metadata>
</svg>
