<?xml version="1.0" encoding="UTF-8" standalone="no"?>
<!-- Created with Inkscape (http://www.inkscape.org/) -->

<svg
   xmlns:dc="http://purl.org/dc/elements/1.1/"
   xmlns:cc="http://creativecommons.org/ns#"
   xmlns:rdf="http://www.w3.org/1999/02/22-rdf-syntax-ns#"
   xmlns:svg="http://www.w3.org/2000/svg"
   xmlns="http://www.w3.org/2000/svg"
   xmlns:xlink="http://www.w3.org/1999/xlink"
   xmlns:sodipodi="http://sodipodi.sourceforge.net/DTD/sodipodi-0.dtd"
   xmlns:inkscape="http://www.inkscape.org/namespaces/inkscape"
   width="750"
   height="600"
   id="svg3000"
   version="1.1"
   inkscape:version="0.48.5 r10040"
   sodipodi:docname="twilight.svg">
  <title
     id="title2998">Twilight</title>
  <defs
     id="defs3002">
    <linearGradient
       id="linearGradient3854"
       inkscape:collect="always">
      <stop
         id="stop3856"
         offset="0"
         style="stop-color:#ff2a2a;stop-opacity:1" />
      <stop
         id="stop3858"
         offset="1"
         style="stop-color:#ffa200;stop-opacity:1" />
    </linearGradient>
    <linearGradient
       inkscape:collect="always"
       id="linearGradient3844">
      <stop
         style="stop-color:#ff00ff;stop-opacity:1;"
         offset="0"
         id="stop3846" />
      <stop
         style="stop-color:#ff00ff;stop-opacity:0;"
         offset="1"
         id="stop3848" />
    </linearGradient>
    <linearGradient
       inkscape:collect="always"
       id="linearGradient3023">
      <stop
         style="stop-color:#c83737;stop-opacity:1"
         offset="0"
         id="stop3025" />
      <stop
         style="stop-color:#ffa200;stop-opacity:1"
         offset="1"
         id="stop3027" />
    </linearGradient>
    <linearGradient
       inkscape:collect="always"
       xlink:href="#linearGradient3023"
       id="linearGradient3029"
       x1="-366.66666"
       y1="-100"
       x2="-383.33334"
       y2="366.66666"
       gradientUnits="userSpaceOnUse"
       gradientTransform="matrix(1,0,0,1.1157425,0,-69.444856)" />
    <linearGradient
       inkscape:collect="always"
       xlink:href="#linearGradient3844"
       id="linearGradient3850"
       x1="-213.33333"
       y1="-171.66667"
       x2="-230"
       y2="-53.333332"
       gradientUnits="userSpaceOnUse" />
    <linearGradient
       inkscape:collect="always"
       xlink:href="#linearGradient3854"
       id="linearGradient3852"
       gradientUnits="userSpaceOnUse"
       gradientTransform="matrix(0.5838347,0,0,0.82277281,333.61113,102.81834)"
       x1="-383.33331"
       y1="-100"
       x2="-383.33334"
       y2="366.66666" />
  </defs>
  <sodipodi:namedview
     id="base"
     pagecolor="#ffffff"
     bordercolor="#666666"
     borderopacity="1.0"
     inkscape:pageopacity="0.0"
     inkscape:pageshadow="2"
     inkscape:zoom="0.21213203"
     inkscape:cx="-698.86099"
     inkscape:cy="500"
     inkscape:current-layer="layer1"
     inkscape:document-units="px"
     showgrid="false"
     inkscape:window-width="1366"
     inkscape:window-height="706"
     inkscape:window-x="-8"
     inkscape:window-y="-8"
     inkscape:window-maximized="1" />
  <metadata
     id="metadata3005">
    <rdf:RDF>
      <cc:Work
         rdf:about="">
        <dc:format>image/svg+xml</dc:format>
        <dc:type
           rdf:resource="http://purl.org/dc/dcmitype/StillImage" />
        <dc:title>Twilight</dc:title>
        <dc:date>2015-02-15</dc:date>
        <dc:creator>
          <cc:Agent>
            <dc:title>Srinivasbala</dc:title>
          </cc:Agent>
        </dc:creator>
        <cc:license
           rdf:resource="http://creativecommons.org/licenses/publicdomain/" />
      </cc:Work>
      <cc:License
         rdf:about="http://creativecommons.org/licenses/publicdomain/">
        <cc:permits
           rdf:resource="http://creativecommons.org/ns#Reproduction" />
        <cc:permits
           rdf:resource="http://creativecommons.org/ns#Distribution" />
        <cc:permits
           rdf:resource="http://creativecommons.org/ns#DerivativeWorks" />
      </cc:License>
    </rdf:RDF>
  </metadata>
  <g
     id="layer1"
     inkscape:label="Layer 1"
     inkscape:groupmode="layer">
    <rect
       style="opacity:0.94690265;fill:url(#linearGradient3852);fill-opacity:1;stroke:#312626;stroke-width:0;stroke-miterlimit:4;stroke-opacity:1;stroke-dasharray:none;stroke-dashoffset:0"
       id="rect3021"
       width="747.30219"
       height="592.38751"
       x="21.262686"
       y="4.0900164" />
    <path
       style="fill:#000000"
       d="m 31.149745,555.96654 0,-44.34984 4.17135,0.32925 c 5.69509,0.44952 6.8201,0.51195 8.48654,0.47098 6.81536,-0.16758 8.68306,-0.0819 10.11904,0.46402 0.90839,0.34537 1.45602,0.43236 1.21697,0.1933 -0.23906,-0.23906 0.92748,-0.78325 2.59231,-1.20931 2.60372,-0.66634 3.11219,-0.65807 3.63661,0.0591 0.52759,0.72153 0.77117,0.70523 1.80953,-0.1211 0.65993,-0.52517 1.29712,-1.28254 1.416,-1.68304 0.38605,-1.3007 2.9488,0.95722 2.60006,2.29079 -0.16401,0.62718 -0.14538,0.98751 0.0414,0.80073 0.18678,-0.18678 0.68706,-0.0512 1.11173,0.30122 0.56795,0.47136 0.77214,0.47003 0.77214,-0.005 0,-0.35519 0.51782,-0.64581 1.15072,-0.64581 0.93163,0 1.16626,0.41079 1.23236,2.1576 l 0.0817,2.1576 0.41206,-2.30144 c 0.22664,-1.26579 0.44881,-1.88847 0.49372,-1.38373 0.0617,0.69395 0.6428,0.89106 2.38308,0.80837 1.26578,-0.0601 2.30143,0.0801 2.30143,0.31159 0,0.23152 2.65384,0.53962 5.89743,0.68468 3.24358,0.14506 6.35052,0.46103 6.9043,0.70217 0.59231,0.25791 1.00688,0.19356 1.00688,-0.1563 0,-0.3271 -0.32364,-0.706 -0.7192,-0.84201 -0.39556,-0.13601 -0.26636,-0.1793 0.28711,-0.0962 0.55347,0.0831 1.14041,-0.0659 1.30431,-0.3311 0.16391,-0.26521 -0.41839,-0.56454 -1.29398,-0.66518 -2.07817,-0.23889 -2.0232,-1.11419 0.13408,-2.13494 0.94934,-0.4492 2.29627,-1.42361 2.99316,-2.16535 1.34108,-1.42737 3.29068,-1.7772 3.95091,-0.70894 0.21744,0.35184 0.0488,0.85385 -0.37469,1.1156 -0.63056,0.38971 -0.60565,0.66463 0.13755,1.51791 0.49917,0.5731 0.91113,1.43037 0.91547,1.90504 0.005,0.47467 0.21218,1.35861 0.46187,1.9643 0.32023,0.77681 0.25567,0.97869 -0.21915,0.68524 -0.37022,-0.22881 -0.67313,-0.18498 -0.67313,0.0974 0,1.02976 0.73276,1.20536 1.56345,0.37467 0.885135,-0.88515 4.715245,-0.5957 5.370045,0.40582 0.17427,0.26657 1.16568,0.57758 2.20312,0.69116 1.03743,0.11358 2.39699,0.64381 3.02122,1.17829 0.76996,0.65926 1.10348,0.73411 1.03703,0.23274 -0.27061,-2.04174 0.44401,-2.50269 2.18939,-1.41221 0.48813,0.30498 0.60467,0.16395 0.36996,-0.4477 -0.26349,-0.68663 0.0625,-0.89292 1.41103,-0.89292 0.96452,0 1.9163,0.26313 2.11507,0.58474 0.19876,0.32161 0.60241,0.43579 0.89699,0.25372 0.29458,-0.18206 0.5356,-0.0266 0.5356,0.3454 0,0.39331 -0.48195,0.55039 -1.15151,0.3753 -0.63333,-0.16562 -1.00641,-0.0664 -0.82908,0.22057 0.47227,0.76415 -0.55087,0.63689 -1.35649,-0.16873 -0.37973,-0.37973 -0.68229,-0.44446 -0.67235,-0.14383 0.0247,0.74847 2.85415,2.75669 3.28164,2.3292 0.18932,-0.18932 0.0422,-0.34422 -0.32703,-0.34422 -1.18184,0 -0.71107,-0.84037 0.88634,-1.58223 2.13579,-0.99189 3.45802,-0.90023 4.14991,0.28768 0.55853,0.95893 0.58729,0.95893 0.60395,0 0.01,-0.56148 0.4629,-1.01498 1.02437,-1.02518 0.55379,-0.0101 1.50946,-0.39843 2.12373,-0.86304 1.43754,-1.0873 3.45706,-1.07919 4.55454,0.0183 0.94159,0.94159 1.77964,1.1723 1.27144,0.35002 -0.45038,-0.72874 4.42104,0.58061 5.25615,1.41276 0.80028,0.79744 0.39182,1.45023 -0.65587,1.04819 -0.39304,-0.15082 -1.04671,0.12593 -1.4526,0.615 -0.54029,0.65101 -0.55589,0.88922 -0.0582,0.88922 0.37387,0 0.51975,0.25892 0.32417,0.57536 -0.19558,0.31645 0.048,0.57536 0.5414,0.57536 0.49335,0 0.897,-0.28166 0.897,-0.62593 0,-0.41149 0.78847,-0.49272 2.30143,-0.23711 1.99124,0.33642 2.30144,0.2463 2.30146,-0.66862 2e-5,-0.98298 0.65848,-1.05745 9.34958,-1.05745 5.14226,0 8.24918,0.0796 6.90428,0.17692 -1.3449,0.0973 -2.44527,0.41055 -2.44527,0.6961 0,0.28555 -1.03565,0.82947 -2.30144,1.20871 -1.51156,0.45288 -2.30143,1.02507 -2.30143,1.66721 0,0.77128 0.72879,1.05385 3.45215,1.3385 4.71635,0.49296 10.35646,-0.13157 10.35646,-1.14677 0,-0.64192 0.21087,-0.65426 1.15072,-0.0673 0.90164,0.56309 1.3909,0.56863 2.2604,0.0256 0.73947,-0.46181 1.17656,-0.49239 1.31013,-0.0917 0.1212,0.36362 3.94709,0.75786 9.67829,0.99732 7.72917,0.32292 9.59119,0.24945 10.09214,-0.3982 0.51398,-0.6645 0.7809,-0.62759 1.63445,0.22596 0.82708,0.82707 1.11088,0.87337 1.49946,0.24464 0.40177,-0.65008 0.63026,-0.65021 1.41275,-5.7e-4 0.79502,0.65982 1.16417,0.6014 2.48912,-0.39385 1.05015,-0.78882 1.49372,-1.58717 1.36501,-2.45682 -0.10486,-0.70856 0.0385,-1.14661 0.31873,-0.97346 0.40387,0.2496 5.69569,-5.16972 7.76918,-7.95638 2.11143,-2.83767 3.54769,-4.31519 4.19467,-4.31519 0.42357,0 1.24705,-0.58255 1.82996,-1.29456 0.58289,-0.71201 1.96097,-1.7929 3.06239,-2.40198 2.64815,-1.46443 7.34034,-6.42034 8.55354,-9.03429 0.53266,-1.14768 2.43531,-3.42729 4.2281,-5.0658 1.79279,-1.63851 3.4193,-3.48224 3.61447,-4.09718 0.19518,-0.61494 1.43798,-1.87471 2.76177,-2.79948 1.32379,-0.92478 3.31308,-2.50002 4.42065,-3.50055 1.10756,-1.00054 2.66103,-2.4054 3.45215,-3.12193 0.79112,-0.71653 3.93117,-3.34915 6.97789,-5.85026 18.03733,-14.80723 30.11986,-22.17804 39.79403,-24.27591 2.93447,-0.63634 5.8399,-1.67975 7.13735,-2.56316 1.20352,-0.81947 3.87114,-2.0082 5.92805,-2.64164 2.0569,-0.63343 5.47349,-1.94579 7.59242,-2.91636 2.11892,-0.97056 6.06281,-2.1501 8.76421,-2.62118 2.70139,-0.47108 6.61511,-1.25158 8.69716,-1.73444 2.08205,-0.48286 4.86986,-0.88098 6.19512,-0.88472 1.32527,-0.003 4.48087,-0.53467 7.01245,-1.17984 3.6966,-0.94209 7.15175,-1.23376 17.54844,-1.48141 7.12007,-0.16959 14.36959,-0.39815 16.11005,-0.50789 4.66654,-0.29426 12.68585,-1.91155 14.72564,-2.96979 1.84624,-0.95782 4.82997,-5.24811 4.84536,-6.96714 0.005,-0.54089 0.24097,-1.35019 0.5247,-1.79844 0.30597,-0.48338 0.29898,-1.38549 -0.0171,-2.21704 -1.21407,-3.19341 -2.35487,-13.71219 -2.51037,-23.14699 -0.18801,-11.40741 -0.53182,-15.21084 -2.08851,-23.10473 -0.60266,-3.05577 -1.09573,-6.49466 -1.09573,-7.6418 0,-1.14713 -0.42625,-3.04829 -0.94723,-4.22481 -1.21066,-2.73403 -1.12146,-12.78264 0.13616,-15.33857 0.45796,-0.93075 0.98439,-2.64111 1.16983,-3.8008 0.29425,-1.84017 0.17336,-2.15136 -0.94983,-2.44508 -1.0367,-0.27111 -1.20734,-0.59494 -0.8774,-1.66511 0.96878,-3.14229 1.02168,-16.60281 0.0983,-24.99768 -0.51734,-4.70303 -1.05487,-9.77338 -1.19454,-11.26745 -0.398,-4.25785 -0.85021,-4.68993 -6.7522,-6.45163 -5.59931,-1.67134 -17.74855,-7.50625 -20.56664,-9.87751 -0.90176,-0.75879 -2.05256,-1.37961 -2.55731,-1.37961 -1.44008,0 -18.20466,-8.02907 -20.90583,-10.01244 -1.33512,-0.98033 -2.43549,-1.98025 -2.44528,-2.22205 -0.0413,-1.02078 -3.9597,-3.90994 -6.44629,-4.75306 -1.47877,-0.5014 -3.02636,-1.31851 -3.43907,-1.81581 -0.67039,-0.80776 -0.47574,-0.85957 1.82563,-0.48584 l 2.57604,0.41832 -2.51144,-2.59245 c -1.38129,-1.42585 -2.3872,-2.94067 -2.23534,-3.36629 0.15185,-0.42562 0.0515,-1.21123 -0.22308,-1.74581 -0.77598,-1.51097 0.34773,-1.73651 2.03586,-0.40863 l 1.51646,1.19284 -0.67925,-1.49079 c -1.15254,-2.52954 0.07,-2.473 2.28797,0.10582 1.16064,1.34947 2.29762,2.44957 2.52663,2.44467 0.22901,-0.005 1.53833,1.11304 2.9096,2.48431 1.94804,1.94805 2.91453,2.49323 4.41999,2.49323 1.282,0 2.26457,0.41715 2.93621,1.2466 0.5552,0.68564 1.38826,1.24661 1.85124,1.24661 0.46299,0 2.88115,0.53869 5.37369,1.19708 2.49254,0.6584 5.7437,1.41668 7.22481,1.68508 4.30662,0.78042 9.81474,2.42218 11.78139,3.51158 0.99903,0.55339 2.326,0.87292 2.94883,0.71005 0.62282,-0.16288 2.13563,0.20141 3.36181,0.80953 1.22617,0.60811 4.04178,1.39466 6.25691,1.74789 2.21513,0.35323 5.96935,0.96087 8.3427,1.35033 2.37336,0.38945 4.72865,0.65073 5.23399,0.58063 0.50534,-0.0701 1.23992,0.25946 1.63242,0.73238 0.87607,1.0556 4.01443,0.61583 5.07228,-0.71076 0.39556,-0.49605 0.7192,-1.89942 0.7192,-3.1186 0,-1.76642 -0.19804,-2.18234 -0.97495,-2.04762 -0.56887,0.0986 -1.28427,-0.43005 -1.71759,-1.26934 -0.86935,-1.68381 -1.00339,-4.60287 -0.21136,-4.60287 0.31705,0 0.40971,-1.1698 0.21972,-2.77394 -0.4,-3.37736 0.59297,-5.57279 3.66631,-8.10609 2.86326,-2.36014 5.22465,-2.34542 8.9668,0.0559 3.08919,1.98233 4.43504,4.28243 4.43504,7.57961 0,1.22095 0.32834,2.09668 0.86304,2.30186 0.47467,0.18215 0.85922,0.92185 0.85456,1.64379 -0.0113,1.74931 -1.3555,4.22547 -2.19615,4.04557 -0.39195,-0.0839 -0.67217,0.55612 -0.67217,1.53518 0,0.92346 -0.15218,2.07559 -0.33817,2.56029 -0.41443,1.07999 3.48206,2.89287 5.22872,2.43271 5.41205,-1.42579 9.11126,-2.17809 11.79486,-2.39871 3.71163,-0.30514 5.51447,-0.98126 8.77189,-3.2897 0.79949,-0.56658 2.59386,-1.0964 3.98747,-1.17737 1.39362,-0.081 3.17074,-0.59396 3.94915,-1.13997 0.77841,-0.54602 3.48658,-1.78021 6.01816,-2.74265 4.12384,-1.56776 7.14774,-2.99515 13.49875,-6.3719 1.09536,-0.58239 2.28006,-1.05889 2.63266,-1.05889 1.5759,0 3.06909,-2.66632 3.46377,-6.18511 0.22183,-1.9778 0.60873,-3.59599 0.85975,-3.59599 0.25104,0 0.77158,0.95493 1.15678,2.12208 l 0.70034,2.12207 1.2142,-1.49568 c 0.6678,-0.82261 2.07027,-2.55428 3.11659,-3.84815 2.98164,-3.68705 4.1979,-2.92102 1.54975,0.97608 -2.1542,3.1702 -1.7405,3.33589 1.05209,0.42138 1.36977,-1.42957 2.92324,-2.59922 3.45215,-2.59922 1.34564,0 1.24351,0.25567 -1.19593,2.99393 l -2.15759,2.42188 1.85251,-1.2963 c 1.01889,-0.71296 2.00508,-1.54315 2.19156,-1.84486 0.18646,-0.30171 0.58266,-0.54857 0.88043,-0.54857 1.12337,0 0.45817,1.289 -2.04771,3.96799 -1.42401,1.52238 -2.58911,2.9599 -2.58911,3.19449 0,0.23459 1.1651,-0.25627 2.58911,-1.0908 3.58037,-2.09823 3.41827,-0.61151 -0.23728,2.17624 -2.83438,2.16153 -5.27558,4.96569 -5.97544,6.86388 -0.20593,0.55853 -0.9636,1.24028 -1.68372,1.51499 -0.72012,0.27471 -3.4195,2.32411 -5.99862,4.55422 -6.48828,5.61028 -9.785,8.06439 -12.17438,9.06274 -1.1231,0.46926 -5.00107,2.81549 -8.61772,5.21384 -6.79514,4.50614 -10.00115,6.14003 -17.38282,8.85883 l -4.31519,1.58937 -0.39297,5.67119 c -0.21613,3.11916 -0.691,7.56664 -1.05526,9.88328 -0.36427,2.31665 -0.51485,5.42359 -0.33463,6.90431 0.18022,1.48072 0.48217,10.06558 0.67098,19.07747 0.18882,9.01188 0.43753,16.5377 0.5527,16.72405 0.11516,0.18635 -0.18205,1.47497 -0.66047,2.8636 -0.78551,2.27995 -0.94328,4.72065 -1.35669,20.98762 -0.0241,0.94935 0.19348,2.2439 0.48357,2.8768 2.21668,4.83622 3.65842,20.37502 3.52332,37.97368 -0.009,1.14403 0.35627,5.98776 0.50524,6.70371 0.12019,0.57767 12.45909,1.24865 23.95536,1.30266 10.26581,0.0482 10.38668,0.0635 13.80861,1.7493 1.89868,0.93535 4.09943,2.12924 4.89055,2.65309 0.79112,0.52384 2.72442,1.09236 4.29621,1.26338 3.62261,0.39416 4.99184,1.895 6.23163,6.83065 0.69443,2.76454 0.78274,4.23523 0.35829,5.96697 -0.3098,1.264 -0.79936,5.53457 -1.0879,9.49017 -0.30865,4.23131 -1.00924,8.73153 -1.70184,10.93181 -0.64748,2.05691 -1.17736,4.25766 -1.1775,4.89055 -1.5e-4,0.6329 -1.40431,3.99875 -3.12035,7.47967 -1.71605,3.48092 -3.26617,6.99515 -3.44473,7.8094 -0.17855,0.81425 -0.93852,2.38506 -1.68882,3.49068 -0.7503,1.10563 -1.54113,2.71528 -1.75741,3.57702 -0.21628,0.86173 -1.17457,2.2684 -2.12953,3.12594 -1.43616,1.28965 -1.84401,2.25533 -2.35945,5.58667 -0.34275,2.21513 -0.6826,4.9337 -0.75523,6.04127 -0.0726,1.10756 -0.33005,3.72625 -0.57204,5.81931 -0.44749,3.87053 -0.0799,4.89431 1.42376,3.96502 0.65647,-0.40571 0.67422,-0.77853 0.0973,-2.04465 -0.60346,-1.32446 -0.58059,-1.50052 0.15813,-1.21705 1.39168,0.53404 1.55159,-0.51759 0.3173,-2.08673 -0.62858,-0.79911 -1.135,-1.67101 -1.12538,-1.93754 0.01,-0.26654 0.28445,-0.0261 0.61072,0.53437 0.32628,0.56044 0.83842,0.86744 1.13809,0.68224 0.29968,-0.18521 0.79929,0.26243 1.11024,0.99477 l 0.56537,1.33152 -0.0586,-1.43839 c -0.12385,-3.04173 0.0847,-5.35416 0.44987,-4.98896 0.20958,0.20958 0.33556,1.58402 0.27995,3.05429 -0.10653,2.81632 0.9312,6.53754 1.82311,6.53754 0.28979,0 0.34303,-0.58255 0.11831,-1.29456 -0.85663,-2.71422 -0.99996,-4.45903 -0.3663,-4.45903 0.35237,0 0.64066,0.86304 0.64066,1.91786 0,1.3212 0.26851,1.91787 0.86304,1.91787 0.47467,0 0.86304,-0.3605 0.86304,-0.80111 0,-0.44061 0.25891,-0.64108 0.57536,-0.44551 0.31662,0.19569 0.59524,-0.24184 0.61957,-0.97292 0.0311,-0.93365 0.25758,-0.64447 0.76203,0.97292 l 0.71781,2.30144 0.45123,-1.94652 c 0.24819,-1.07059 0.61728,-1.6923 0.82022,-1.38158 0.65433,1.00182 2.38273,0.60897 2.38273,-0.54158 0,-0.59883 0.24761,-0.93576 0.55023,-0.74872 0.30263,0.18703 0.40438,0.72013 0.22613,1.18467 -0.17827,0.46454 -0.0294,0.84461 0.33086,0.84461 0.36023,0 0.804,-0.38836 0.98615,-0.86304 0.18215,-0.47467 0.5715,-0.86303 0.86522,-0.86303 0.31443,0 0.29829,0.44053 -0.0392,1.07123 -0.40725,0.76097 -0.34993,1.37672 0.19792,2.12594 0.70066,0.95822 0.80852,0.83391 1.17899,-1.35891 0.28871,-1.70881 0.68703,-2.41105 1.36409,-2.40481 0.63971,0.006 0.73331,0.15065 0.28272,0.43728 -1.09168,0.69441 -1.61934,3.58142 -0.65461,3.58142 1.21904,0 2.19121,-1.21482 2.19121,-2.73814 0,-0.75834 0.25389,-1.20037 0.57535,-1.00169 0.31645,0.19557 0.57536,1.13232 0.57536,2.08166 0,1.00421 0.24062,1.57737 0.57536,1.37049 0.31645,-0.19558 0.57536,-1.10892 0.57536,-2.02965 0,-1.26412 0.21494,-1.59159 0.87772,-1.33725 0.66772,0.25622 0.72288,0.52339 0.23055,1.11661 -0.48826,0.58831 -0.43525,0.99175 0.21586,1.64285 1.15341,1.15341 2.20443,-0.0435 1.76635,-2.01162 -0.21726,-0.97609 -0.14723,-1.17463 0.22816,-0.64674 0.43699,0.61452 0.74344,0.55992 1.58591,-0.28254 0.74271,-0.74271 1.11298,-0.83806 1.28227,-0.33019 0.13091,0.39273 0.46351,0.71406 0.7391,0.71406 0.50948,0 0.23166,-3.72759 -0.34768,-4.66498 -0.17446,-0.28229 0.11584,-0.51325 0.64512,-0.51325 0.82048,0 0.90258,-0.3984 0.55698,-2.703 -0.37191,-2.4801 -0.32624,-2.63734 0.55388,-1.90691 0.81866,0.67942 1.03582,0.67503 1.48192,-0.03 0.38594,-0.60991 0.525,-0.40318 0.53151,0.79015 0.005,0.88891 0.23838,1.47431 0.51897,1.30089 0.28059,-0.17341 0.83012,0.0702 1.22117,0.54141 0.39105,0.47118 1.05139,0.8567 1.46742,0.8567 0.53612,0 0.68169,0.62835 0.49982,2.15759 -0.25168,2.11622 -0.24248,2.12805 0.47956,0.61681 0.73413,-1.53656 0.73879,-1.53755 1.69389,-0.36044 0.95749,1.18006 0.9581,1.18007 2.41389,0.0349 0.80089,-0.62999 1.27076,-1.35076 1.04416,-1.60173 -0.22661,-0.25096 -0.11174,-0.2845 0.25527,-0.0745 1.44761,0.82827 2.42086,-0.22186 2.09078,-2.25594 -0.21485,-1.32388 -0.0937,-1.96884 0.36991,-1.96884 1.13405,0 0.0713,-2.33457 -1.86999,-4.10762 -0.97257,-0.8883 -1.58444,-1.79897 -1.35971,-2.02369 0.22472,-0.22473 0.68502,-0.13217 1.02287,0.20569 1.05762,1.05761 2.72533,0.23413 2.37384,-1.17215 -0.30794,-1.23204 -0.29832,-1.23358 0.92989,-0.14888 0.68257,0.60283 1.24104,0.80514 1.24104,0.44958 0,-0.83732 1.79548,-0.17074 2.71466,1.00783 0.38549,0.49428 0.70913,1.46596 0.7192,2.15929 0.0101,0.69333 0.30489,1.43773 0.65517,1.65422 1.02887,0.63588 0.006,-3.07189 -1.88565,-6.83489 -1.48271,-2.94959 -1.6175,-3.6293 -1.14094,-5.75359 0.35294,-1.57324 0.56178,-1.92216 0.60202,-1.00583 l 0.0616,1.40305 1.20291,-1.29117 c 1.16352,-1.2489 1.25303,-1.25858 2.73296,-0.29557 0.84152,0.54759 1.86994,1.40344 2.28538,1.90189 0.63559,0.76259 0.7188,0.76944 0.52486,0.0432 -0.34884,-1.30621 1.34242,-2.35012 2.28324,-1.40931 0.98384,0.98387 0.95024,1.40933 -0.11129,1.40933 -0.47467,0 -0.86304,0.41856 -0.86304,0.93014 0,0.65517 0.34953,0.83874 1.1823,0.62097 0.8555,-0.22372 1.31604,0.0426 1.66614,0.96342 0.26611,0.69993 0.89918,1.6173 1.40681,2.0386 0.50764,0.4213 0.92298,1.25212 0.92298,1.84627 0,1.36277 0.29894,1.35669 1.69003,-0.0344 0.62578,-0.62578 1.42386,-2.7077 1.81959,-4.74672 0.62075,-3.19833 1.01564,-3.90685 3.30706,-5.93347 1.43117,-1.26579 5.01412,-4.68469 7.9621,-7.59754 4.03897,-3.99085 5.82067,-5.36216 7.22929,-5.5641 1.02813,-0.14739 3.52607,-0.53889 5.55098,-0.87001 2.02491,-0.33111 3.89666,-0.46914 4.15946,-0.30673 0.26279,0.16242 1.02009,0.005 1.68288,-0.34963 0.66279,-0.35472 2.41579,-0.74056 3.89556,-0.85742 1.47977,-0.11688 3.79026,-0.75057 5.13442,-1.40821 2.12917,-1.04172 2.87966,-1.12555 5.82703,-0.65089 4.55511,0.73358 7.81276,-0.12159 10.01413,-2.62882 1.01112,-1.1516 2.2241,-1.91796 3.03572,-1.91796 0.74344,0 1.96758,-0.28061 2.72029,-0.62357 1.03579,-0.47193 1.84685,-0.42375 3.33539,0.19816 1.40226,0.58586 3.70088,0.76674 8.00808,0.63017 3.32269,-0.10535 7.85364,-0.21667 10.06878,-0.24738 3.17764,-0.0441 4.24471,-0.28825 5.05682,-1.15732 0.5661,-0.60583 1.40756,-1.1015 1.86992,-1.1015 0.9364,0 1.1861,-2.85224 0.32991,-3.7686 -0.28089,-0.30062 -0.68266,-1.19387 -0.89284,-1.98499 -0.35615,-1.34057 -0.32473,-1.36699 0.46172,-0.38854 0.76656,0.95369 0.81477,0.83301 0.52634,-1.31734 -0.22818,-1.70112 -0.0766,-2.56315 0.5386,-3.06361 0.47093,-0.38303 1.44553,-2.37934 2.16582,-4.43625 0.72029,-2.0569 1.79454,-4.79249 2.38716,-6.07908 0.59262,-1.28659 1.07748,-2.54645 1.07748,-2.79971 0,-1.07845 4.21404,-6.07692 6.02308,-7.14429 1.08346,-0.63925 2.61259,-2.1804 3.39819,-3.42478 1.38046,-2.18682 1.5396,-2.26509 4.75632,-2.33924 1.83044,-0.0422 3.81382,-0.23089 4.40747,-0.41931 0.71385,-0.22656 1.36545,0.0658 1.92395,0.86313 0.56074,0.80058 1.46187,1.20276 2.6818,1.19692 2.36271,-0.0113 3.09422,-0.50635 3.57419,-2.41863 0.21438,-0.85408 0.75274,-1.85411 1.19634,-2.22229 1.0433,-0.86583 1.04019,-4.89995 -0.006,-7.86516 -1.04243,-2.95457 -1.29283,-13.3794 -0.41109,-17.11609 0.37335,-1.58224 0.81407,-5.33616 0.97932,-8.34204 0.1653,-3.00588 0.54682,-5.71151 0.84779,-6.0125 0.30103,-0.30099 0.54728,-1.51343 0.54728,-2.69432 0,-2.94442 3.29991,-6.83065 7.20309,-8.48287 1.58839,-0.67235 3.19341,-1.22246 3.56671,-1.22246 0.37335,0 1.36998,-0.90619 2.21478,-2.01375 1.81675,-2.38192 2.9818,-2.50204 5.87073,-0.60532 2.0584,1.3514 2.3317,1.38435 6.74815,0.81365 9.27467,-1.19847 16.5918,0.0657 18.93598,3.27153 0.68163,0.93224 0.80821,0.93112 2.25978,-0.02 1.41274,-0.92568 2.0866,-0.9482 8.29478,-0.27718 4.9646,0.53662 7.69617,1.14897 10.29714,2.30838 1.94701,0.8679 5.44231,2.01872 7.76734,2.55737 2.32497,0.53863 5.78385,1.7277 7.68633,2.64236 1.90254,0.91465 4.62111,1.90892 6.04127,2.20947 1.42022,0.30056 3.87677,0.96613 5.459,1.47905 9.46633,3.06871 15.153,4.83686 16.54157,5.1433 l 1.58224,0.34917 0,108.73186 -2.3e-4,108.73184 -368.22964,0 -368.229625,0 z M 147.37222,523.47203 c 0,-0.13955 -0.25892,-0.25373 -0.57536,-0.25373 -0.31645,0 -0.57536,0.2742 -0.57536,0.60932 0,0.33512 0.25891,0.4493 0.57536,0.25372 0.31644,-0.19557 0.57536,-0.46977 0.57536,-0.60931 z m -4.49499,-0.0714 c -0.41534,-0.16621 -0.91159,-0.14577 -1.10278,0.0454 -0.19118,0.19118 0.14864,0.32717 0.75516,0.30219 0.67027,-0.0276 0.8066,-0.16395 0.34762,-0.34761 z m -37.79389,-4.20984 c -0.19557,-0.31645 -0.46976,-0.57536 -0.60931,-0.57536 -0.13955,0 -0.25372,0.25891 -0.25372,0.57536 0,0.31645 0.27419,0.57536 0.60931,0.57536 0.33513,0 0.4493,-0.25891 0.25372,-0.57536 z m 1.78602,-0.99489 c -0.58487,-0.58486 -1.06744,0.29567 -0.58757,1.07211 0.36249,0.58653 0.49802,0.58698 0.6929,0.002 0.13326,-0.39976 0.0858,-0.88325 -0.10533,-1.07444 z m -19.046775,-0.15583 c -0.19558,-0.31645 -0.0629,-0.57536 0.29482,-0.57536 0.36789,0 0.24578,-0.40464 -0.28112,-0.93153 -0.51235,-0.51234 -1.11339,-0.73581 -1.33566,-0.49659 -0.22226,0.23922 -0.095,0.54568 0.28276,0.68102 0.37778,0.13535 0.54426,0.61773 0.36996,1.07196 -0.1743,0.45422 -0.015,0.82586 0.35396,0.82586 0.36898,0 0.51086,-0.25891 0.31528,-0.57536 z m -19.58677,-1.68632 c 0.18206,-0.29458 0.11104,-0.67156 -0.15783,-0.83773 -0.26887,-0.16617 -0.48885,0.0748 -0.48885,0.5356 0,0.97016 0.18143,1.05492 0.64668,0.30213 z m 408.496615,-1.33431 c -0.48531,-1.57883 -0.72811,-1.87625 -1.17055,-1.43381 -0.49583,0.49583 0.31681,2.72836 0.99312,2.72836 0.331,0 0.40636,-0.5498 0.17743,-1.29455 z M 70.849505,514.26628 c 0,-0.49334 -0.26314,-0.73436 -0.58475,-0.5356 -0.32161,0.19877 -0.43579,0.60242 -0.25372,0.897 0.49322,0.79804 0.83847,0.64924 0.83847,-0.3614 z m -30.75804,-0.7908 c -0.20859,-0.3375 -0.63309,-0.61363 -0.94334,-0.61363 -0.31025,0 -0.23024,0.36225 0.17779,0.805 0.82602,0.89631 1.3559,0.76385 0.76555,-0.19137 z m 54.34775,0.54583 c -0.71361,-0.45394 -0.73767,-0.75128 -0.13897,-1.71727 0.39824,-0.64255 0.48042,-1.16827 0.18261,-1.16827 -0.70298,0 -1.37459,2.1197 -0.90986,2.87164 0.19732,0.31928 0.66713,0.57655 1.04401,0.5717 0.40989,-0.005 0.33845,-0.22942 -0.17779,-0.5578 z m -27.67325,-2.558 c -0.15137,-0.15136 -0.61799,0.29557 -1.03693,0.99318 -0.72779,1.21189 -0.71553,1.22415 0.27521,0.27521 0.57031,-0.54625 0.91308,-1.11702 0.76172,-1.26839 z m 431.575125,-3.20434 c 0,-0.31644 -0.40365,-0.57535 -0.89699,-0.57535 -0.49335,0 -0.73698,0.25891 -0.54141,0.57535 0.19558,0.31645 0.59923,0.57536 0.897,0.57536 0.29777,0 0.5414,-0.25891 0.5414,-0.57536 z m 23.58971,-11.21418 c 0,-0.13304 -0.64728,-1.19571 -1.43839,-2.36149 -1.50842,-2.22277 -1.97539,-3.87686 -0.74797,-2.64944 0.37974,0.37973 1.06714,0.69043 1.52757,0.69043 0.65247,0 0.59704,-0.2653 -0.25128,-1.20269 -1.06789,-1.18001 -1.06765,-1.21785 0.0127,-2.00781 0.6056,-0.44282 0.94149,-0.96471 0.74644,-1.15977 -0.19506,-0.19506 -1.03477,0.32547 -1.86603,1.15673 -1.94902,1.94903 -2.41916,4.78188 -1.18853,7.16166 0.80567,1.558 1.10898,1.7363 2.07458,1.21953 0.62203,-0.3329 1.13095,-0.71412 1.13095,-0.84715 z m -2.35036,-10.64945 c 0.0176,-0.47467 -0.31086,-0.21576 -0.72987,0.57536 -0.41901,0.79112 -0.62945,1.68012 -0.46763,1.97556 0.32165,0.58728 1.14635,-1.16949 1.1975,-2.55092 z M 408.91096,426.5162 c 3.11451,-0.56306 11.18133,-2.77762 11.18133,-3.06959 0,-0.0674 -0.65826,-1.78984 -1.46281,-3.82764 -1.30727,-3.31112 -1.39144,-3.96379 -0.79167,-6.13819 0.51398,-1.86337 0.51071,-3.07023 -0.014,-5.15398 -0.37682,-1.49648 -0.80011,-4.15579 -0.94063,-5.90959 -0.3209,-4.00481 -1.87228,-13.54579 -2.58334,-15.88747 -0.29508,-0.97181 -0.53652,-2.34395 -0.53652,-3.04921 0,-0.70525 -0.35171,-1.98143 -0.78159,-2.83594 -0.42988,-0.85452 -1.23512,-4.01333 -1.78942,-7.01958 -0.5543,-3.00625 -1.34651,-6.76046 -1.76047,-8.3427 -0.41396,-1.58223 -0.93423,-3.91244 -1.15616,-5.17823 -0.33459,-1.90827 -0.48315,-2.10485 -0.86965,-1.15071 -0.25638,0.63289 -0.48433,2.10478 -0.50657,3.27085 -0.0223,1.16608 -0.32771,2.84901 -0.67882,3.73983 -0.73707,1.87011 -1.78539,13.99079 -1.75739,20.31886 0.0336,7.59023 0.50558,39.97127 0.58914,40.41895 0.0997,0.53413 -0.20375,0.54873 3.85855,-0.18566 z m -244.42182,95.17034 c 0.39556,-0.15961 1.04284,-0.15961 1.4384,0 0.39556,0.15961 0.0719,0.2902 -0.7192,0.2902 -0.79112,0 -1.11476,-0.13059 -0.7192,-0.2902 z m 0.14384,-3.07111 c 0,-0.31644 0.25891,-0.57536 0.57536,-0.57536 0.31645,0 0.57536,0.25892 0.57536,0.57536 0,0.31645 -0.25891,0.57536 -0.57536,0.57536 -0.31645,0 -0.57536,-0.25891 -0.57536,-0.57536 z m -55.23444,-1.11676 c 0,-0.33512 0.25891,-0.60931 0.57535,-0.60931 0.31645,0 0.57536,0.11417 0.57536,0.25372 0,0.13955 -0.25891,0.41374 -0.57536,0.60932 -0.31644,0.19557 -0.57535,0.0814 -0.57535,-0.25373 z m 56.96052,-0.28768 c 0,-0.60728 1.10417,-0.86241 1.43259,-0.33102 0.19877,0.32161 -0.0422,0.58475 -0.5356,0.58475 -0.49334,0 -0.89699,-0.11418 -0.89699,-0.25373 z m -66.958215,-2.35763 c -0.55521,-1.44685 -0.39143,-1.82018 0.28683,-0.65381 0.335825,0.57752 0.489395,1.17124 0.341255,1.31938 -0.148135,0.14813 -0.430775,-0.15137 -0.628085,-0.66557 z m 381.104125,-7.7451 c 0,-0.31645 0.25891,-0.57536 0.57536,-0.57536 0.31644,0 0.57536,0.25891 0.57536,0.57536 0,0.31644 -0.25892,0.57536 -0.57536,0.57536 -0.31645,0 -0.57536,-0.25892 -0.57536,-0.57536 z m 3.45215,-1.15072 c 0,-0.31645 0.25891,-0.57536 0.57536,-0.57536 0.31645,0 0.57536,0.25891 0.57536,0.57536 0,0.31645 -0.25891,0.57536 -0.57536,0.57536 -0.31645,0 -0.57536,-0.25891 -0.57536,-0.57536 z m -18.36606,-4.26725 c -0.025,-0.60652 0.111,-0.94634 0.30219,-0.75516 0.19119,0.19119 0.21162,0.68744 0.0454,1.10278 -0.18367,0.45898 -0.32001,0.32265 -0.34761,-0.34762 z m 44.30263,-4.02751 c -0.025,-0.60652 0.11101,-0.94634 0.30219,-0.75516 0.19119,0.19119 0.21162,0.68744 0.0454,1.10278 -0.18366,0.45898 -0.32,0.32265 -0.34761,-0.34762 z m 11.60559,-17.89466 c -0.8387,-0.93745 -0.95475,-1.6413 -0.19298,-1.1705 0.28942,0.17888 0.64542,-3e-5 0.79112,-0.39756 0.18695,-0.51008 0.45602,-0.54436 0.91434,-0.1165 0.4812,0.44923 0.46257,0.85006 -0.0719,1.54736 -0.61443,0.80157 -0.82797,0.82191 -1.44056,0.1372 z M 766.44713,374.15885 c -0.76051,-2.82414 -0.54452,-5.82315 0.44268,-6.14722 0.5329,-0.17494 0.7192,0.89419 0.7192,4.12704 0,2.39973 -0.1195,4.36314 -0.26553,4.36314 -0.14603,0 -0.54935,-1.05433 -0.89635,-2.34296 z"
       id="path3019"
       inkscape:connector-curvature="0"
       sodipodi:nodetypes="ccssssssscsccssscsssssssssssssscscssssssssssssssssscssssccsssssssssssssssssssssssssscsscssssssssssssssssscsssscscscsssssssssssssssscsscscsscssssssssssscssssssssssscsssssssssssssscsssssscscssssssssssscsssscscscsssssssssssssssssssssscssscsssssssssssscsssccssscsscssssssssssssssssssssccsssssssssssssssssssssscssscsssssssssssssccssssssssscssssscsssscccsscccsccsssccsccssscsssccccccssssscccccssssscscccsssssssssssssssssssssssssssscsssssssssssssssscsssscsscssssssssssssscsssssssssssssssssssssssssssssssssssscsccccscccsssssscsssc" />
    <path
       style="opacity:0.84070794;fill:#000000;stroke:#000000;stroke-width:0.16934726px;stroke-linecap:butt;stroke-linejoin:miter;stroke-opacity:1"
       d="m 538.22142,245.98271 c 3.88998,-2.90879 8.15773,-2.20781 12.03456,-1.53367 3.64509,0.61286 7.6564,1.33898 11.3153,-1.39885 2.22096,-1.91995 4.34803,-4.09275 6.66227,-5.78536 2.82739,-2.06945 5.77271,-4.3837 8.88154,-4.81881 0.95771,-0.15273 2.11005,0.6745 0.5243,1.01387 -5.76152,2.98739 -9.9371,9.80522 -14.44196,15.43012 -1.03167,1.61509 -2.23012,2.67276 -3.56382,1.63958 -4.93952,-1.82057 -9.295,-6.18393 -14.84611,-5.49059 -1.53511,0.10033 -3.04031,1.12256 -4.56411,0.95452 -0.6702,0.0262 -1.33865,0.0279 -2.00197,-0.0108 z"
       id="path3827"
       inkscape:connector-curvature="0" />
    <path
       inkscape:connector-curvature="0"
       id="path3839"
       d="m 627.37492,238.32444 c 2.59623,-1.5022 5.4446,-0.45537 8.03206,0.52144 2.43279,0.9039 5.11001,1.9344 7.55202,0.52016 1.4823,-1.03713 2.90195,-2.26169 4.4465,-3.12915 1.88705,-1.06086 3.85281,-2.2757 5.9277,-2.16795 0.63919,0.0203 1.40827,0.74462 0.34992,0.77096 -3.84533,1.3104 -6.63218,5.48158 -9.6388,8.78346 -0.68856,0.98253 -1.48842,1.55717 -2.37855,0.66635 -3.29672,-1.9104 -6.20364,-5.50453 -9.90854,-5.75481 -1.02456,-0.1325 -2.02915,0.37724 -3.04616,0.0604 -0.44731,-0.0701 -0.89344,-0.15683 -1.33615,-0.27088 z"
       style="opacity:0.84070794;fill:#000000;stroke:#000000;stroke-width:0.11511954px;stroke-linecap:butt;stroke-linejoin:miter;stroke-opacity:1" />
  </g>
</svg>
