<?xml version="1.0"?>
<svg xmlns:rdf="http://www.w3.org/1999/02/22-rdf-syntax-ns#" xmlns="http://www.w3.org/2000/svg" xmlns:cc="http://creativecommons.org/ns#" xmlns:dc="http://purl.org/dc/elements/1.1/" xmlns:svg="http://www.w3.org/2000/svg" id="svg2" viewBox="0 0 555 496" version="1.1">
  <path id="path2987" d="m358.31 0.64016c-4.2295-0.0465-5.0098 0.41164-6.4688 2-4.4328 4.8259-48.432 74.66-47.906 76.031 0.23183 0.60412 2.2111 2.1969 4.4062 3.5312 2.1952 1.3344 7.1 4.5565 10.906 7.1875l6.9375 4.7812-8.5625 10.219c-10.052 12.012-15.526 20.924-17.969 29.219-1.5128 5.1379-1.7658 10.382-1.8125 36.5-0.03 16.775 0.38518 49.492 0.9375 72.688 0.9716 40.804 1.0806 42.249 3.125 44.5 3.5152 3.8697 5.8594 18.709 5.8438 36.812-0.0133 15.468 0.005 15.521-3.75 25.5-2.0697 5.5-6.9146 15.746-10.75 22.75-3.8354 7.0038-6.9688 12.975-6.9688 13.281 0 0.30664-1.2906 3.3667-2.875 6.7812-1.5844 3.4146-4.9893 11.588-7.5625 18.188s-5.1251 13.081-5.6562 14.375c-0.76911 1.8732-1.4665 2.2134-3.4375 1.7188-1.4205-0.35652-2.4688-0.17864-2.4688 0.40625 0 0.56048-1.6875 0.998-3.75 1-5.5277 0.006-9.8977 3.1004-11.375 8.0312-1.5288 5.1028-5.3624 7.4987-9.4688 5.9375-5.2857-2.0096-16.984 4.4539-17.594 9.7188-0.41296 3.566-6.9055 7.5921-11.312 7-4.7047-0.63209-15.5 4.2356-15.5 7 0 1.4083-4.0236 3.6734-8.375 4.7188-1.9982 0.48003-3.3913 0.21022-4.625-0.90625-2.4124-2.1832-15.09-2.3305-18.25-0.21875-2.053 1.372-2.6621 1.2842-7-0.90625-4.0387-2.0394-4.75-2.8235-4.75-5.3125 0-4.4658-3.8491-8.2689-9.0938-8.9688l-4.4062-0.59375-0.5-29.969-0.5-29.969-22-2.1875c-12.1-1.1912-31-2.9088-42-3.8438-11-0.9349-20.575-2.0445-21.281-2.4375-0.88556-0.49285 0.82128-2.6813 5.5-7.0938 3.7312-3.5188 11.068-10.464 16.312-15.438 18.106-17.171 32.168-30.057 33.812-30.969 1.77-0.98101 3.1002-2.6287 3.125-3.8438 0.0388-1.9019-2.3297-0.21103-9.125 6.5-4.0402 3.9901-14.319 13.786-22.844 21.75-8.525 7.9642-18.544 17.377-22.25 20.906l-6.7188 6.4062-1.6562-3.9062c-8.7987-20.934-19.198-47.9-18.75-48.625 0.73732-1.193-2.6446-4.8781-3.8125-4.1562-1.0427 0.6444-0.0889 4.2608 1.5625 5.9375 1.733 1.7596 21.006 51.369 20.25 52.125-0.3682 0.36821-5.9512 0.17062-12.406-0.4375-11.437-1.0775-11.91-1.0358-19.219 1.4688-4.125 1.4136-9.4922 3.4351-11.906 4.4688l-4.375 1.875 0.625 13.719c0.34523 7.5492 0.91862 25.995 1.2812 41 0.36263 15.005 0.95652 27.467 1.3125 27.688 0.75214 0.46484 18.493 3.0316 35.062 5.0625 6.325 0.77523 17.125 2.0874 24 2.9375 6.875 0.85012 17.9 2.2164 24.5 3.0312 6.6 0.8149 15.906 1.797 20.688 2.1562l8.6875 0.625 11.094-7.125c10.3-6.6299 11.496-7.1562 16.562-7.1562 3.0023 0 5.4688-0.45 5.4688-1 0-2.8071 9.7126 1.4328 14.125 6.1562 2.4709 2.6451 3.2253 2.8438 9.9375 2.8438 7.2876 0 10.938-1.4969 10.938-4.5 0-1.1421 8.6974-4.5 11.656-4.5 0.78119 0 2.4777 0.7084 3.7812 1.5625 2.1454 1.4058 2.7249 1.4026 6.1562-0.0313 6.0201-2.5154 10.529-6.3847 10.188-8.75-0.44584-3.0908 8.2643-8.3312 11.219-6.75 2.9438 1.5755 6.7187 0.47789 12.25-3.5625 3.3535-2.4496 4.75-4.1712 4.75-5.8438 0-3.5873 4.9151-5.3704 8.4375-3.0625 1.7077 1.1189 2.4148 2.2964 2.0625 3.4062-0.36544 1.1514 0.26692 2.0684 1.9688 2.8438 3.0225 1.3772 3.0849 2.785 0.5 11.031-2.749 8.7696-2.6369 14.699 0.28125 16.594 3.9588 2.571 24.003 4.9318 42.25 5 19.546 0.073 24.075-0.58122 25.031-3.5938 1.1322-3.5672-1.8515-6.6315-14.406-14.844-1.969-1.288-2.1555-1.8837-1.2812-4 0.85407-2.0674 3.7241-11.04 6.5625-20.562 0.47086-1.5796 0.0211-2.3548-1.875-3.2188-2.2214-1.0122-2.388-1.4573-1.4688-3.875 3.022-7.9485 20.585-42.127 24.906-48.469 2.7552-4.0435 5.0272-7.9375 5.0312-8.625s0.37512-1.25 0.84375-1.25 1.133 7.3125 1.4688 16.25c0.66813 17.783 2.184 28.481 6.8125 47.656 1.6718 6.9264 3.8359 16.194 4.7812 20.594 2.4651 11.473 10.966 31.442 13.688 32.125 1.1614 0.29149 6.1098 0.87932 11 1.3125s16.682 0.8608 26.188 0.9375c19.224 0.15509 23.459-0.7467 25.219-5.375 2.2357-5.8803 0.95544-7.2258-14.625-15.125-6.2864-3.1872-13.033-7.0922-14.969-8.6875-3.4527-2.846-3.5097-3.0282-3.3125-9.7812 0.1867-6.394-0.0654-7.3108-3.5-12.656-5.0618-7.8781-9.1316-16.913-9.9375-22-0.36975-2.3341-0.64855-20.109-0.59375-39.5 0.0549-19.391 0.0402-45.253-0.0313-57.5-0.12617-21.63 0.92491-33.26 3.2188-36.031 1.1956-1.4442 1.2942-44.848 0.15625-66.469-0.52223-9.9219-0.37992-13.095 0.65625-14.344 0.73196-0.88196 6.0662-4.7199 11.844-8.5625 8.8506-5.8865 10.967-6.9067 13.469-6.4062 1.6333 0.32666 3.1442 0.76918 3.3438 0.96875 0.19957 0.19957-1.9877 6.8116-4.8438 14.719-6.1114 16.92-9.8748 28.745-9.875 30.969-0.0001 1.1482 2.304 2.2331 8.25 3.8438 23.891 6.4715 48.753 14.886 73.125 24.75 8.7419 3.5381 16.269 6.0748 16.719 5.625 0.44985-0.44985 2.8104-5.5443 5.25-11.312 5.4017-12.772 16.797-38.104 22.938-51 2.488-5.225 5.9804-12.875 7.75-17s6.3624-14.417 10.219-22.875l7-15.375-3.375-2.8438c-1.8619-1.5581-10.125-8.5752-18.375-15.625-20.784-17.76-39.478-33.281-40.094-33.281-0.2838 0-2.2566 3.825-4.4062 8.5l-3.9062 8.5h-8.8125c-12.674 0.008-15.785 1.1502-22.281 7.9688-4.0341 4.2343-8.0239 10.467-14.938 23.406l-9.4062 17.625h-4.7188c-3.5932 0-7.3317 1.2392-15.594 5.125-10.938 5.1442-23.413 10.223-23.812 9.6875-0.11864-0.15913-0.97304-5.0375-1.9062-10.812-2.1854-13.524-6.8979-33.609-10.438-44.469-1.5305-4.6957-2.5538-8.5332-2.25-8.5312 0.30379 0.002 3.0375 1.565 6.0625 3.4688 12.894 8.1149 15.36 8.7216 26.156 6.4062 3.5769-0.7671 5.9093-1.9434 7.2812-3.6875 4.0179-5.1079 46.562-74.095 46.562-75.5 0-0.72266-7.0338-5.2964-22-14.344-5.775-3.4911-11.175-6.766-12-7.2812-14.906-9.3094-34.237-21.062-34.656-21.062-0.21088 0-3.4191-1.9791-7.125-4.4063-6.614-4.3317-6.9114-4.405-16.656-4.8438-2.3296-0.10488-4.1214-0.20325-5.5312-0.21875zm9.4688 6.4688c2.3265 0 2.5552 0.22863 1.5 1.5-0.68469 0.825-1.3597 1.5-1.5 1.5-0.14031 0-0.81531-0.675-1.5-1.5-1.0552-1.2714-0.82652-1.5 1.5-1.5zm10.812 3.1875c1.4719 0.0548 3.6875 0.99989 3.6875 1.875 0 0.51293-0.5625 0.9455-1.25 0.9375-1.8351-0.0225-4.312-1.7818-3.5625-2.5312 0.21859-0.21859 0.63435-0.29951 1.125-0.28125zm-21.031 1.8438c1.3361 0.0348 4.7188 2.3684 4.7188 3.25 0 0.56503-25.169 39.487-32.469 50.219-3.6219 5.3246-4.5023 6.0371-7.8125 6.3125-2.0515 0.1707-3.7188 0.12211-3.7188-0.125 0-0.24712 2.3625-4.0758 5.25-8.5 4.7924-7.3429 18.912-29.382 28.812-44.938 2.1878-3.4375 4.5466-6.2362 5.2188-6.2188zm25.625 4.9062c2.489-0.20811 9.3017 1.1073 11.156 2.4062 2.3598 1.6529 2.3565 1.6648-2.0938 1.625-4.0844-0.0366-9.9688-2.1793-9.9688-3.625 0-0.22893 0.33186-0.35822 0.90625-0.40625zm-12.844 3.0312c1.3747 0.008 5.056 2.2114 5.5625 3.5312 0.98303 2.5617-7.37 14.283-12.219 17.125-7.9743 4.6733-13.428 12.943-15.406 23.406-0.56824 3.0058-2.0538 7.4872-3.2812 9.9375s-2.6688 4.5486-3.2188 4.6875c-1.277 0.32241-6.5-2.4612-6.5-3.4688 0-0.71097 2.3752-4.5342 16.312-26.188 3.0091-4.675 8.2835-13 11.719-18.5 3.4353-5.5 6.3968-10.179 6.5938-10.406 0.0857-0.0987 0.24111-0.12608 0.4375-0.125zm28.719 5.0312c3.7835-0.006 10.219 2.2202 10.219 3.5312 0 1.3975-8.8612 0.21633-11.5-1.5312l-3-1.9688zm-13.906 3c0.48806 0 1.8815 0.79967 3.0938 1.7812l2.2188 1.8125-2.1875 3.6875c-2.1968 3.7232-4.2965 4.4692-8.2188 2.9062-1.5229-0.60688-1.3906-1.1965 1.25-5.4375 1.6266-2.6125 3.3557-4.75 3.8438-4.75zm24.125 4.9688c0.66494-0.0166 1.7954 0.10844 3.5312 0.3125 5.3931 0.63397 10.469 2.4989 10.469 3.875 0 2.2736-11.881-0.0906-14.125-2.8125-0.78868-0.95646-0.98323-1.3473 0.125-1.375zm-10.5 4.1875c0.87982-0.0567 1.8799 0.42473 3.2812 1.4062 2.771 1.9409 2.7647 2.6213-0.0313 6.9375-1.2375 1.9105-2.475 3.4621-2.75 3.4375s-1.7222-1.2689-3.2188-2.75l-2.7188-2.6875 2.0625-3.25c1.3076-2.0536 2.2438-3.0208 3.375-3.0938zm27.281 4.875c3.7789-0.0195 10.219 2.1826 10.219 3.5 0 0.26088-2.1375 0.48095-4.75 0.46875-3.1685-0.0148-5.5824-0.69555-7.25-2l-2.5-1.9375zm-12.312 4.1875c0.9824 0.0262 2.0301 0.62946 3.4062 1.6875l2.4062 1.8438-3.7188 5.875c-2.045 3.2374-6.8151 10.813-10.625 16.844-4.1554 6.5776-6.9375 10.151-6.9375 8.9062 0-1.1415 1.1996-3.8295 2.6562-5.9688 4.288-6.2976 5.4931-10.097 4.7812-14.844-0.56257-3.7515-0.20868-4.9306 2.7188-9.4062 2.2669-3.4658 3.6752-4.9812 5.3125-4.9375zm26.25 3.9688c2.0005-0.0173 4.2666 0.29634 5.4062 0.90625 1.7014 0.91055 1.857 1.2989 0.75 2-2.751 1.7423-9.875 0.34396-9.875-1.9375 0-0.61978 1.7183-0.95147 3.7188-0.96875zm-12.938 4.4375c0.4481 0.002 0.92413 0.26438 1.5625 0.6875 1.1833 0.78428 2.2792 2.0795 2.4375 2.875 0.25686 1.2906-8.1541 15.176-27.719 45.781-3.5308 5.5233-6.9058 10.043-7.5 10.031-0.59417-0.0122-2.0406-0.79973-3.2188-1.75l-2.125-1.75 14.312-22.5c7.8677-12.375 15.942-25.119 17.969-28.312 2.4061-3.7905 3.2954-5.067 4.2812-5.0625zm14.75 5.4062c0.31817 0.0147 0.46875 0.38221 0.46875 1.125 0 1.4493-11.115 20.188-24.812 41.844-12.115 19.153-11.359 18.139-13 17.125-0.93691-0.57904 1.0034-4.3365 7.2188-14.188 4.6568-7.3808 9.9863-15.912 11.875-18.937 1.8888-3.025 6.4634-10.338 10.156-16.25 4.6434-7.4344 7.1392-10.763 8.0938-10.719zm-118.56 18c1.8551-0.0736 4.1958 0.46215 5.0312 1.4688 1.0709 1.2903 0.68412 1.5-2.7188 1.5-4.1209 0-5.5919-0.66171-4.6875-2.125 0.32901-0.53235 1.262-0.79957 2.375-0.84375zm11.25 7.5312c0.52894-0.0187 1.067 0.0313 1.5312 0.1875 0.69093 0.23246 0.99839 0.84073 0.6875 1.3438-0.72332 1.1704-4.1568 1.1932-4.875 0.0313-0.47474-0.76816 1.0694-1.5064 2.6562-1.5625zm58.469 5.7188c0.13816-0.0361 0.23789 0.0371 0.25 0.25 0.0324 0.56787-1.85 3.9429-4.1875 7.5s-4.925 6.5828-5.75 6.7187c-1.7504 0.28853-8-3.5219-8-4.875 0-0.50716 1.7771-0.008 3.9375 1.0938l3.9062 2 3.8438-4.875c2.1021-2.6809 4.3448-5.6962 5-6.7188 0.40948-0.6391 0.76973-1.0335 1-1.0938zm-23 15.375c0.88703-0.021 2.3398 0.84419 4.8125 2.75 1.9102 1.4722 1.8377 1.5321-1.6875 1.5625-3.9927 0.0344-5.1645-0.87918-4.2188-3.3438 0.23879-0.62228 0.56153-0.95617 1.0938-0.96875zm122.75 0.46875 3.5312 2.6562c1.9369 1.4617 6.6992 5.3672 10.594 8.6875 3.8946 3.3203 12.23 10.306 18.5 15.531 6.2704 5.225 13.196 11.17 15.406 13.219 2.21 2.0487 3.5812 3.745 3.0312 3.75-1.865 0.0155-17.784-8.9846-21.219-12-1.8782-1.649-3.8528-2.717-4.4062-2.375-0.55345 0.34205-6.1489-2.0059-12.438-5.2188-11.442-5.8455-13.198-7.6532-10.031-10.281 1.1201-0.92961 3.4078 0.47219 11.562 6.9688 5.6039 4.4645 10.415 7.8666 10.688 7.5938 0.44008-0.44009-17.75-14.961-21.219-16.938-0.94104-0.53617-1.8568 0.19352-2.9688 2.3438-1.3816 2.6718-1.9883 3.0442-4.2812 2.4688-1.4716-0.36935-2.8493-0.8493-3.0625-1.0625-0.2132-0.21319 1.1186-3.7634 2.9688-7.875zm-111.31 8.5938c1.738-0.0617 3.8145 0.25876 5.1875 0.96875 1.5735 0.81368 2.7199 1.5946 2.5312 1.75-2.1679 1.7867-10.844 0.6111-10.844-1.4688 0-0.75875 1.387-1.1883 3.125-1.25zm7.875 7.2812c0.55 0 1 0.45 1 1s-0.45 1-1 1-1-0.45-1-1 0.45-1 1-1zm11 1c0.55 0 1 0.45 1 1s-0.45 1-1 1-1-0.45-1-1 0.45-1 1-1zm71.406 0h8.9688l-5.1875 2.5938c-2.8675 1.4289-5.6902 3.4539-6.25 4.5-1.13 2.1114-2.2482 2.2738-5.9375 0.78125-1.375-0.55625-4.172-0.7576-6.2188-0.4375-4.8182 0.75353-4.2883-1.0061 1.4375-4.7188 3.7484-2.4305 5.1045-2.7188 13.188-2.7188zm14.25 1.1562c0.6919 0.014 1.3828 0.0772 2.0625 0.1875 5.9865 0.97147 64.174 30.717 64.25 32.844 0.0133 0.37574-2.6264 6.4507-5.875 13.5-18.315 39.742-29.55 64.698-38.75 86.062-3.612 8.3875-7.0941 15.234-7.7188 15.219-0.62465-0.0157-6.525-2.2938-13.125-5.0625-21.264-8.9203-47.441-17.951-69.406-23.969-5.7281-1.5692-10.798-3.235-11.25-3.6875-0.76275-0.76275 5.048-18.691 12.281-37.906l3.0625-8.125 4.4062-0.6875c6.3285-0.94901 9.8438-4.2677 9.8438-9.3125 0-2.1985-0.49234-5.0463-1.0938-6.3438-0.60141-1.2974-1.6397-3.538-2.3125-4.9688-1.0767-2.2898-0.8472-3.3678 1.9688-9 2.6962-5.3928 6.5146-12.018 14.688-25.625 3.1824-5.2984 9.9289-7.2026 14.906-4.1875l3.0938 1.875 4.625-4.4375c4.4209-4.236 9.5004-6.473 14.344-6.375zm-8.7812 8c-0.39377 0.19248 2.0156 1.6659 5.625 3.4062 9.096 4.3859 10.903 4.3365 2.5-0.0625-3.575-1.8716-7.175-3.3644-8-3.3438-0.0516 0.001-0.0988-0.0128-0.125 0zm-4.25 3.0938c-0.15483 0.008-0.27356 0.0548-0.34375 0.125-0.28074 0.28074 2.572 1.8874 6.3438 3.5625s7.55 3.4751 8.375 4c1.7339 1.1032 3 1.3089 3 0.5 0-0.30949-3.0375-1.901-6.75-3.5312-3.7125-1.6303-7.5777-3.4266-8.5938-4-0.76205-0.42999-1.5668-0.68047-2.0312-0.65625zm27.125 2.75c-1.5061 0-2.1097 1.0052-6.3438 10.781-1.4938 3.4489-2.3698 6.599-1.9688 7 0.40102 0.40102 10.04 5.3164 21.406 10.906 11.367 5.5899 21.422 10.202 22.375 10.25 1.1157 0.0558 2.6298-1.709 4.25-4.9062 3.4853-6.8778 3.13-7.6381-0.59375-1.25-2.248 3.8565-3.5166 5.1602-4.7188 4.75-4.2312-1.444-41.156-20.679-41.156-21.438 0-0.47319 1.4036-3.884 3.125-7.5625 2.8796-6.1536 3.3303-6.615 5.6562-6.0312 1.3904 0.34896 11.124 4.9822 21.625 10.312 16.988 8.6231 19.085 9.9594 19 12.094-0.0895 2.2505-0.0122 2.2887 1.25 0.5625 0.73997-1.012 1.3438-2.1644 1.3438-2.5625 0-0.93873-43.395-22.906-45.25-22.906zm-29.469 2.4688c-0.0472 0.006-0.0761 0.0136-0.0937 0.0313-0.80226 0.80225-0.22272 1.1593 8.8125 5.4062 7.4439 3.499 11.769 4.4532 9.3438 2.0625-1.3002-1.2816-15.626-7.2268-17.875-7.5-0.075-0.009-0.14033-0.006-0.1875 0zm31.281 2.5312c-0.91168 0-4.5646 7.8395-4.5312 9.7188 0.0298 1.6799 0.10244 1.6693 1.4375-0.0937 0.90552-1.1959 2.1665-1.6843 3.4688-1.3438 2.4711 0.6462 2.6552-0.10554 0.40625-1.75-2.4852-1.8172-0.70709-3.7593 2.75-3 1.5976 0.35087 2.9062 0.39842 2.9062 0.0937 0-0.55595-5.4459-3.625-6.4375-3.625zm-45.906 1.9688c-1.3163 0.0545-3.285 1.0421-4.2812 2.5625-1.55 2.3656-1.5226 2.645 0.15625 4.5 2.2038 2.4351 3.0577 1.9008 1.3438-0.84375-1.0218-1.6361-1.0017-2.3362 0.0937-3.6562 0.74253-0.89469 1.9506-1.3765 2.6875-1.0938 0.73689 0.28276 1.3438 0.064 1.3438-0.46875 0-0.74632-0.55397-1.0327-1.3438-1zm5.3438 3.0312c-2.4897 0-4.6804 5.4752-3 7.5 1.9534 2.3537 3.8374 1.6142 5.9062-2.3125 1.4202-2.6956 0.0321-5.1875-2.9062-5.1875zm50.875 0.5c-1.4602 0.0659-2.47 1.5003-3.875 4.5-1.2902 2.7547-2.1683 5.171-1.9375 5.375 0.23077 0.20402 1.7875 1.0932 3.4375 1.9688 3.6458 1.9346 3.2574 1.8698 3.9688 0.71875 0.32544-0.52658-0.78278-1.6906-2.4688-2.5625-3.7664-1.9477-2.9444-3.8248 1.3438-3.0625 2.8829 0.51249 2.9623 0.46178 0.90625-0.59375-1.2375-0.6353-2.25-1.7916-2.25-2.5938 0-1.1384 0.82288-1.307 3.75-0.78125 3.4375 0.61747 3.5833 0.55864 1.75-0.75-2.0733-1.48-3.4893-2.27-4.625-2.2188zm-51.125 0.8125c0.94948-0.18445 1.75 0.83181 1.75 2.7812 0 1.442-0.66206 2.5273-1.6562 2.7188-2.2984 0.44264-3.1411-1.3613-1.8125-3.8438 0.53469-0.99908 1.1491-1.5456 1.7188-1.6562zm6.625 2.4375c-0.50738-0.0676-1.1689 1.1389-2.2188 3.75-1.0425 2.5928-1.0022 2.7625 0.1875 1.25 1.8943-2.4083 2.6562-2.1932 2.6562 0.75 0 3.2662 0.60425 3.1681 2.4688-0.4375 1.9164-3.706 1.9411-5.4381 0.0313-2.0625l-1.4062 2.5-0.6875-3.3125c-0.32546-1.5681-0.63662-2.3849-1.0312-2.4375zm54.375 2.3438c-0.0733 0.0144-0.15292 0.0458-0.1875 0.0937-0.12838 0.17806-1.2107 1.9476-2.4062 3.9375-2.7463 4.5712-2.9016 6.8431-0.3125 4.5 2.7481-2.487 5.189-1.1325 4.4688 2.4688-0.32003 1.6002-0.27679 2.9062 0.0937 2.9062 0.7972 0 4.5308-7.9487 4.5625-9.7188 0.0186-1.0399-5.1187-4.4029-6.2188-4.1875zm-46.844 0.15625c-0.9975 0.0352-1.9175 1.3075-2.8125 3.875-0.94546 2.7121-0.0963 3.4814 0.40625 1.875 0.31353-1.0022 1.0986-2.5616 1.7188-2.7188 0.99733-0.25271 1.875 1.2668 1.875 0.59375 0-1.4772-2.5174-1.9689-0.34375-2.4062 1.3997-0.28162 1.4804 0.39371 0.59375-0.5-0.491-0.4949-0.98409-0.73476-1.4375-0.71875zm47.438 2.3438c0.46009-0.038 1.0506 0.0799 1.7188 0.4375 1.0666 0.57084 1.9375 1.6944 1.9375 2.5 0 1.8239-1.0842 1.8687-3.4688 0.125-1.8441-1.3485-1.5678-2.9484-0.1875-3.0625zm-41.906 0.5625c-2.6445 1.8016-4.5955 5.5915-1.8125 7.8438 1.4991 0 4.375-3.4043 4.375-5.1875 0-1.54-1.2736-2.6209-2.5625-2.6562zm0.21875 1.0625c1.6429-0.13131 1.7517 1.1546 0.3125 3.8438-4.983 2.274-2.928-1.1804-1.125-3.7188 0.29655-0.0775 0.5778-0.10624 0.8125-0.125zm-1.6875 0.53125c0.0429 0.0204-0.006 0.10537-0.0313 0.125-0.0251 0.0196-0.0462 0.0326-0.0625 0s0.0508-0.14542 0.0937-0.125zm7.7188 0.25c-0.75398 0-1.893 1.1616-2.5312 2.5625-1.3852 3.0403-1.5667 5.6415-0.25 3.5625 0.68764-1.0857 0.99966-0.92489 1.5312 0.75 0.8574 2.7014 1.9835 2.8103 1.2812 0.125-0.31696-1.2121 0.0861-2.346 1.0312-2.875 1.8147-1.0155 1.0123-4.125-1.0625-4.125zm-38.062 0.0625c-0.61595 0.0374 2.025 1.5958 5.875 3.4375s7.675 3.3649 8.5 3.375-1.816-1.5484-5.875-3.4375c-4.0591-1.8891-7.8841-3.4123-8.5-3.375zm85.688 1.0312c-1.4562 0.12631-2.7177 1.5702-4.1562 4.5312-2.2966 4.727-2.1789 7.1737 0.1875 3.9375 1.2166-1.6638 1.395-1.545 2.6562 1.5 0.75093 1.8129 1.5453 2.8017 1.75 2.1875 0.20472-0.61418-0.11373-2.057-0.71875-3.1875-0.94505-1.7658-0.80737-2.0625 0.96875-2.0625 2.8338 0 4.3956-4.0486 2.2188-5.75-1.0841-0.84733-2.0325-1.232-2.9062-1.1562zm-47.125 0.0313c0.5708-0.0854 0.84375 0.28125 0.625 0.9375-0.24063 0.72187-1.0281 1.5094-1.75 1.75-0.75 0.25-1.125-0.125-0.875-0.875 0.24063-0.72188 1.0281-1.5094 1.75-1.75 0.0937-0.0313 0.16846-0.0503 0.25-0.0625zm47.438 2.0625c0.85886 0.074 1.81 0.6164 2.125 1.5625 0.24412 0.73318-0.43427 1.25-1.6562 1.25-1.2283 0-2.0938-0.63487-2.0938-1.5625 0-0.91894 0.76614-1.324 1.625-1.25zm-42.344 0.12495c-0.3468 0.0184-0.77548 0.76345-1.625 2.4062-0.90835 1.7565-1.6445 3.5602-1.625 4 0.0195 0.43981 0.59105-0.22594 1.2812-1.4688 0.98161-1.7675 1.5226-2.0087 2.4688-1.0625 0.28555 0.28555 0.51378 0.45509 0.6875 0.53125-0.67506 0.22502 1.5817 0.0805 2.1562-0.40625 0.81958-0.69442-0.72265 3.0875-1.1562 4.1875-1.4201 3.6028 0.43431 0.99056 2.0625-2.9062 0.987-2.3622 1.1736-3.4072 0.625-3.4375-0.0699-0.004-2.5957 1.8203-3.2812 2.2812 0.0261-0.48491-0.24603-1.4864-0.8125-2.9375-0.31133-0.79751-0.51152-1.2018-0.78125-1.1875zm-47.938 3.7812c-0.10395 0.002-0.14511 0.0335-0.125 0.0937 0.21443 0.64329 3.7515 2.6346 7.8438 4.4062 6.6355 2.8727 11.049 4.2056 9.8125 2.9688-1.3367-1.3367-15.972-7.4997-17.531-7.4688zm58.844 1.375c-0.0778-0.006-0.15696 0.0122-0.1875 0.0313-0.87751 0.54233-5 10.806-5 12.438 0 0.70869 16.655 8.6814 25 11.969 3.2348 1.2743 5 1.3366 5 0.1875 0-0.50502 0.25751-1.6238 0.59375-2.5 0.42034-1.0954 0.18357-1.4327-0.78125-1.0625-0.81933 0.3144-2.3182-0.7325-3.625-2.5-1.2309-1.6649-2.8753-3.0312-3.625-3.0312-0.74969 0-1.6209-0.675-1.9375-1.5-0.31658-0.825-1.364-1.497-2.3438-1.5-0.97976-0.003-2.5631-1.3535-3.5-3-0.93692-1.6465-2.3628-3-3.1875-3-2.5429 0-6.5938-2.2445-6.5938-3.6562 0-2.2711 2.2792-1.5577 14.969 4.6875 12.116 5.963 12.243 6.0652 11.656 9-0.76668 3.8334-0.12555 3.8251 1.2188-0.0313l1.0625-3.0312-14-7c-7.219-3.6164-13.552-6.4151-14.719-6.5zm-32.98 1.13c-0.0511 0.009-0.10294 0.0385-0.125 0.0625-0.33431 0.36378-0.11741 0.81949 0.46875 1.0312 0.58616 0.21176 4.1862 1.9406 8 3.8125 7.3916 3.6279 8.4465 3.9634 8.375 2.7812-0.0656-1.0841-15.134-7.9575-16.719-7.6875zm-27.594 1c-0.27275-0.016-0.33125 0.0682-0.125 0.28125 0.55 0.56817 4.6 2.6116 9 4.5312s8.1125 3.5243 8.25 3.5625 0.25-0.33327 0.25-0.84375-2.3625-1.8425-5.25-2.9375-7.05-2.7357-9.25-3.6562c-1.375-0.57532-2.4204-0.91085-2.875-0.9375zm-2.5 3.4688c-0.89224 0.12364 2.284 1.7466 8.9688 4.5 4.6152 1.9009 8.8562 3.4101 9.4062 3.375 1.3942-0.0891-13.016-6.7411-16.312-7.5312-0.85714-0.20543-1.4593-0.32473-1.8125-0.34375-0.0956-0.005-0.19052-0.008-0.25 0zm62.906 0.25c0.0959-0.0161 0.2003-0.0301 0.28125 0 0.65033 0.24185 2.875 1.043 4.9375 1.7812 2.0625 0.73822 3.75 1.8873 3.75 2.5625 0 1.7284 2.9798 4.5322 4.0938 3.8438 0.50955-0.31492 1.17 0.10889 1.5 0.96875 0.32996 0.85986 1.3463 1.5946 2.25 1.625 0.90365 0.0304 2.6866 1.377 3.9688 3 2.9815 3.774 2.4968 5.0618-1.3125 3.375-1.65-0.73063-7.3966-3.2183-12.781-5.5312-5.3846-2.313-10.037-4.5857-10.312-5.0312-0.75697-1.2248 2.186-6.3524 3.625-6.5938zm-37.32 2.81c-0.67003 0.046 2.8312 2.0478 7.7812 4.4375 8.2097 3.9634 11.63 5.2865 10.344 4-1.1166-1.1166-17.005-8.5144-18.125-8.4375zm-26.562 0.40625c-0.25923 0.25924 2.1905 1.6335 5.4375 3.0312 3.247 1.3978 6.8062 2.9404 7.9062 3.4375 2.0822 0.94101 5.1659 1.3534 4.4062 0.59375-1.0032-1.0032-17.318-7.4943-17.75-7.0625zm25.344 2.6562c-0.55 0.007 3.05 1.9808 8 4.4062s9.45 4.3774 10 4.3438c1.2491-0.0766-16.628-8.7669-18-8.75zm-27.188 0.21875c-0.18354 0.18354 3.8182 2.161 8.9062 4.4062 5.0881 2.2453 9.451 3.8928 9.6875 3.6562 0.23654-0.23653 0.22916-0.60823 0-0.8125-0.8789-0.78338-18.277-7.5666-18.594-7.25zm25 3.0625c-0.0462 0.007-0.0765 0.014-0.0937 0.0313-0.27632 0.27632 1.6847 1.451 4.375 2.625 2.6904 1.174 6.7062 2.9678 8.9062 3.9688s4.45 1.7872 5 1.7812-3.2422-1.9927-8.4062-4.4375c-4.5185-2.1392-8.4861-3.7808-9.5938-3.9688-0.0791-0.0134-0.14129-0.007-0.1875 0zm26.594 0.71875c-0.48108 0.11203 1.423 1.4143 6.0938 3.8438 4.125 2.1456 8.1271 3.9416 8.9062 3.9688 2.1454 0.075 1.0644-0.65051-6.7812-4.4688-4.888-2.3788-7.7377-3.4558-8.2188-3.3438zm-27.781 2.2812c-0.0903 0.0286-0.125 0.0704-0.125 0.15625 0 0.29729 3.7125 2.3045 8.25 4.4375s8.925 3.8488 9.75 3.8438-1.875-1.5937-6-3.5312c-8.1955-3.8495-11.243-5.1063-11.875-4.9062zm-22.625 1.9062c-0.10881 0.004-0.17889 0.0226-0.21875 0.0625-0.31887 0.31886 1.3931 1.4648 3.8125 2.5625s5.0812 1.9713 5.9062 1.9375-0.88697-1.1797-3.8125-2.5625c-2.5598-1.2099-4.9258-2.0281-5.6875-2zm20.72 1.21c-0.0719 0.001-0.0998 0.006-0.125 0.0313-0.56446 0.56446-0.70662 0.49623 8.4062 4.7188 4.4 2.0388 8.675 3.6583 9.5 3.625s-0.3-0.91136-2.5-1.9688c-7.9668-3.8291-14.203-6.4276-15.281-6.4062zm28.281 1.9062c-0.1678 0.0701-0.17517 0.27907 0 0.5625 0.33602 0.5437 1.045 0.96875 1.5625 0.96875 1.4384 0 1.1074-0.71021-0.625-1.375-0.44494-0.17075-0.7697-0.22633-0.9375-0.15625zm-3.3125 1.5938c-0.38781 0.0267 2.2375 1.5659 5.8125 3.4375 6.2113 3.2518 8 3.9495 8 3.125 0-0.49497-12.905-6.6249-13.812-6.5625zm24.062 0.34375c-0.23142 0.23143 2.875 2.0058 6.9062 3.9375s8.0188 3.521 8.8438 3.5312-2.2815-1.7642-6.9062-3.9375c-4.6248-2.1733-8.6123-3.7627-8.8438-3.5312zm-74.844 0.0625c-0.13484-0.001-0.20615 0.0186-0.25 0.0625-0.73436 0.73436-0.14384 1.0706 6.3438 3.7812 6.7949 2.8391 7.5 3.0386 7.5 1.875 0-0.92606-11.571-5.7037-13.594-5.7188zm18.719 1.2812c-0.0769 0.0192-0.125 0.0682-0.125 0.125 0 0.45438 4.1625 2.6387 9.25 4.875s10.102 4.104 11.156 4.1562c2.6627 0.13221 1.876-0.40712-3.9062-2.7188-2.75-1.0994-7.5875-3.179-10.75-4.5938-2.7672-1.2379-5.0865-1.9784-5.625-1.8438zm43.375 0.71875c-0.1678 0.0701-0.17517 0.27907 0 0.5625 0.33602 0.5437 1.045 0.96875 1.5625 0.96875 1.4384 0 1.1074-0.71021-0.625-1.375-0.44494-0.17075-0.7697-0.22633-0.9375-0.15625zm-12 0.5625c-0.55 0-0.325 0.43559 0.5 0.96875s1.95 0.96875 2.5 0.96875 0.325-0.43559-0.5-0.96875-1.95-0.96875-2.5-0.96875zm19.594 1.4375c-0.0641 0.004-0.0937 0.0267-0.0937 0.0625 0 0.27551 3.7125 2.2611 8.25 4.4062 8.8002 4.1604 12.906 5.3941 6.25 1.875-5.5751-2.9476-13.445-6.3975-14.406-6.3438zm-71.75 0.53125c-0.28458 0-0.3536 0.50168-0.15625 1.0938 0.19736 0.59207 2.8328 2.1035 5.8438 3.375 6.3665 2.6885 6.9688 2.824 6.9688 1.6562 0-0.73768-11.134-6.125-12.656-6.125zm50.812 0.4375c-0.40503 0.071 0.41281 0.81682 2.5938 2 1.5125 0.82054 3.1521 1.5092 3.6562 1.5312 1.27 0.0555 0.61327-0.42668-3.1562-2.3438-1.7229-0.87623-2.7787-1.2427-3.0938-1.1875zm8.1875 0.65625c-0.22046 0.13384 0.45312 0.71848 1.6562 1.4062 1.375 0.78602 2.95 1.4375 3.5 1.4375s-0.125-0.65148-1.5-1.4375-2.95-1.4062-3.5-1.4062c-0.0688 0-0.12476-0.0191-0.15625 0zm-38.094 2.4375c-0.0708 0.0144-0.0935 0.0596-0.125 0.0937-0.33831 0.36777-0.175 0.8424 0.375 1.0625 0.55 0.22011 5.05 2.131 10 4.25s9.3375 3.9082 9.75 3.9688c1.2529 0.18395 0.83725-1.6333-0.5-2.1875-12.85-5.3252-18.438-7.4032-19.5-7.1875zm38.25 0.5c-0.55 0-0.325 0.43559 0.5 0.96875s1.95 0.96875 2.5 0.96875 0.325-0.43559-0.5-0.96875-1.95-0.96875-2.5-0.96875zm15 0.0625c-0.55 0 0.575 0.85236 2.5 1.9062 1.925 1.0539 3.95 1.9375 4.5 1.9375s-0.575-0.88361-2.5-1.9375-3.95-1.9062-4.5-1.9062zm-25.844 1.2188c-0.64226 0.2275 1.7688 1.7878 5.3438 3.4688 6.6593 3.1312 8 3.5981 8 2.75 0-0.94397-12.193-6.6264-13.344-6.2188zm20.656 0.1875c-0.16167 0.19351 2.9483 1.9667 8.4688 4.625 7.8087 3.7601 9.2188 4.2861 9.2188 3.4062 0-0.26762-1.4625-1.1321-3.25-1.9062-1.7875-0.77411-5.95-2.6096-9.25-4.0938-3.4265-1.541-5.0769-2.1636-5.1875-2.0312zm-72.156 0.71875c-1.327 0.25673-12.012 23.496-12.125 26.375-0.0235 0.59785 5.2562 2.9982 11.719 5.3125 6.4625 2.3143 12.65 4.6057 13.75 5.0938 5.1846 2.3005 6.0432 1.533 10.75-9.25 6.9041-15.817 6.9784-14.32-0.9375-17.875-3.7545-1.6859-10.167-4.6045-14.25-6.5-4.0833-1.8955-8.0824-3.3156-8.9062-3.1562zm19.656 0.78125c-2.1835 0 0.22905 1.3404 10.938 6.0938 11.207 4.9749 12.726 5.5092 11.812 4.0312-0.64124-1.0375-21.056-10.125-22.75-10.125zm-19.469 1c2.4216 0 26.656 11.506 26.656 12.656 0 0.67536-1.5438 4.657-3.4375 8.8125-2.2298 4.893-4.0106 7.5312-5.0625 7.5312-1.7812 0-1.4558-2.1477 1.1562-7.2812 0.7778-1.5286 1.1424-3.2162 0.8125-3.75-1.2095-1.957-3.1136-0.87788-4.3125 2.4375-1.4916 4.125-3.3595 5.8526-5.5 5.0312-1.4378-0.55174-1.4489-0.98774-0.125-4.1562 1.8485-4.424 1.8286-5.2812-0.0313-5.2812-0.81762 0-2.1332 1.575-2.9375 3.5-0.80432 1.925-1.9157 3.5-2.4688 3.5-1.8298 0-6.5418-5.4681-6.25-7.25 0.17273-1.0547-0.35166-1.75-1.3125-1.75-0.87683 0-1.8685-0.66863-2.1875-1.5-0.73242-1.9087 3.5053-12.5 5-12.5zm86 0.53125c-0.7369 0.023-0.18666 0.59626 1.9062 1.4375 2.5329 1.0181 3.75 1.2182 3.75 0.625 0-0.2212-1.35-0.8623-3-1.4375-1.3022-0.45396-2.2141-0.63881-2.6562-0.625zm-14.125 0.5625c-0.40252 0.0393 3.3312 2.0165 8.2812 4.4062 10.507 5.0723 9.5 4.6439 9.5 3.9375 0-0.64025-16.655-8.4537-17.781-8.3438zm-19.719 1c-0.55 0 1.025 1.081 3.5 2.4062 2.475 1.3253 4.95 2.4062 5.5 2.4062s-1.025-1.081-3.5-2.4062c-2.475-1.3253-4.95-2.4062-5.5-2.4062zm17.719 2c-0.40252 0.046 3.3312 2.0478 8.2812 4.4375 10.366 5.0045 9.5 4.6298 9.5 3.9062 0-0.64788-16.673-8.4705-17.781-8.3438zm-18.719 1c-0.55 0 0.575 0.85236 2.5 1.9062 1.925 1.0539 3.95 1.9375 4.5 1.9375s-0.575-0.88361-2.5-1.9375-3.95-1.9062-4.5-1.9062zm15.156 2.0625c-0.0676-0.001-0.10466 0.008-0.125 0.0313-0.61858 0.70134-4.5312 8.7707-4.5312 9.3438 0 0.33047 3.7125 2.3616 8.25 4.5 6.4152 3.0232 8.3111 3.5642 8.5625 2.4375 0.17783-0.7969 0.96533-1.4688 1.75-1.4688 2.066 0 1.7609-1.7678-0.5625-3.2188-1.1-0.68696-2-1.7954-2-2.4688 0-1.4058-3.8738-3.7512-4.75-2.875-0.32077 0.32076-1.438-0.19214-2.4688-1.125-1.7595-1.5921-1.829-1.5903-1.2188 0 0.43169 1.125 0.146 1.6875-0.84375 1.6875-0.8197 0-1.7512 0.99705-2.0625 2.1875-0.47755 1.8261-0.78829 1.9584-2.0938 0.875-1.3842-1.1488-1.3302-1.7019 0.59375-5.125 2.1368-3.802 2.1734-3.8227 5.0938-2.3125 1.6165 0.83592 3.1314 1.3373 3.375 1.0938 0.24355-0.24356-1.1982-1.2122-3.1875-2.1562-1.7407-0.826-3.308-1.398-3.7812-1.4062zm-15.312 0.9375c-0.22046 0.13384 0.45312 0.71848 1.6562 1.4062 1.375 0.78602 2.95 1.4375 3.5 1.4375s-0.125-0.65148-1.5-1.4375-2.95-1.4062-3.5-1.4062c-0.0688 0-0.12476-0.0191-0.15625 0zm-3.8438 1.375c-0.1678 0.0701-0.17517 0.27907 0 0.5625 0.33602 0.5437 1.045 0.96875 1.5625 0.96875 1.4384 0 1.1074-0.71021-0.625-1.375-0.44494-0.17075-0.7697-0.22633-0.9375-0.15625zm28.062 1.5625c-0.51762-0.0175-0.0676 0.62999 1 1.4375 1.0676 0.8075 2.3574 1.4825 2.875 1.5 0.51762 0.0175 0.0676-0.62999-1-1.4375-1.0676-0.8075-2.3574-1.4825-2.875-1.5zm-24.281 0.0313c-0.43981 0.0231 0.79375 0.88361 2.7188 1.9375 3.9415 2.1579 4 2.1858 4 1.5312 0-0.60653-5.659-3.5242-6.7188-3.4688zm32.562 4c-0.34744 0.10035-0.11253 0.70928 0.90625 1.7812 0.9625 1.0128 2.1604 1.6155 2.6562 1.3438 0.49582-0.27171 0.0759-1.1027-0.9375-1.8438-1.3394-0.97938-2.2776-1.3816-2.625-1.2812zm-50.188 0.0313c-0.63042 0.0477 2.4438 1.8177 6.8438 3.9375 7.7632 3.74 9.5 4.4054 9.5 3.5938 0-0.65514-15.121-7.6238-16.344-7.5312zm39 3.125c1.3603 0.0157 2.3438 0.88778 2.3438 2.3438 0 1.8239-1.0959 1.8464-3.5625 0.0313-1.7769-1.3077-1.8081-1.4896-0.25-2.0938 0.51937-0.2014 1.0153-0.28647 1.4688-0.28125zm-40.469 0.53125c-0.10812-0.007-0.15817 0.0151-0.15625 0.0625 0.0152 0.37671 3.7277 2.384 8.25 4.4375 8.7033 3.9521 9.6755 4.2989 8.1562 2.875-1.4161-1.3272-14.628-7.2655-16.25-7.375zm-1.1562 2.9375c-0.0271 0.0117-0.0316 0.0363-0.0313 0.0625 0.006 0.41864 3.4935 2.3946 7.75 4.4062 9.1582 4.3282 8.25 3.9754 8.25 3.375 0-0.26886-3.6-2.319-8-4.5312-4.125-2.074-7.5626-3.4881-7.9688-3.3125zm-1.75 2.6875c-0.25709 0.25709 3.2911 2.2442 7.875 4.4062 4.5839 2.1621 8.5208 3.7544 8.75 3.5625 0.52789-0.44195 0.97236-0.19461-8.2812-4.6562-4.3268-2.0862-8.0867-3.5696-8.3438-3.3125zm25 1c-0.22918 0.22918 4.2339 2.6773 9.9062 5.4375 10.459 5.0895 11.812 5.638 11.812 4.6562 0-0.75704-21.202-10.611-21.719-10.094zm26.219 0.0937c-0.1678 0.0701-0.17517 0.27907 0 0.5625 0.33602 0.5437 1.045 0.96875 1.5625 0.96875 1.4384 0 1.1074-0.71021-0.625-1.375-0.44494-0.17075-0.7697-0.22633-0.9375-0.15625zm-52.28 2.07c-0.0407 0.007-0.078 0.0154-0.0937 0.0313-0.62473 0.62474-0.55014 0.66901 7.375 4.1875 10.203 4.5299 11.484 3.9244 1.5312-0.71875-4.0711-1.8992-7.6561-3.3383-8.6562-3.5-0.0714-0.0115-0.11554-0.007-0.15625 0zm24.281 1.7187c-0.0584 0.00065-0.10469 0.0109-0.125 0.0313-0.32491 0.32491 4.0881 2.8251 9.7812 5.5625s11.019 4.992 11.844 5-3.5568-2.492-9.75-5.5625c-5.8062-2.8786-10.874-5.0409-11.75-5.0312zm-25.906 1.8438c-0.61004 0.0477 2.5062 1.8177 6.9062 3.9375 7.9516 3.8308 9.5 4.399 9.5 3.5 0-0.69179-15.107-7.5391-16.406-7.4375zm24.625 2.9375c-0.0311 0.007-0.0399 0.005-0.0313 0.0313 0.18266 0.54798 5.0425 3.1671 10.812 5.8125 9.0228 4.1367 12.56 5.337 10.906 3.7188-1.266-1.2389-20.723-9.7799-21.688-9.5625zm-26.125 0.625c-0.52308 0.43837-0.82539 0.28044 6.9062 4.0625 3.575 1.7488 7.175 3.1558 8 3.1562 0.825 0.00047-2.1-1.6967-6.5-3.7812s-8.1771-3.6296-8.4062-3.4375zm-1.8125 3.7812c-0.0482 0.006-0.0764 0.0136-0.0937 0.0313-0.40541 0.40541 8.0399 4.5742 13.812 6.8125 0.825 0.31989 1.6125 0.61285 1.75 0.65625s0.25-0.17986 0.25-0.46875c0-0.75535-13.397-6.7451-15.531-7.0312-0.0711-0.01-0.13933-0.006-0.1875 0zm25.281 1.5625c-1.8044 0-4.9123 7.0877-3.6562 8.3438 0.56657 0.56657 5.4371 2.9478 10.812 5.3125 5.3754 2.3647 10.327 4.3306 11 4.3438 1.1947 0.0235 4.2812-4.9378 4.2812-6.875 0-1.0194-20.381-11.125-22.438-11.125zm0.1875 1.6875c1.3457-0.067 4.2208 1.1048 10.594 4.1562l10.594 5.0625-1.0625 3.0625c-0.58463 1.6771-1.36 3.0422-1.7188 3.0312-1.1622-0.0355-19.608-8.154-20.875-9.1875-1.1993-0.978-0.95909-1.8883 1.5625-5.6562 0.18359-0.27434 0.45769-0.44641 0.90625-0.46875zm0.9375 3.8438c-1.4786 0.057 2.148 2.4387 7.8125 4.8438 6.136 2.6052 7.5 3.0054 7.5 2.1562 0-0.71265-10.002-5.6709-13.438-6.6562-0.92393-0.26498-1.5338-0.35691-1.875-0.34375zm-451.53 150.5c2.585-0.036 6.2063 0.0882 11.719 0.3125 14.972 0.60933 37.826 3.4453 45.031 5.5938 4.9557 1.4776 10.829 5.635 12.438 8.8125 2.2008 4.3475 2.7703 9.399 2.75 24.094-0.0154 11.117-0.42059 15.023-2.1562 20.688-2.417 7.8889-4.044 10.173-8.6562 12.125-3.4953 1.4794-21.868 1.676-30.781 0.34375-2.75-0.41103-7.1882-1.0354-9.875-1.4062-20.218-2.7908-27.369-4.7708-32-8.8438-3.2694-2.8754-3.8541-4.1562-5.1562-11.094-1.691-9.0091-1.921-25.876-0.46875-33.75 1.6632-9.0179 3.7214-12.597 8.75-15.031 2.6354-1.2758 4.098-1.7838 8.4062-1.8438zm76.344 11.469 6.5 0.375c3.575 0.19521 6.5883 0.44396 6.7188 0.5625 0.32148 0.29219 0.65071 37.681 0.4375 49.812l-0.15625 9.75-5.25-0.0937c-9.2883-0.20523-8.4942 2.7729-8.375-30.688zm3.4688 4.75c-1.1855 0.034-2.3041 1.4057-1.5312 2.6562 0.36954 0.59792 1.0774 1.0938 1.5625 1.0938 1.5446 0 2.2477-2.1273 1.0938-3.2812-0.34488-0.34488-0.72982-0.48007-1.125-0.46875zm6.5938 0.75c-2.0541 0-3.0785 2.0869-1.5 3.0625 0.7317 0.45222 1.6862 0.58367 2.125 0.3125 1.3598-0.84042 0.89501-3.375-0.625-3.375zm-7.5625 7.1562c-0.60764 0.10639-1 0.58282-1 1.2812 0 0.92763 0.86542 1.5625 2.0938 1.5625 2.437 0 2.0713-2.326-0.4375-2.8125-0.24669-0.0479-0.4537-0.0666-0.65625-0.0313zm7.4375 0.28125c-0.0947 0.006-0.21783 0.0111-0.3125 0.0313-1.136 0.23946-2.2529 1.5227-1.6875 2.4375 0.9922 1.6054 3.5625 1.3532 3.5625-0.34375 0-0.79254-0.37374-1.6663-0.8125-1.9375-0.15991-0.0988-0.32169-0.16317-0.5-0.1875-0.0892-0.0122-0.15533-0.006-0.25 0zm-94.281 2.5625c-1.5838 0-3.6706 0.90754-4.6875 2.0312-2.6042 2.8776-1.0363 9.1084 2.5312 10.094 3.4982 0.96623 3.5799 0.95135 4.3438 0.1875 0.37582-0.37582-0.71138-1.2561-2.4062-1.9688-2.6722-1.1236-3.0231-1.726-2.75-4.5625 0.26289-2.7306 0.76685-3.3296 3.0625-3.5938 3.6278-0.41743 3.5522-2.1875-0.0937-2.1875zm10.375 1c-3.0758 0-4.3779 1.8087-4.6875 6.4062-0.18815 2.7938 0.2298 4.1986 1.625 5.2188 4.2115 3.0795 8.5312 0.47961 8.5312-5.125 0-3.9068-2.1936-6.5-5.4688-6.5zm8.2812 1.5625c-0.0375 0.01-0.0685 0.006-0.0937 0.0313-1.1198 1.1198-0.86238 12.406 0.28125 12.406 0.55 0 1-1.575 1-3.5 0-4.5354 1.0727-4.4005 4.4688 0.5 1.5179 2.1904 3.1744 3.7353 3.6562 3.4375 0.48188-0.29781 0.875-3.2312 0.875-6.5312 0-3.7454-0.37577-5.792-1-5.4062-0.55 0.33992-1.0148 2.0575-1.0312 3.8125l-0.0313 3.1875-3.75-4.3125c-1.9256-2.227-3.8131-3.7726-4.375-3.625zm-7.8125 0.4375c2.2606 0 3.1093 2.2035 2.3438 6.0312-0.91236 4.5618-5.3438 4.0697-5.3438-0.59375 0-3.5145 1.053-5.4375 3-5.4375zm227.31 0.96875c1.1341 0.0253 1.7216 1.8562 0.53125 4.4688-0.64527 1.4162-1.5523 2.5625-2.0312 2.5625-1.5234 0-1.9955-2.7542-0.84375-4.9062 0.80118-1.497 1.6633-2.1402 2.3438-2.125zm-201.28 0.1875c-0.2505 0.004-0.5099 0.009-0.78125 0.0313-3.2447 0.26855-3.75 0.66102-3.75 2.8125 0 1.7264 0.84069 2.8974 2.75 3.8125 1.5125 0.72492 2.75 1.955 2.75 2.75 0 1.7041-1.3835 1.84-4.0625 0.40625-1.5023-0.80403-1.9375-0.69792-1.9375 0.4375 0 0.80402 0.7875 1.6547 1.75 1.9062 3.626 0.94757 5.218 0.65118 6.2188-1.2188 1.4396-2.69 0.36225-4.7749-3.0625-5.9688-3.7956-1.3232-3.7357-3.125 0.0937-3.125 1.65 0 3-0.47929 3-1.0625 0-0.46037-0.89005-0.73944-2.25-0.78125-0.22666-0.007-0.46825-0.004-0.71875 0zm53.094 1.5625c-1.2551-0.0248-2.125 0.17033-2.125 0.5 0 0.43956 1.575 0.78125 3.5 0.78125s3.5-0.16018 3.5-0.375c0-0.21483-1.575-0.58777-3.5-0.8125-0.48125-0.0562-0.95664-0.0856-1.375-0.0937zm-45.844 0.28125c-0.49715 0.20285-0.93424 1.9428-1.0938 4.4688-0.24182 3.8295 0.0846 5.2607 1.4375 6.25 2.9555 2.1611 6.3182 1.5807 7.4062-1.2812 1.2167-3.2002 1.2794-9.4375 0.0937-9.4375-1.004 0-2.1047 3.4286-2.125 6.6875-0.0161 2.5853-1.2262 3.5553-3.4062 2.7188-1.1385-0.4369-1.512-1.7457-1.3438-4.75 0.12783-2.2824-0.2-4.3812-0.75-4.6562-0.0726-0.0363-0.14773-0.029-0.21875 0zm11.562 0.5625c-0.0731 0.0164-0.14104 0.0474-0.1875 0.0937-1.078 1.078-0.76259 12.344 0.34375 12.344 0.55 0 1-1.8 1-4 0-4.1101 0.72605-4.8677 2.75-2.8438 0.87682 0.87682 1.5192 0.84457 2.6875-0.125 1.352-1.1221 1.5625-0.70816 1.5625 3.3438 0 2.5423 0.40715 4.625 0.90625 4.625 0.8201 0 2.111-10.922 1.4062-11.906-0.16243-0.22684-1.5142 0.11854-2.9688 0.78125-2.2842 1.0408-2.9262 0.92836-4.8125-0.84375-1.051-0.98735-2.1758-1.5838-2.6875-1.4688zm16.156 1.4375c-2.3314 0-2.9283 0.50949-3.3438 2.75-1.0164 5.4812-0.58602 9.1336 1.1562 9.5938 3.2256 0.852 6.3059 0.65687 5.6875-0.34375-0.33992-0.55-1.495-1-2.5625-1-2.9188 0-2.6125-3.9801 0.3125-4.0625l2.25-0.0625-2.3438-0.9375c-2.7854-1.1164-2.3801-3.299 0.6875-3.75 3.0771-0.45245 1.6119-2.1875-1.8438-2.1875zm17.5 1.1562c-2.5576 0-2.7051 0.11105-1 0.84375 1.1 0.47269 3.35 0.875 5 0.875 2.5576 0 2.7051-0.1423 1-0.875-1.1-0.47269-3.35-0.84375-5-0.84375zm0 3.9375c-2.5757 0.0472-2.7171 0.16837-1 0.90625 1.1 0.47269 3.125 0.9073 4.5 0.9375 1.9704 0.0433 2.1822-0.17349 1-0.9375-0.825-0.53316-2.85-0.93645-4.5-0.90625zm127.38 2.9375 2.0312 2.8438c1.9196 2.6959 1.9392 2.9569 0.3125 4.375-0.94837 0.82678-2.7049 2.0043-3.9062 2.625-2.7705 1.4314-2.425 1.5402-5.0625-1.4688-2.6707-3.0467-2.3615-3.7986 2.75-6.4062zm-125.88 1.0938c-0.81562 0-1.6312 0.0683-2.25 0.1875-1.2375 0.23835-0.225 0.4375 2.25 0.4375s3.4875-0.19915 2.25-0.4375c-0.61875-0.11918-1.4344-0.1875-2.25-0.1875zm-2.4062 3.0312c-1.0721 0-1.5938 0.28099-1.5938 0.84375 0 0.55 2.1375 0.97135 4.75 0.90625 4.24-0.10562 4.4279-0.22485 1.75-0.90625-2.2116-0.56276-3.8342-0.84375-4.9062-0.84375zm-0.0313 4c-1.0326 0-1.4114 0.27925-1.0625 0.84375 0.33992 0.55 2.5075 0.97135 4.8125 0.90625 3.9586-0.11176 4.0212-0.1852 1.1875-0.90625-2.2184-0.5645-3.9049-0.84375-4.9375-0.84375zm0.9375 3.9375c-2.2911-0.042-2.6456 0.16594-1.5 0.90625 0.825 0.53316 3.075 0.9677 5 0.9375 2.8598-0.0449 3.1342-0.23526 1.5-0.9375-1.1-0.47269-3.35-0.87605-5-0.90625zm37 1.9062c2.9314 0 3.4739 3.1824 0.96875 5.6875-0.88042 0.88039-1.2826 2.3501-0.9375 3.4375 0.4156 1.3094 0.1145 1.875-0.96875 1.875-1.2332 0-1.5625-1.1727-1.5625-5.5 0-5.2 0.13636-5.5 2.5-5.5zm-36.5 2.0938c-2.7524 0.0432-3.0728 0.22825-1.5 0.84375 2.9894 1.1699 8.3096 1.1955 6.4688 0.0313-0.80326-0.50808-3.0438-0.9052-4.9688-0.875zm99.375 2.0312c1.1106 0.0739 2.0082 0.6788 3.0625 1.8438 1.7041 1.883 1.6516 2.0214-1.5938 4-4.6831 2.8551-7.4873 2.6726-8.0938-0.5-0.38737-2.0264 0.0647-2.8376 2.3125-4 1.8758-0.96998 3.2019-1.4176 4.3125-1.3438zm-101.25 1.3125c-0.73392 0.0623-1.125 0.24959-1.125 0.5625 0 0.5565 2.0896 1 4.6562 1 5.5534 0 5.418-0.48289-0.40625-1.375-1.3143-0.20132-2.3911-0.24981-3.125-0.1875zm1.375 3.6562c-2.2911-0.042-2.6456 0.16594-1.5 0.90625 0.825 0.53316 3.075 0.9677 5 0.9375 2.8598-0.0449 3.1342-0.23526 1.5-0.9375-1.1-0.47269-3.35-0.87605-5-0.90625zm63.531 3.9062c0.57215-0.006 1.2225 0 1.9688 0 5.3333 0 6 0.22222 6 2 0 1.1 0.1125 2.3468 0.25 2.75 0.3158 0.92595-5.8617 1.8561-9.5 1.4375-2.3031-0.26502-2.75-0.79311-2.75-3.25 0-2.5539 0.0262-2.8948 4.0312-2.9375z"/>
  <metadata>
    <rdf:RDF>
      <cc:Work>
        <dc:format>image/svg+xml</dc:format>
        <dc:type rdf:resource="http://purl.org/dc/dcmitype/StillImage"/>
        <cc:license rdf:resource="http://creativecommons.org/licenses/publicdomain/"/>
        <dc:publisher>
          <cc:Agent rdf:about="http://openclipart.org/">
            <dc:title>Openclipart</dc:title>
          </cc:Agent>
        </dc:publisher>
        <dc:title>Anti media</dc:title>
        <dc:date>2011-09-08T22:13:36</dc:date>
        <dc:description>I found a photo of this image on a friend's post on joindiaspora.com. I think the source of the photo is this site http://blog.revoltriot.com/post/2945754911. The photo could be copyrighted but the drawing itself has unknown author.</dc:description>
        <dc:source>http://openclipart.org/detail/159631/anti-media-by-cliparteles</dc:source>
        <dc:creator>
          <cc:Agent>
            <dc:title>cliparteles</dc:title>
          </cc:Agent>
        </dc:creator>
        <dc:subject>
          <rdf:Bag>
            <rdf:li>clip art</rdf:li>
            <rdf:li>clipart</rdf:li>
            <rdf:li>media</rdf:li>
            <rdf:li>news paper</rdf:li>
            <rdf:li>stencil</rdf:li>
            <rdf:li>tv</rdf:li>
          </rdf:Bag>
        </dc:subject>
      </cc:Work>
      <cc:License rdf:about="http://creativecommons.org/licenses/publicdomain/">
        <cc:permits rdf:resource="http://creativecommons.org/ns#Reproduction"/>
        <cc:permits rdf:resource="http://creativecommons.org/ns#Distribution"/>
        <cc:permits rdf:resource="http://creativecommons.org/ns#DerivativeWorks"/>
      </cc:License>
    </rdf:RDF>
  </metadata>
</svg>
