<?xml version="1.0" encoding="UTF-8" standalone="no"?>


<svg
   xmlns:dc="http://purl.org/dc/elements/1.1/"
   xmlns:cc="http://creativecommons.org/ns#"
   xmlns:rdf="http://www.w3.org/1999/02/22-rdf-syntax-ns#"
   xmlns:svg="http://www.w3.org/2000/svg"
   xmlns="http://www.w3.org/2000/svg"
   xmlns:sodipodi="http://sodipodi.sourceforge.net/DTD/sodipodi-0.dtd"
   xmlns:inkscape="http://www.inkscape.org/namespaces/inkscape"
   version="1.1"
   id="Layer_1"
   x="0px"
   y="0px"
   viewBox="0 0 1667.8049 1747.4342"
   enable-background="new 0 0 1667.8049 1747.4342"
   xml:space="preserve"
   inkscape:version="0.91 r13725"
   sodipodi:docname="Thumbs Up American Flag With Drop Shadow.svg"><metadata
     id="metadata97"><rdf:RDF><cc:Work
         rdf:about=""><dc:format>image/svg+xml</dc:format><dc:type
           rdf:resource="http://purl.org/dc/dcmitype/StillImage" /><dc:title></dc:title></cc:Work></rdf:RDF></metadata><defs
     id="defs95"><filter
       style="color-interpolation-filters:sRGB;"
       inkscape:label="Drop Shadow"
       id="filter4225"><feFlood
         flood-opacity="1"
         flood-color="rgb(0,0,0)"
         result="flood"
         id="feFlood4227" /><feComposite
         in="flood"
         in2="SourceGraphic"
         operator="in"
         result="composite1"
         id="feComposite4229" /><feGaussianBlur
         in="composite1"
         stdDeviation="9.4"
         result="blur"
         id="feGaussianBlur4231" /><feOffset
         dx="0"
         dy="0"
         result="offset"
         id="feOffset4233" /><feComposite
         in="SourceGraphic"
         in2="offset"
         operator="over"
         result="composite2"
         id="feComposite4235" /></filter></defs><sodipodi:namedview
     pagecolor="#ffffff"
     bordercolor="#666666"
     borderopacity="1"
     objecttolerance="10"
     gridtolerance="10"
     guidetolerance="10"
     inkscape:pageopacity="0"
     inkscape:pageshadow="2"
     inkscape:window-width="640"
     inkscape:window-height="480"
     id="namedview93"
     showgrid="false"
     inkscape:zoom="0.44833273"
     inkscape:cx="342.6938"
     inkscape:cy="693.1665"
     inkscape:current-layer="Layer_1" /><g
     id="g3"
     style="filter:url(#filter4225)"><path
       fill="none"
       d="M70.358,956.1943L70.358,956.1943c-0.0001,2.136-0.0001,4.272-0.0001,6.408h0.0001V956.1943z"
       id="path5" /><path
       fill="#3C3A6E"
       d="M1360.4957,832.0192V711.0291c-28.9387-1.3458-57.8867-1.8478-86.8535-2.0307l7.2009,22.147   l-30.6741-22.2404c-0.0477-0.0001-0.0955-0.0001-0.1432-0.0002l-30.6743,22.2405l7.2438-22.2787   c-44.1415-0.057-88.3634-0.0401-132.4502,1.8515c-6.708,0.2876-13.4175,0.5603-20.1306,0.6993   c-3.6165,0.0749-9.6519,1.3478-12.8569-0.9186c-0.4615-0.3264-0.8857-0.7228-1.2905-1.1538l7.0881,21.8004l-30.7457-22.2924   l-30.7458,22.2924l11.7589-36.1655l-30.7098-22.2664h38.0224l11.7236-36.1251l11.7235,36.1251h5.7648   c0.917-18.1201,5.7258-35.9897,11.0479-53.2216c6.4987-21.0411,15.8911-42.038,25.4008-61.8696   c9.8174-20.4725,19.5181-40.9707,29.6572-61.2924c9.6604-19.3625,20.353-38.5723,28.6638-58.6086l-5.3481-3.8777l-30.7117,22.3171   l11.7222-36.1206l-30.7717-22.3112h38.0223l11.7238-36.125l11.7235,36.125h6.8973c2.5337-9.4953,4.797-19.0776,7.0195-28.7971   c5.1818-22.6603,6.7759-46.8992,6.6101-70.158c-0.1577-22.1464-1.106-45.4428-6.2367-67.128l-7.0149,5.0861l11.7961,36.1385   l-30.7799-22.3853l-30.7117,22.3853l11.7222-36.1205l-30.7717-22.3112h38.0002l11.7458-36.1251l11.7457,36.1251h9.8295   c-4.5481-16.7749-9.8245-33.1323-18.2701-48.6391c-10.2683-18.8535-24.2948-35.3516-40.5989-49.259   c-16.6891-14.2358-36.2941-25.892-57.1709-32.7601c-6.0404-1.9871-12.188-3.5117-18.3418-5.0927   c-4.6174-1.1863-11.0046-1.0005-15.2396-2.8623c-8.5511-3.7594-22.918-1.3458-32.6589-1.3458   c-1.3527,2.7082-6.9669,2.817-9.5117,3.7726c-3.2631,1.2267-6.3585,2.9606-8.9348,5.3267   c-6.067,5.5723-7.347,13.0735-7.7591,20.923c-1.9351,36.8572-6.43,73.4234-11.4069,109.9366h34.1756l-30.747,22.2933   l11.7961,36.1384l-21.3255-15.5095c-6.8262,42.1632-18.9022,84.415-36.3799,123.1841c-2.6258,5.8245-5.4803,11.5534-8.5203,17.1839   h23.707l11.7236-36.125l11.7236,36.125h38.0223l-30.747,22.2933l11.7961,36.1385l-30.7798-22.3171l-30.7117,22.3171   l11.7222-36.1206l-20.5989-14.9354c-6.7036,11.4848-14.2982,22.4476-22.8792,32.5997   c-11.3214,13.3943-24.304,24.9906-37.7836,36.0729l5.0872,15.6461h38.0002l-30.7717,22.3112l11.7221,36.1205l-30.7115-22.3854   l-30.7799,22.3854l11.7961-36.1384l-10.9723-7.9555c-24.4059,21.1282-46.1006,44.263-59.4706,74.9633   c-0.3326,0.7635-0.6569,1.5305-0.9885,2.2944h33.183l-30.6998,22.3272l11.749,36.2034L716.282,617.811   c-12.3685,29.4504-24.59,58.9543-37.9653,87.976c-19.1659,41.5857-40.903,82.3144-65.4102,121.0046   c-0.4783,0.755-0.9614,1.5123-1.4437,2.2693l8.7437,26.9429h38.0225l-30.7797,22.3853l11.7301,36.1452l-30.7116-22.3854   l-30.7799,22.3854l11.8042-36.1632l-8.2936-6.0317c-15.4937,19.6129-33.0656,37.5928-53.5742,50.7657   c-8.9234,5.7317-18.5251,10.6006-28.98,12.7452c-10.2261,2.0978-20.8022,1.1899-31.1709,1.2479   c-2.8392,0.016-11.2084-1.5125-13.1402,1.4564c-1.652,2.5385-0.7331,7.3365-0.7331,10.191c0,4.6188-0.0001,9.2377-0.0001,13.8566   h906.8958V832.0192z M746.1727,822.8398l-30.7457-22.2924l-30.7458,22.2924l11.728-36.1386l-30.6788-22.2932h37.9016   l11.7457-36.1251l11.7458,36.1251h38.0002l-30.6918,22.2532L746.1727,822.8398z M853.0673,914.5343l-30.7115-22.3854   l-30.7799,22.3854l11.8042-36.1631l-30.755-22.3673h38.0223l11.7235-36.1251l11.7237,36.1251h38.0223l-30.7797,22.3853   L853.0673,914.5343z M841.3272,695.0378l11.7401,36.1076l-30.7115-22.3171l-30.7799,22.3171L803.39,695.02l-30.765-22.3064h38.0223   l11.7235-36.1251l11.7237,36.1251h38.0223L841.3272,695.0378z M960.0606,822.8398l-30.7798-22.3171l-30.7117,22.3171   l11.7222-36.1206l-30.7717-22.3112h38.0002l11.7458-36.1251l11.7457,36.1251h38.0002l-30.747,22.2933L960.0606,822.8398z    M948.2563,603.3865l11.8043,36.1632l-30.7798-22.3854l-30.7117,22.3854l11.7302-36.1453l-30.7797-22.3854h38.0224l11.7236-36.1249   l11.7236,36.1249h38.0223L948.2563,603.3865z M1066.9552,547.8552l-30.7457-22.3605l-30.7458,22.3605l11.741-36.1785   l-30.6918-22.2532h38.0002l11.7458-36.1251l11.7457,36.1251h37.9016l-30.6788,22.2932L1066.9552,547.8552z M1055.2273,328.396   l11.7279,36.0703l-30.7457-22.2924l-30.7458,22.2924l11.741-36.1104l-30.6918-22.3214h38.0224l11.7236-36.1251l11.7236,36.1251   h37.9237L1055.2273,328.396z M1024.5352,122.7443l11.7236-36.125l11.7236,36.125h37.9237l-30.6788,22.2933l11.7279,36.1385   l-30.7457-22.2924l-30.7458,22.2924l11.741-36.1785l-30.6918-22.2533H1024.5352z M1066.9552,914.5343l-30.7457-22.3605   l-30.7458,22.3605l11.749-36.2033l-30.6998-22.3271h38.0224l11.7236-36.1251l11.7235,36.1251h37.9238l-30.6869,22.3672   L1066.9552,914.5343z M1173.9485,822.8398l-30.7799-22.3171l-30.7117,22.3171l11.7222-36.1207l-30.7717-22.3112h38.0002   l11.7458-36.1251l11.7457,36.1251h38.0001l-30.7469,22.2932L1173.9485,822.8398z M1280.8431,914.5343l-30.7458-22.3606   l-30.7457,22.3606l11.736-36.1632l-30.6869-22.3672h38.0225l11.7236-36.1251l11.7235,36.1251h37.9236l-30.6868,22.3672   L1280.8431,914.5343z"
       id="path7" /><path
       fill="#3C3A6E"
       d="M599.6788,847.0078c-2.0467,3.0092-4.1336,6.0104-6.258,8.9961h3.3386L599.6788,847.0078z"
       id="path9" /><path
       fill="#3C3A6E"
       d="M70.358,962.6022h319.4493c-2.4183-16.8961-9.771-32.1454-23.6833-43.3067   c-16.2293-13.0202-35.3556-14.0414-55.2756-14.0861c-34.1635-0.0767-68.327-0.0904-102.4905-0.0602l3.0457,9.385l-12.8592-9.3729   c-11.4122,0.0146-22.8244,0.0097-34.2366,0.0421c-0.498,0.0014-0.9969,0.0006-1.4958,0l-12.8014,9.3308l3.052-9.4045   c-18.4858-0.1611-37.0119,0.144-53.1172,10.6693c-7.8087,5.103-14.6838,11.6271-19.698,19.5266   c-2.302,3.6268-4.2008,7.503-5.691,11.531c-0.7973,2.1548-1.3632,8.8522-4.1985,9.3376V962.6022z"
       id="path11" /><polygon
       fill="#3C3A6E"
       points="929.2656,780.5459 929.2656,780.5458 929.2654,780.5459  "
       id="polygon13" /><path
       fill="#3C3A6E"
       d="M810.9849,488.3169c-0.4574,0.3686-0.9138,0.7376-1.3703,1.1066h1.0105L810.9849,488.3169z"
       id="path15" /><polygon
       fill="#FFFFFF"
       points="1017.2046,144.9977 1005.4636,181.1761 1036.2095,158.8838 1066.9552,181.1761 1055.2273,145.0376    1085.9061,122.7443 1047.9824,122.7443 1036.2588,86.6193 1024.5352,122.7443 986.5128,122.7443  "
       id="polygon17" /><path
       fill="#FFFFFF"
       d="M948.2645,236.7321l30.747-22.2933h-34.1756c-1.4265,10.4656-2.8906,20.9271-4.3478,31.3895   c-0.5351,3.8417-1.1304,7.6869-1.753,11.5328l21.3255,15.5095L948.2645,236.7321z"
       id="path19" /><path
       fill="#FFFFFF"
       d="M1143.1534,178.3137l-11.7458,36.1251h-38.0002l30.7717,22.3112l-11.7222,36.1205l30.7117-22.3853   l30.7799,22.3853l-11.7961-36.1385l7.0149-5.0861c-0.2174-0.9184-0.4299-1.8385-0.6625-2.7508   c-1.2356-4.847-2.4778-9.6677-3.7761-14.4563h-9.8295L1143.1534,178.3137z"
       id="path21" /><polygon
       fill="#FFFFFF"
       points="1036.2588,269.9095 1024.5352,306.0346 986.5128,306.0346 1017.2046,328.356 1005.4636,364.4663    1036.2095,342.1739 1066.9552,364.4663 1055.2273,328.396 1085.9061,306.0346 1047.9824,306.0346  "
       id="polygon23" /><path
       fill="#FFFFFF"
       d="M898.5691,456.1608l30.7117-22.3171l30.7798,22.3171l-11.7961-36.1385l30.747-22.2933h-38.0223   l-11.7236-36.125l-11.7236,36.125h-23.707c-1.3398,2.4816-2.7208,4.94-4.1426,7.3758l20.5989,14.9354L898.5691,456.1608z"
       id="path25" /><path
       fill="#FFFFFF"
       d="M1143.1534,361.6039l-11.7238,36.125h-38.0223l30.7717,22.3112l-11.7222,36.1206l30.7117-22.3171   l5.3481,3.8777c0.7141-1.7216,1.417-3.4471,2.0936-5.1815c4.4906-11.5108,8.0374-23.0932,11.1639-34.8109h-6.8973   L1143.1534,361.6039z"
       id="path27" /><path
       fill="#FFFFFF"
       d="M791.5758,547.8552l30.7799-22.3854l30.7115,22.3854l-11.7221-36.1205l30.7717-22.3112h-38.0002   l-5.0872-15.6461c-3.6329,2.9867-7.2947,5.9435-10.9784,8.8792c-2.3641,1.8841-4.7202,3.7698-7.0662,5.6603l-0.3598,1.1066h-1.0105   c-5.8364,4.7179-11.5977,9.4748-17.215,14.3378l10.9723,7.9555L791.5758,547.8552z"
       id="path29" /><polygon
       fill="#FFFFFF"
       points="1048.0045,489.4235 1036.2588,453.2984 1024.5129,489.4235 986.5128,489.4235 1017.2046,511.6767    1005.4636,547.8552 1036.2095,525.4947 1066.9552,547.8552 1055.2273,511.7167 1085.9061,489.4235  "
       id="polygon31" /><path
       fill="#FFFFFF"
       d="M734.4237,603.3463l30.6998-22.3272h-33.183c-5.3076,12.2291-10.4982,24.5048-15.6585,36.7919   l29.8906,21.7387L734.4237,603.3463z"
       id="path33" /><polygon
       fill="#FFFFFF"
       points="929.2656,544.8941 917.5419,581.019 879.5195,581.019 910.2993,603.4044 898.5691,639.5497    929.2808,617.1642 960.0606,639.5497 948.2563,603.3865 979.0115,581.019 940.9891,581.019  "
       id="polygon35" /><polygon
       fill="#FFFFFF"
       points="822.3708,636.5885 810.6473,672.7136 772.625,672.7136 803.39,695.02 791.5758,731.1454    822.3557,708.8282 853.0673,731.1454 841.3272,695.0378 872.1169,672.7136 834.0945,672.7136  "
       id="polygon37" /><path
       fill="#FFFFFF"
       d="M1036.2588,636.5885l-11.7236,36.1251h-38.0224l30.7098,22.2664l-11.7589,36.1655l30.7458-22.2924   l30.7457,22.2924l-7.0881-21.8004c-5.1826-5.5169-5.8828-18.9991-6.1763-25.4729c-0.1689-3.7281-0.1315-7.4482,0.0563-11.1585   h-5.7648L1036.2588,636.5885z"
       id="path39" /><path
       fill="#FFFFFF"
       d="M1273.6422,708.9984c-7.8229-0.0494-15.6473-0.0765-23.4731-0.0933l30.6741,22.2404L1273.6422,708.9984z"
       id="path41" /><path
       fill="#FFFFFF"
       d="M1250.0259,708.9048c-3.3022-0.007-6.6041-0.0167-9.9069-0.0207   c-4.5066-0.0055-9.0153-0.0117-13.5237-0.0175l-7.2438,22.2787L1250.0259,708.9048z"
       id="path43" /><polygon
       fill="#FFFFFF"
       points="727.1234,764.408 715.3776,728.283 703.6318,764.408 665.7303,764.408 696.4091,786.7012    684.6812,822.8398 715.4269,800.5474 746.1727,822.8398 734.4318,786.6613 765.1235,764.408  "
       id="polygon45" /><path
       fill="#FFFFFF"
       d="M941.0113,764.408l-11.7457-36.1251l-11.7458,36.1251h-38.0002l30.7717,22.3112l-11.7222,36.1206   l30.7117-22.3171l30.7798,22.3171l-11.7961-36.1385l30.747-22.2933H941.0113z M929.2656,780.5459h-0.0001H929.2656   L929.2656,780.5459z"
       id="path47" /><polygon
       fill="#FFFFFF"
       points="1154.8992,764.408 1143.1534,728.283 1131.4076,764.408 1093.4073,764.408 1124.1791,786.7192    1112.4569,822.8398 1143.1686,800.5228 1173.9485,822.8398 1162.1523,786.7012 1192.8993,764.408  "
       id="polygon49" /><path
       fill="#FFFFFF"
       d="M208.3579,905.1493c-3.2712,0.0029-6.5423,0.0079-9.8135,0.0121l12.8592,9.3729L208.3579,905.1493z"
       id="path51" /><path
       fill="#FFFFFF"
       d="M162.8121,905.2035c-3.2397-0.0041-6.4937-0.0453-9.7494-0.0737l-3.052,9.4045L162.8121,905.2035z"
       id="path53" /><path
       fill="#FFFFFF"
       d="M577.6879,914.5343l30.7799-22.3854l30.7116,22.3854l-11.7301-36.1452l30.7797-22.3853h-38.0225   l-8.7437-26.9429c-3.7951,5.956-7.7144,11.9639-11.7841,17.9468l-2.9194,8.9961h-3.3386   c-3.9307,5.5245-7.9995,10.9899-12.2224,16.3356l8.2936,6.0317L577.6879,914.5343z"
       id="path55" /><polygon
       fill="#FFFFFF"
       points="834.0945,856.0038 822.3708,819.8788 810.6473,856.0038 772.625,856.0038 803.38,878.3712    791.5758,914.5343 822.3557,892.1489 853.0673,914.5343 841.3372,878.3891 872.1169,856.0038  "
       id="polygon57" /><polygon
       fill="#FFFFFF"
       points="1047.9823,856.0038 1036.2588,819.8788 1024.5352,856.0038 986.5128,856.0038 1017.2126,878.331    1005.4636,914.5343 1036.2095,892.1738 1066.9552,914.5343 1055.2192,878.3711 1085.9061,856.0038  "
       id="polygon59" /><polygon
       fill="#FFFFFF"
       points="1261.8702,856.0038 1250.1467,819.8788 1238.4231,856.0038 1200.4006,856.0038 1231.0875,878.3711    1219.3516,914.5343 1250.0973,892.1737 1280.8431,914.5343 1269.1071,878.3711 1299.7938,856.0038  "
       id="polygon61" /><path
       fill="#FFFFFF"
       d="M1514.0107,741.2156c-17.0033-13.6453-37.4691-19.3516-58.6375-22.6949   c-23.4684-3.7066-47.6464-4.6995-71.3396-6.2188c-7.8453-0.5029-15.6915-0.908-23.538-1.2729v120.9902h222.4688   c-7.0758-15.1068-16.302-29.5486-25.856-42.8556C1544.8065,772.0287,1530.5348,754.4763,1514.0107,741.2156z"
       id="path63" /><path
       fill="#FFFFFF"
       d="M390.6994,973.1043c-0.0951-3.5574-0.3996-7.061-0.892-10.5019H70.358h-0.0001   c0,43.4948,0,86.9895,0,130.4844h320.5344C391.1507,1053.0974,391.7673,1013.0349,390.6994,973.1043z"
       id="path65" /><path
       fill="#FFFFFF"
       d="M453.6,962.6024c-0.0001,7.1151-0.0001,14.2301-0.0002,21.345   c-0.0002,36.3798-0.0034,72.7595-0.004,109.1393h1142.9507c-1.2462-6.5895-4.0503-12.9834-6.9774-18.8711   c-9.4219-18.9529-21.7285-36.4316-32.0763-54.8759c-5.4664-9.7445-11.1552-20.2792-12.8127-31.4688   c-1.4049-9.4845,1.5347-17.4666,6.0686-25.2686h-190.2529H453.6z"
       id="path67" /><path
       fill="#FFFFFF"
       d="M74.466,1601.1014c1.8606,5.0455,4.595,9.8702,7.9481,14.318h295.7468   c11.6507-15.8551,12.6869-34.5692,12.682-53.9863c-0.0066-25.5323-0.0093-51.0646-0.0137-76.5968H70.3579   c0,16.7444,0,33.489,0,50.2335c0,12.7335,0,25.4667,0,38.1998c0,5.8772,0,11.7539,0,17.6309   C73.4654,1591.5322,73.5887,1598.722,74.466,1601.1014z"
       id="path69" /><path
       fill="#FFFFFF"
       d="M453.5083,1570.6467c-0.0028,6.2588-0.8541,13.1942,0.116,19.3798   c0.6305,4.0192,4.1725,4.4814,7.555,5.1531c11.0413,2.1931,22.1131,4.238,33.1833,6.2787   c22.7644,4.1963,45.5389,8.3271,68.2953,12.5692c2.5045,0.4669,5.0104,0.9279,7.5154,1.392h835.009   c9.8828-8.155,19.3285-16.8453,28.1516-26.1013c14.0356-14.7245,30.7904-32.7421,36.5684-52.7583   c3.2704-11.3285,1.8635-23.8439,1.751-35.4769c-0.0524-5.4154-0.0876-10.8311-0.1311-16.2466H453.5319   C453.522,1513.4397,453.522,1542.0433,453.5083,1570.6467z"
       id="path71" /><path
       fill="#FFFFFF"
       d="M390.7997,1223.6698H70.3579c0,30.3386,0,60.6772,0,91.0159c0,13.1892,0,26.3783,0,39.5676h320.4533   C390.8074,1310.7253,390.803,1267.1978,390.7997,1223.6698z"
       id="path73" /><path
       fill="#FFFFFF"
       d="M453.5679,1354.2533h1099.8436c8.5857-15.046,11.9617-30.7449,6.8406-49.0734   c-6.1252-21.923-16.6991-42.9773-24.4465-64.3965c-2.016-5.574-3.7905-11.2915-4.9512-17.1136H453.5911   C453.5879,1267.1978,453.5759,1310.7253,453.5679,1354.2533z"
       id="path75" /><polygon
       fill="#B22134"
       points="389.8073,962.6024 389.8073,962.6022 70.358,962.6022 70.3579,962.6022 70.3579,962.6024    70.358,962.6024  "
       id="polygon77" /><path
       fill="#B22134"
       d="M1360.4957,832.0192v130.583H453.6c0,0.0001,0,0.0001,0,0.0002h906.8958h190.2529   c0.7877-1.3552,1.6174-2.7056,2.4871-4.0568c11.6517-18.1001,26.6945-34.0513,37.3607-52.7695   c5.5326-9.7094,7.7079-18.8024,6.5483-29.9827c-1.0371-9.9962-4.9055-20.2032-8.2936-29.6169   c-1.7181-4.7743-3.7035-9.4964-5.8867-14.1573H1360.4957z"
       id="path79" /><path
       fill="#B22134"
       d="M390.7904,1119.7225c-0.0011-8.8729,0.0445-17.7532,0.1019-26.6357H70.3579c0,43.5277,0,87.0553,0,130.583   h320.4418C390.797,1189.0208,390.7947,1154.3717,390.7904,1119.7225z"
       id="path81" /><path
       fill="#B22134"
       d="M453.5911,1223.6698h1077.2633c-1.0023-5.0271-1.5481-10.1321-1.3778-15.2932   c0.3466-10.5059,6.3352-19.3816,12.3923-27.5264c12.9771-17.4506,28.7679-32.5974,41.8171-49.9867   c6.161-8.2098,12.5018-17.6943,13.4209-28.1908c0.2817-3.218,0.0377-6.4242-0.5604-9.5859H453.5959   C453.5952,1136.6144,453.5942,1180.1421,453.5911,1223.6698z"
       id="path83" /><path
       fill="#B22134"
       d="M390.8165,1414.1963c-0.0024-19.9808-0.0035-39.9622-0.0053-59.943H70.3579c0,35.785,0,71.5702,0,107.3551   c0,7.7427,0,15.4854,0,23.2279h320.4713C390.8251,1461.2897,390.8193,1437.743,390.8165,1414.1963z"
       id="path85" /><path
       fill="#B22134"
       d="M453.5319,1484.8363h1017.9904c-0.0488-6.1274-0.1047-12.2546-0.1482-18.3821   c-0.1604-22.4855,13.2576-37.6362,28.4248-52.6643c15.733-15.5884,32.891-30.3416,46.1478-48.2017   c2.7892-3.7574,5.2911-7.5256,7.4648-11.335H453.5679C453.5598,1397.7809,453.5469,1441.3086,453.5319,1484.8363z"
       id="path87" /><path
       fill="#B22134"
       d="M113.0436,1638.0552c9.8326,3.415,19.8038,3.4705,30.087,3.4771   c11.6263,0.0078,23.2526,0.0127,34.8791,0.0153c48.4432,0.012,96.8864-0.0099,145.3297,0.0107   c20.0877,0.0087,38.8982-7.2844,52.1736-22.7974c0.94-1.0985,1.8188-2.2134,2.6478-3.3414H82.4141   C90.1923,1625.7371,101.3536,1633.9955,113.0436,1638.0552z"
       id="path89" /><path
       fill="#B22134"
       d="M698.061,1639.1379c22.117,4.3041,44.3047,8.3455,66.4678,12.4086   c10.5344,1.9316,21.4515,4.705,32.1302,5.4781c10.8256,0.7839,21.6307,1.2294,32.4453,2.292   c46.918,4.6094,94.2144,7.6371,141.3221,9.3119c95.4319,3.3923,191.3375,9.0658,286.6816,0.8589   c22.6234-1.9474,45.8047-4.6559,67.8292-10.1932c21.4541-5.3937,39.9674-14.2406,58.105-26.9896   c7.583-5.33,14.973-10.9711,22.14-16.8851h-835.009C612.8009,1623.3179,655.5109,1630.8573,698.061,1639.1379z"
       id="path91" /></g></svg>