<?xml version="1.0"?>
<svg xmlns:rdf="http://www.w3.org/1999/02/22-rdf-syntax-ns#" xmlns="http://www.w3.org/2000/svg" xmlns:cc="http://creativecommons.org/ns#" xmlns:xlink="http://www.w3.org/1999/xlink" xmlns:dc="http://purl.org/dc/elements/1.1/" xmlns:svg="http://www.w3.org/2000/svg" id="svg2" viewBox="0 0 191 384" version="1.1">
  <g id="layer1" transform="translate(0 -668.36)">
    <path id="path4333" d="m32.121 790.23-1 6.4375h-0.09375s-5.0247 2.9375-6.3438 5.375c-3.1225 5.7702-3.248 13.021-2.4375 19.531 0.8854 7.112 7.8125 20.031 7.8125 20.031l12.219 20.031c0 3.6446 1.1456 7.8849-1.4688 10.75l-12.219 33.719 14.719 4 0.09375 5.5938-1.4688 7.5938c0.5384 1.2127 1.0985 2.4166 1.6562 3.625l0.28125 14.875c-0.67541 1.1028-1.3714 2.2107-1.9375 3.3438v3.5l2.0312-0.875 0.03125 1.3438-1.625 2.6875c0.53438 2.532 1.1526 5.0528 1.7812 7.5625l0.09375 4.9062v6.8437l2.9062 0.46875-6.3438 0.5 5.875 1.9375-6.8438 53.75 2.375-0.2812-1.1562 10.125c-0.45026 1.769-0.94883 3.5957-1.5 5.5312 0.39072 0.7122 0.34432 1.3681 0.625 2.125l-0.34375 2.9063s1.3255 0.046 3.5 0.125c0.50942 0.3054 1.065 0.6214 1.75 0.9687 1.1737-0.324 2.3435-0.567 3.5312-0.75 5.3213 0.2312 12.082 0.5737 19.156 1.125 3.2652 0.6275 6.5457 1.3567 9.8125 2 0 0 3.9511 1.4689 5.75 0.2188 0.12424-0.086 0.23511-0.1787 0.34375-0.2813 1.4512 0.083 1.6202-0.5318 0.8125-2.5625-0.0403-0.1736-0.1089-0.3256-0.1875-0.5-0.0525-0.1227-0.111-0.2753-0.1875-0.4062-0.0194-0.031-0.0418-0.063-0.0625-0.094-2.0116-3.2478-10.862-8.7943-17.156-12.469l-6.5938-5.8125-0.125-4.4063 4.0938-0.5 6.8125 1.9688-8.2812-6.3438 7.25-16.844 1.9688-5.875v-2.4688l1.5312-4.1562 1.4062-2.2188 1.625-2.5938v-3.5l0.71875-1.9375 2.5625-1.7812v-4.25l-0.15625-0.59375 1.1562-3.125-0.6875-8.375-1.5-2.3125 1.875-3.5 3.0938-11.656 19.688 17.531 3.0938 9.1875 0.21875 3.5938 4.9688 14.594 1.4062 1.25 3.625 10.687-0.0937 1.125 1.125 8.3125 2.375 0.6562 1.5938 4.6563-0.8125 2.125 1.5625 0.094 2.9375 8.6875 4.8438-2 3.9688 6.7812 0.90625 2.25s1.7959 2.6536 3.4688 5.2813l2.5 4.25 0.125 0.1875c0.0448 0.082 0.0724 0.1747 0.125 0.25l1.7188 2.9375s1.1195-0.817 2.125-1.5625c1.3638-0.1458 2.7538-0.7693 3.625-1.8125 0.38776-0.4643 1.4373-1.6266 2.5-2.7813 6.1256-4.6108 14.384-10.902 21.188-16.469 5.367-4.3911 5.4676-5.1507 3.0938-6.0938h-0.0313c-0.43435-1.6187-2.0748-2.1884-3.75-1.3125-3.4142-0.8451-9.2201 0.9321-12.969 2.3438l-4.0625 0.8437-3.0625-3.8437 5.9375-2.4375-24.156-55.406c-1.1354-1.4368-2.1484-3.0929-3.125-4.8438l-0.40625-1.625-1.0312-1.0312c-1.1655-2.2508-2.2977-4.5402-3.5-6.6562v-2.2812l-4.0625-2.25-2.4375-4.8438-5.2812-7.2188v-3.3125l-2.7188-4.0938-8.5312-8.125-0.53125-0.59375 5.4375-5.6875-5.8438-6.8438c-19.746-27.84-15.321-29.48-15.321-59.05l33.375 6.7812 4.9062-5.875 1.4688 10.281 6.3438-6.8438v3.9062l-8.8125 9.2812 14.656-6.8438-9.75 12.219 12.219-12.219 4.75-11.906h9.75s1.0387 0.20462 1.4688 0.5c0.599 0.4114 0.76027 1.3547 1.4062 1.6875 1.2644 0.65144 4.25 0.28125 4.25 0.28125l1.5-0.59375 2.0625 2 1.7812 1.4688s-0.0725 1.9435 0.59375 2.4688c0.33686 0.26558 0.96617 0.29109 1.2812 0 0.75369-0.69631 0.25-3.0625 0.25-3.0625l-1.5312-2.375-2.1875-2.0938c1.0124-0.84362 1.3669-1.0725 1.1875-2.4688l1.1875 0.90625 3.2812 3.1562 1.9375 3.8438c0.34629 0.69046 0.99009-0.34336 1.125-0.78125 0.38211-1.2401-1.375-3.6562-1.375-3.6562l-3.0625-2.9688-2.0938-1.5938v-0.875l2.7812 1.7812 2.9688 3.1562s1.1529 3.9376 2.2812 3.2812l0.65625-0.40625c1.2374-0.71971-1.5625-3.8438-1.5625-3.8438l-2.875-3.4688-3.1562-2 0.0937-0.46875 4.4688 2.75 2.4688 3.4688s1.1984 3.5019 2.125 2.7188l0.75-0.625c0.83773-0.70804-1.1875-3.0938-1.1875-3.0938l-2.0938-2.8438-5.625-3.875-4.5625-1.7812h-3.2812l-7.125 0.59375-10.812 0.46875-49.313-9.0625-4.8125-2.6875 1.875 0.71875 13.688-2.4375 18.062 1.2812 8.3125 2.1562 4.8438-2 13.062 4.9375-7.4688-7 17.906 5.5-10.406-7.0312 13.812 8.0312-3.5-12.688 3.0625-6.5938 0.5-0.125 4.8438 1.4375c2.4808-0.15739 4.9274-0.73245 7.375-1.1875l3.75 2.0625c1.5082 0.5036 1.7066 2.0194 2.875 3.2812s1.8982 0.36488 1.7812-0.5c-0.11696-0.86489-1.0215-1.8779-1.5312-2.8125-1.47-0.73498-2.03-2.2025-3.5-2.9375-1.3294-0.65477-0.20295-1.0557-0.15625-2.1562 2.1595 0.94461 3.1315 1.371 5.2188 2.4688 1.8657 0.53384 2.6786 3.0545 3.5312 3.9062 0.8527 0.85175 1.0594-0.75484 1.0312-1.5312-0.0282-0.77641-0.76679-1.7057-1.1562-2.5625-2.6783-2.1108-5.7609-3.7471-8.7812-5.3438l1.5312-1 4.25 1.25c0.41544 0.53897 0.63053 1.3091 0.96875 1.9375 0.25018 1.4532 1.919 2.7247 2.9375 2.4062 1.0185-0.31842 0-1.7128 0-2.5625-1.172-1.5069-2.4842-2.7431-3.6562-4.25-0.51541-0.15805-1.0232-0.2671-1.5938-0.3125-0.94107 0.2233-1.5898-0.3646-1.9375-1.2188 0.86347-0.30645 3.1926 0.8365 4.5625 1.1562 3.1891 0.76746 1.7252 3.6547 2.875 4.9062 1.1498 1.2516 1.6571-1.5971 1.5312-2.0625-0.14318-2.7076-1.8774-3.5601-2.8125-5.3438l-7.5625-2.2812c-0.8088 0.0749-1.6259 0.35332-2.4375 0.5-3.8176 0.68508-7.4139 2.2147-11.031 3.5625-1.8186 0.77989-3.6858 1.3283-5.5938 1.8125l-0.3125-1.0625c-18.279 2.4044-38.6 0.77829-55.688 4.375l-7.3438 0.5-38.562-7.3125-0.03125-0.0313h-0.09375l-1.875-0.34375-1.875-2.6562h-23.406z"/>
    <g id="g3056" transform="matrix(.71566 0 0 .71566 -234.5 182.31)">
      <path id="path3010" stroke="#000" stroke-width="1.405px" d="m369.84 761.08-31.745 7.7715c-5.8264 24.816-3.2237 52.239 5.8396 74.466l30.866 9.0887c2.8735 0.84791 5.6099 2.5171 8.6057 2.5466 2.5544 0.0252 4.9564-1.3451 7.4202-2.0197l46.98-12.865-2.5905-57.606-65.377-21.383zm11.152 13.435 48.473 15.806 1.9319 42.765-40.35 11.021c-11.617-15.314-11.316-52.319-10.055-69.592z"/>
      <path id="path3015" d="m355.25-2.4063c-0.026-0.48514 0.64113-0.27438 0.80633-0.043197 0.44768 0.6265-0.10586 1.4235-0.71994 1.6559-1.0984 0.41557-2.2222-0.42961-2.5054-1.4831-0.41562-1.546 0.75426-3.0348 2.2462-3.3549 1.9885-0.42665 3.8528 1.0788 4.2044 3.0093 0.4425 2.4295-1.4031 4.6735-3.7725 5.054-2.8697 0.46084-5.4957-1.7273-5.9035-4.5356-0.48063-3.3095 2.0514-6.3188 5.2988-6.753 3.7492-0.50134 7.1426 2.3754 7.6026 6.0619 0.52268 4.1888-2.6994 7.9668-6.825 8.4521-4.6283 0.54445-8.7913-3.0234-9.3016-7.5882-0.56653-5.0677 3.3474-9.6161 8.3513-10.151 5.5071-0.58886 10.441 3.6714 11.001 9.1144 0.61137 5.9464-3.9953 11.266-9.8776 11.85-6.3858 0.63402-12.091-4.3193-12.7-10.641-0.65679-6.8251 4.6432-12.917 11.404-13.549 7.2644-0.67966 13.742 4.9672 14.399 12.167 0.7026 7.7037-5.2911 14.568-12.93 15.248-8.143 0.72561-15.393-5.615-16.098-13.693-0.74867-8.5823 5.9389-16.219 14.456-16.947 9.0216-0.77179 17.044 6.2628 17.797 15.22 0.79493 9.4609-6.5868 17.87-15.983 18.646-9.9001 0.81812-18.696-6.9107-19.496-16.746-0.84134-10.339 7.2346-19.521 17.509-20.346 10.779-0.86458 20.347 7.5585 21.195 18.272 0.88784 11.218-7.8824 21.173-19.035 22.045-11.657 0.91112-21.999-8.2063-22.894-19.798-0.93443-12.096 8.5302-22.824 20.561-23.744 12.536-0.95775 23.65 8.8541 24.593 21.325 0.98108 12.975-9.1781 24.476-22.088 25.443-13.414 1.0044-25.302-9.502-26.292-22.851-1.0278-13.853 9.8259-26.128 23.614-27.142" transform="matrix(1.3881 0 0 1.3881 -89.54 811.14)" stroke="#000" stroke-width="1px" fill="none"/>
      <path id="path3017" d="m401.29 761.24c-7.337-1.9348-14.789 0.35767-19.776 5.3824l34.326 9.0518c-1.8603-6.8302-7.2133-12.499-14.55-14.434z"/>
      <rect id="rect3022" transform="matrix(.87519 -.48378 .42164 .90676 0 0)" ry="0" height="65.995" width="1.8047" y="799.46" x="35.029"/>
      <path id="path3026" d="m402.71-31.434c0 2.2902-1.8566 4.1469-4.1469 4.1469-2.2902 0-4.1468-1.8566-4.1468-4.1469 0-2.2902 1.8566-4.1469 4.1468-4.1469s4.1469 1.8566 4.1469 4.1469z" transform="matrix(.71446 0 0 .71446 84.421 731.75)"/>
      <rect id="rect3024" ry="0" transform="matrix(-.87519 -.48378 -.42164 .90676 0 0)" height="51.202" width="1.4002" y="424.92" x="-692.18"/>
      <path id="path3028" d="m402.71-31.434c0 2.2902-1.8566 4.1469-4.1469 4.1469-2.2902 0-4.1468-1.8566-4.1468-4.1469 0-2.2902 1.8566-4.1469 4.1468-4.1469s4.1469 1.8566 4.1469 4.1469z" transform="matrix(.53294 0 0 .53294 214.32 735.77)"/>
    </g>
  </g>
  <metadata>
    <rdf:RDF>
      <cc:Work>
        <dc:format>image/svg+xml</dc:format>
        <dc:type rdf:resource="http://purl.org/dc/dcmitype/StillImage"/>
        <cc:license rdf:resource="http://creativecommons.org/licenses/publicdomain/"/>
        <dc:publisher>
          <cc:Agent rdf:about="http://openclipart.org/">
            <dc:title>Openclipart</dc:title>
          </cc:Agent>
        </dc:publisher>
        <dc:title>Zombie TV</dc:title>
        <dc:date>2011-09-19T02:10:17</dc:date>
        <dc:description>Just another joke :)</dc:description>
        <dc:source>http://openclipart.org/detail/161317/zombie-tv-by-cliparteles</dc:source>
        <dc:creator>
          <cc:Agent>
            <dc:title>cliparteles</dc:title>
          </cc:Agent>
        </dc:creator>
        <dc:subject>
          <rdf:Bag>
            <rdf:li>clip art</rdf:li>
            <rdf:li>clipart</rdf:li>
            <rdf:li>stencil</rdf:li>
            <rdf:li>tv</rdf:li>
            <rdf:li>zombie</rdf:li>
          </rdf:Bag>
        </dc:subject>
      </cc:Work>
      <cc:License rdf:about="http://creativecommons.org/licenses/publicdomain/">
        <cc:permits rdf:resource="http://creativecommons.org/ns#Reproduction"/>
        <cc:permits rdf:resource="http://creativecommons.org/ns#Distribution"/>
        <cc:permits rdf:resource="http://creativecommons.org/ns#DerivativeWorks"/>
      </cc:License>
    </rdf:RDF>
  </metadata>
</svg>
