<?xml version="1.0"?>
<svg xmlns:rdf="http://www.w3.org/1999/02/22-rdf-syntax-ns#" xmlns="http://www.w3.org/2000/svg" xmlns:cc="http://creativecommons.org/ns#" xmlns:xlink="http://www.w3.org/1999/xlink" xmlns:dc="http://purl.org/dc/elements/1.1/" xmlns:svg="http://www.w3.org/2000/svg" id="svg1901" viewBox="0 0 274.37 404.85" version="1.1">
  <title id="title3869">Moai</title>
  <defs id="defs1903">
    <linearGradient id="linearGradient3855" x1="357.17" gradientUnits="userSpaceOnUse" y1="107.13" gradientTransform="matrix(.36973 0 0 .36701 255.97 260.83)" x2="342.74" y2="626.65">
      <stop id="stop4197" stop-color="#00aad4" offset="0"/>
      <stop id="stop4199" stop-color="#d8f7ff" offset="1"/>
    </linearGradient>
    <linearGradient id="linearGradient3857" x1="458.26" gradientUnits="userSpaceOnUse" y1="755.25" gradientTransform="matrix(.36918 0 0 .36773 256.51 260.29)" x2="460.73" y2="451.16">
      <stop id="stop4187" stop-color="#008033" offset="0"/>
      <stop id="stop4189" stop-color="#00f160" offset="1"/>
    </linearGradient>
    <linearGradient id="linearGradient3859" y2="130.15" gradientUnits="userSpaceOnUse" y1="699.05" x2="534.33" x1="487.48">
      <stop id="stop3999" stop-color="#aaa" offset="0"/>
      <stop id="stop4001" stop-color="#eee" offset="1"/>
    </linearGradient>
    <linearGradient id="linearGradient3861" y2="305.96" gradientUnits="userSpaceOnUse" y1="298.57" x2="621.53" x1="589.19">
      <stop id="stop4007" stop-color="#808080" offset="0"/>
      <stop id="stop4009" stop-color="#a3a3a3" offset="1"/>
    </linearGradient>
    <linearGradient id="linearGradient3863" y2="407.81" gradientUnits="userSpaceOnUse" y1="621.87" x2="442.31" x1="371.32">
      <stop id="stop3975" stop-color="#808080" offset="0"/>
      <stop id="stop3977" stop-color="#b2b2b2" offset="1"/>
    </linearGradient>
    <linearGradient id="linearGradient3865" y2="140.12" gradientUnits="userSpaceOnUse" y1="366.81" x2="376.75" x1="315.6">
      <stop id="stop3991" stop-color="#8b8b8b" offset="0"/>
      <stop id="stop3993" stop-color="#666" offset="1"/>
    </linearGradient>
    <linearGradient id="linearGradient3867" y2="776.38" gradientUnits="userSpaceOnUse" y1="771.51" x2="231.08" x1="62.029">
      <stop id="stop3983" stop-color="#a3a3a3" offset="0"/>
      <stop id="stop3985" stop-color="#666" offset="1"/>
    </linearGradient>
  </defs>
  <g id="layer3" transform="translate(-255.84 -260.42)">
    <g id="g3840">
      <rect id="rect4193" style="color:#000000" fill-rule="evenodd" height="274.09" width="273.45" y="260.42" x="256.63" fill="url(#linearGradient3855)"/>
      <path id="rect4182" style="color:#000000" fill-rule="evenodd" fill="url(#linearGradient3857)" d="m256.51 531.19 12.986-10.613 24.973-19.9 20.977-22.554 50.945-19.237 20.977-9.2868 50.945-46.434 58.936-17.91 32.964-13.267v293.29h-274.37z"/>
      <path id="path3066" fill="#006500" d="m303.21 648.65 61.583 8.5533 75.696-9.4086 23.949-27.798 15.396-20.528 19.672-7.6979-0.42767-13.685s-13.685-12.402-14.968-13.258c-1.283-0.85532-105.2 5.9873-105.2 5.9873l-54.313 19.245-23.949 29.509z"/>
      <g id="g4161" transform="matrix(.34190 0 0 .34190 271.91 269.73)">
        <path id="path3891" style="color:#000000" fill-rule="evenodd" fill="url(#linearGradient3859)" d="m334.55 249.26-52.053 65.811s-76.206 101.61-81.044 105.24c-4.8384 3.6288-35.079 31.45-35.079 31.45l-13.306 24.192 27.821 18.144s81.044 14.515 90.721 16.935c9.6769 2.4192 52.013 19.354 52.013 19.354l-134.27 71.367-8.4673 26.611 99.188 21.773 60.481-26.611 141.52 258.86 133.06 61.69 30.24-10.886-41.127-60.481s-60.481-65.319-60.481-71.367c0-6.0481-9.6768-43.546-9.6768-43.546s20.563-27.821 20.563-36.288c0-8.4673-2.4193-78.625-2.4193-78.625l2.4193-22.983 39.917-15.725s27.821-56.852 29.031-62.9c1.2096-6.0481 12.096-142.73 12.096-142.73l9.6769-64.109 8.4673-84.673 7.2577-44.756s4.8384-41.127 4.8384-45.965c0-4.8384-2.4192-32.66-2.4192-41.127 0-8.4673-8.4673-47.175-8.4673-47.175s-16.934-18.144-19.354-24.192c-2.42-6.062-19.36-31.464-19.36-31.464l-41.12-13.306-38.71-7.2574-56.85-1.2096s-52.013 12.096-59.271 13.306c-7.2577 1.2096-43.546 6.0481-43.546 6.0481l-41.127 32.66-22.983 32.66-24.192 35.079-13.306 31.45z"/>
        <path id="path3885" style="color:#000000" fill-rule="evenodd" fill="url(#linearGradient3861)" d="m635.72 57.836c7.4706 10.533 6.8991 5.515 13.37 16.425 1.6341 19.948 3.403 39.902 0.2651 59.837-3.0306 31.297-4.0261 63.01-10.022 93.881-11.59 42.428-17.11 86.353-24.156 129.76-4.3264 30.392-10.299 60.625-13.552 91.12-1.8371 43.303-2.9705 86.656-5.8378 129.9-10.047 6.6036-44.47 27.951-50.07 16.712 6.4569-53.211 13.659-115.53 19.425-168.74 10.54-43.249 21.752-86.411 31.871-129.71 0.7953-28.503 0.081-57.128 1.8379-85.554 7.8491-53.767 10.314-107.53 18.163-161.3l12.244 3.0437"/>
        <path id="path3889" style="color:#000000" fill-rule="evenodd" fill="#808080" d="m346.61 1080.8 123.38-6.0481 84.673-56.852-59.271-62.9 10.886-165.72-82.254 56.852s-79.834 60.481-83.463 65.319c-3.6289 4.8384-21.773 68.948-22.983 72.577-1.2097 3.6289 1.2096 67.738 1.2096 67.738z"/>
        <path id="path3883" style="color:#000000" fill-rule="evenodd" fill="url(#linearGradient3863)" d="m541.36 248.22c-15.538 48.538-31.886 102-43.699 151.62-10.74 40.556-26.18 79.891-36.694 120.42-7.1951 50.737-12.096 101.72-15.869 152.81-0.2347 19.154 5.8646 38.038 8.1527 57.084 3.9019 24.852 16.278 47.417 24.022 71.233 8.5039 10.676-5.4608 22.383-13.401 26.971-19.554 10.384-31.155 15.615-50.976 25.244-15.954 3.5872-38.98 2.045-54.295 7.321-15.036 7.8698-28.086 21.161-45.941 21.334-19.096 2.4305-38.167 7.1891-57.279 8.1843-22.813-3.0932-54.56-3.6338-77.372-6.7271-5.9011-8.2677-12.686-15.624-16.534-24.436 4.3669-19.996 12.513-43.528 18.522-62.905 11.723-18.424 21.552-38.247 34.572-55.713 23.865-20.754 46.52-43.864 75.542-57.347 9.1568-5.0145 24.764-11.319 33.921-16.333-10.239-8.3774-30.953-7.8809-35.193-21.156-4.274-7.9805-9.1397-22.794 2.0443-28.557 7.6899-7.9975 35.943-23.253 43.633-31.25 27.212-34.218 17.013-21.386 25.37-44.691 7.6952-23.383 6.5241-26.711-8.8945-79.872-2.9845-41.543 21.306-102.27 39.94-139.41 13.946-26.088 57.127-50.603 69.434-47.384 8.7146-12.483 62.678-22.001 71.392-34.484 5.6449 0 3.9571 8.0388 9.6019 8.0388z"/>
        <path id="path3875" style="color:#000000" fill="url(#linearGradient3865)" d="m565.55 234.03c-14.112 7.6609-28.224 15.322-42.336 22.983-7.0706-0.69473-14.625-4.5416-20.775 0.75897-24.122 12.246-53.082 28.122-77.203 40.368-5.8416-4.142-8.793-10.565-13.485-15.502-1.5449-5.8012-0.2916-13.377-7.1367-15.817-6.4532-4.6337-12.485-10.285-20.942-10.082-15.352-3.8195-31.14-0.91563-46.738-0.93527-6.394 3.2454-13.76 5.4182-16.375 12.835-17.13 27.375-34.124 54.84-53.387 80.789-13.27 20.864-31.399 37.83-47.57 56.367-10.483 8.4673-20.967 18.011-31.45 26.479 7.7769-21.45 14.353-44.569 22.876-65.652 21.405-32.504 36.429-65.009 57.834-97.513-4.6833-14.464-7.8662-38.997-11.897-53.548 1.4676-18.478 1.9049-27.023 4.0121-45.328 4.2857-8.5715 10.247-16.784 14.532-25.355 19.866-11.036 41.197-25.1 64.24-28.382 21.976-5.4741 43.994-10.811 66.648-12.354l28.515-3.1684c28.295 25.303 56.759 50.495 83.95 76.967 11.838 13.532 25.695 25.464 36.067 40.159 3.5403 5.3105 7.0806 10.621 10.621 15.931z"/>
        <path id="path3877" style="color:#000000" fill-rule="evenodd" fill="url(#linearGradient3867)" d="m336.93 531.59c-1.9669 8.3492-1.9113 18.291-12.26 20.041-17.503 8.4709-35.178 18.057-53.214 24.52-12.039-2.7942-22.772 6.4105-34.209 9.1504-19.04 9.3714-37.273 17.58-52.275 33.248 10.157 3.9863 17.195 9.4306 27.5 11.907 10.499-1.5934 21.11-6.9421 31.538-6.1332 12.62 4.2215 36.895 0.70898 46.385 10.968 10.872 7.4489 9.4274 24.276 23.556 24.848 9.944 1.307 18.682 3.0951 8.3952 12.475-4.4882 7.7024-9.1693 15.16-18.752 16.393-21.503 6.9821-40.759 17.854-61.145 27.521-9.4878 20.043-31.161 29.879-43.002 47.356-9.3765 18.748-21.63 36.367-25.124 57.422-2.2031 10.301-6.6441 20.669-7.5114 30.93 2.6772 8.0313 5.3543 16.063 8.0314 24.094 23.495 3.6223 46.947 9.5351 70.468 11.712 28.004-4.3822 56.681-7.1075 84.265-12.525 10.112-7.3898 20.225-14.779 30.337-22.169 7.5921 5.1975 15.919 5.0461 24.527 2.8423 11.984-1.7538 23.969-3.5077 35.954-5.2615-21.226 22.482-40.707 46.779-65.424 65.632-7.511 4.6393-11.95 11.272-13.073 20.057-5.7129 17.571-10.526 35.327-11.552 53.861-0.5532 9.5538-7.0726 17.394-10.349 26.166 8.9894 20.009 27.216 40.947 29.225 63.071-21.044 4.5596-49.286 3.3962-71.196 4.4691-22.238-0.5152-45.204-0.5854-66.948-3.4402l-83.409-41.117c13.871-34.08 24.049-69.813 42.331-101.92 6.4731-7.2755 3.8753-15.752 1.6224-24.183-0.2038-9.8919-4.4328-16.009-14.756-16.411-10.273-3.4819-21.765-5.1227-31.273-9.76l-24.536-30.377c11.401-43.384 24.288-86.446 34.752-130.03 9.0812-53.295 17.077-106.75 23.536-160.42 2.2753-16.863 6.729-34.012 7.6701-50.699-5.8579-12.887-7.7673-27.211-13.625-40.098 7.4172-0.14337 14.078-8.353 19.073-1.2864 6.035 8.1651 15.66 14.535 21.695 22.7 19.205-3.3516 34.505-8.9439 54.224-5.7306 14.851 0.84306 30.003 0.13568 43.717 6.8426 9.1465 4.1988 20.782 4.976 28.342 11.356 5.4966 7.3288 10.993 14.658 16.49 21.987z"/>
        <path id="path3879" style="color:#000000" fill-rule="evenodd" fill="#666" d="m551.49 649.72-14.968-22.569-4.8385-15.725 9.6769-45.965 13.306-73.786s13.306-45.965 14.515-52.013c1.2096-6.0481 16.935-76.206 16.935-76.206l-9.6769 84.673-8.2804 22.358 1.0227 24.817-8.4673 38.708 3.6288 27.821 4.8385 15.725-14.515 20.563 38.708 6.048-8.4673 7.2577-29.031 7.2577z"/>
        <path id="path3881" style="color:#000000" fill-rule="evenodd" fill="#666" d="m616.43 49.28s13.306 27.5 9.6769 38.386c-3.6288 10.887-11.855 79.103-11.855 79.103l-14.237 34.578 0.60954-90.702z"/>
        <path id="path3887" style="color:#000000" fill-rule="evenodd" fill="#666" d="m553.45 872.7-52.942-5.5564s-28.102 27.329-28.102 32.168c0 4.8384 20.096 69.015 20.096 69.015l59.738 49.527 36.288-52.013s38.349-21.64 35.929-26.479c-2.4192-4.8384-25.043-56.984-37.139-58.194-12.096-1.2096-33.869-8.4673-33.869-8.4673z"/>
      </g>
    </g>
  </g>
  <metadata>
    <rdf:RDF>
      <cc:Work>
        <dc:format>image/svg+xml</dc:format>
        <dc:type rdf:resource="http://purl.org/dc/dcmitype/StillImage"/>
        <cc:license rdf:resource="http://creativecommons.org/licenses/publicdomain/"/>
        <dc:publisher>
          <cc:Agent rdf:about="http://openclipart.org/">
            <dc:title>Openclipart</dc:title>
          </cc:Agent>
        </dc:publisher>
        <dc:title>Moai</dc:title>
        <dc:date>2012-11-29T14:47:10</dc:date>
        <dc:description>Easter Island human figure carved from rock.</dc:description>
        <dc:source>http://openclipart.org/detail/173437/moai-by-opk-173437</dc:source>
        <dc:creator>
          <cc:Agent>
            <dc:title>opk</dc:title>
          </cc:Agent>
        </dc:creator>
        <dc:subject>
          <rdf:Bag>
            <rdf:li>Easter Island</rdf:li>
            <rdf:li>clip art</rdf:li>
            <rdf:li>clipart</rdf:li>
            <rdf:li>figure</rdf:li>
            <rdf:li>human</rdf:li>
            <rdf:li>mo'ai</rdf:li>
            <rdf:li>moai</rdf:li>
            <rdf:li>monolithic</rdf:li>
            <rdf:li>rock</rdf:li>
            <rdf:li>statue</rdf:li>
            <rdf:li>statues</rdf:li>
          </rdf:Bag>
        </dc:subject>
      </cc:Work>
      <cc:License rdf:about="http://creativecommons.org/licenses/publicdomain/">
        <cc:permits rdf:resource="http://creativecommons.org/ns#Reproduction"/>
        <cc:permits rdf:resource="http://creativecommons.org/ns#Distribution"/>
        <cc:permits rdf:resource="http://creativecommons.org/ns#DerivativeWorks"/>
      </cc:License>
    </rdf:RDF>
  </metadata>
</svg>
