<?xml version="1.0" encoding="utf-8"?>
<svg version="1.1" id="Layer_1" xmlns="http://www.w3.org/2000/svg" xmlns:xlink="http://www.w3.org/1999/xlink" x="0px" y="0px"
	 viewBox="0 0 2087.8469 1705.184" enable-background="new 0 0 2087.8469 1705.184" xml:space="preserve">
<path d="M1089.0851,751.4722c-4.4448-34.246-12.1819-66.7363-17.3723-96.2284c-11.2946-64.1773-15.2443-122.3088-6.3303-167.73
	c24.4509-124.5911,91.8818-188.7347,172.0608-208.6906c37.9915-9.4558,72.4279-20.4199,77.5398-37.9375
	c4.9105-16.8266-17.0503-24.0188-41.0582-16.1577c-129.7791,42.4944-229.5624,182.5571-222.2185,371.5134
	c-3.7678-1.4763-8.8021-0.9083-14.3264,0.4504c-2.0476-111.4128-30.72-203.8694-89.3218-274.8932
	c-50.3749-61.0538-128.655-121.213-176.558-89.6633c-2.0128,1.3256-2.6395,4.0525-1.3539,6.0908
	c7.095,11.246,25.8324,22.912,58.5881,35.0837c42.5237,11.2177,79.7525,28.121,108.2123,54.5603
	c66.5116,61.7905,94.1051,156.0424,95.3807,271.0296c-13.3665,5.9012-24.5337,22.9362-22.1174,36.8652
	c3.0477,17.5718,10.567,33.7596,6.4662,49.495c-5.5839,21.4261-13.9106,41.8293-18.2112,63.3757
	C838.8069,265.6462,480.33,48.0616,64.3942,54.1916c34.8999,518.9149,263.6163,917.785,705.9523,912.068
	c-308.8908,34.8641-426.344,322.5158-353.3941,686.3325c249.1143-80.348,454.3297-282.374,587.0844-685.2404
	c-9.3317,97.947,8.463,195.5219,45.7682,292.8293c26.9471-103.4583,42.0201-201.0674,34.1953-287.3968
	c123.6959,372.785,326.1498,595.1878,590.9379,679.4153c52.5487-338.3787-20.4293-632.5771-356.0267-687.7925
	c433.464,6.4301,660.4424-372.6663,704.5413-911.782C1573.907,49.244,1223.5962,305.7503,1089.0851,751.4722z M1191.5771,550.8184
	c1.1322,9.4857,5.3066,17.8086,12.0238,25.1597c8.8131-53.5113,32.0398-95.4495,69.308-126.1137
	c-8.229,20.8521-14.0587,40.808-12.0671,57.843c0,0,47.4572-92.3554,101.7216-115.1613
	c-12.8464,21.1205-18.4652,36.6321-17.7301,56.9557c20.1151-33.8322,46.7115-52.5323,84.6375-62.345
	c-9.588,14.106-15.5569,25.6863-21.1862,43.2173c14.0796-19.9736,36.6339-35.1205,57.3562-55.7636
	c29.7373-29.6237,38.2859-68.1415,29.9987-104.0641c16.8621,33.5624,27.4926,71.3183,16.0514,115.9859
	c-18.1167,70.7312-89.0847,113.453-166.6062,147.8885c-84.116,37.3647-157.0349,82.6585-190.9277,155.5577
	C1154.8069,648.0158,1165.2356,602.394,1191.5771,550.8184z M133.8284,128.021c218.7695,16.2786,378.2078,104.88,415.3453,251.3233
	c28.625,112.8764-103.3676,186.9249-183.2732,170.0121C254.3168,525.7384,166.1359,360.6333,133.8284,128.021z M345.6432,749.2634
	c-39.2538-71.5643-75.8604-130.0418-121.5799-166.2523c115.8882,50.9809,209.2736,67.0648,262.0319,38.0132
	c-55.4259,78.0948-65.1082,157.8484-17.7351,239.6711C414.4414,833.6589,371.9743,797.2687,345.6432,749.2634z M655.4966,1387.9797
	c18.4475,71.0532-90.8793,148.1383-200.7237,187.9395c-2.1918-128.9172,31.892-242.7124,89.3508-265.501
	C574.9227,1298.2032,639.3566,1325.8146,655.4966,1387.9797z M697.9267,1433.1646c35.4539-38.486,35.9456-101.7627,45.7335-168.1765
	c9.1552-62.1194,44.3205-119.3097,88.5656-164.1194c-31.5891,42.3204-5.3905,103.973-12.6967,174.1313
	C812.1909,1345.4688,758.5261,1401.6882,697.9267,1433.1646z M912.088,1118.8086c-3.5405,59.1196-34.044,110.2701-73.969,158.2029
	c18.6727-31.8474,9.6046-88.9314,6.3623-149.2242c-3.8287-71.1951,50.0834-129.2648,108.2437-162.3185
	C924.3113,995.9031,916.0413,1052.8019,912.088,1118.8086z M776.303,1120.2709
	c-54.2756,68.2665-142.2737,109.0636-223.6826,130.1151c77.0532-39.9355,96.9485-129.3533,153.3408-210.3446
	c36.2458-52.0569,143.1713-95.687,258.8289-89.0988C909.3578,958.991,853.7315,1022.8837,776.303,1120.2709z M846.9623,922.523
	c-38.1401-1.639-70.2955-17.98-98.0977-37.3234c28.4639,6.3434,57.2783,1.5635,87.8608-6.2601
	c52.256-13.3679,99.3857,5.0415,136.3126,56.2901C947.9153,916.9812,896.7813,924.6637,846.9623,922.523z M982.3988,918.4045
	c-67.0023-79.6157-135.2241-85.8748-201.8998-63.9764c-71.0058,23.3206-98.9755-36.024-86.8656-65.4044
	c23.0628-55.9537,94.3596-81.5814,162.4263-36.5804C910.5287,788.4542,956.3517,851.0947,982.3988,918.4045z M971.8689,823.9312
	c-73.1951-154.1044-191.7956-178.4554-286.8392-107.4358c-2.1682-22.3623,4.3428-43.6584,15.8317-64.3427
	c-55.6263,24.4323-85.4076,72.597-93.8701,140.3378c-19.0259-18.2482-30.6348-39.0718-35.2862-62.3111
	c-26.3007,89.7304,10.3762,154.8179,115.4321,193.1492C538.5334,933.8834,435.0965,796.996,496.4618,664.2504
	c52.3007-113.1372,221.1732-130.7249,333.9836-52.9437C906.4382,663.7027,952.5563,736.7783,971.8689,823.9312z M934.9055,693.1301
	C900.93,620.2695,827.9597,575.0582,743.8018,537.7889c-77.5606-34.3475-148.5768-76.989-166.7739-147.6997
	c-11.492-44.6544-0.9037-82.4224,15.9196-116.0039c-8.2464,35.9321,0.3461,74.4403,30.1171,104.03
	c20.7454,20.6198,43.3169,35.741,57.4193,55.6987c-5.6491-17.5246-13.155-33.4392-22.7592-47.5342
	c37.937,9.7698,66.0786,32.7805,86.2316,66.59c0.7124-20.3246-7.1348-40.4315-16.3872-60.5921
	c54.2899,22.7444,100.4448,118.7025,100.4448,118.7025c1.9727-17.0374-3.8798-36.9868-12.1326-57.8294
	c37.3029,30.622,60.5771,72.534,69.4512,126.0351c6.7088-7.3589,10.8734-15.6865,11.9951-25.1735
	C923.7278,605.5582,934.2078,651.1681,934.9055,693.1301z M1176.1196,1118.4944c-3.4559-66.0344-11.2965-122.994-39.4802-153.6416
	c57.9094,33.4913,111.3824,91.9656,107.0175,163.1295c-3.6965,60.2666-13.1946,117.2809,5.2378,149.2681
	C1209.3318,1229.0181,1179.2147,1177.6392,1176.1196,1118.4944z M1343.1721,1264.1921c9.3477,66.4773,9.42,129.756,44.6184,168.4757
	c-60.3895-31.8771-113.6807-88.4508-120.552-158.9669c-6.8409-70.205,19.7656-131.6827-11.5425-174.2115
	C1299.6432,1144.5913,1334.4288,1202.0135,1343.1721,1264.1921z M1632.6637,1574.9021
	c-109.855-39.7723-219.2018-116.8287-200.7729-187.8867c16.1234-62.1692,80.55-89.7976,111.3525-77.5908
	C1600.7079,1332.198,1634.8217,1445.984,1632.6637,1574.9021z M1379.848,1038.9615
	c56.0106,81.2559,75.4855,170.766,152.3501,211.0634c-81.3091-21.4341-169.1143-62.6444-223.0685-131.1652
	c-76.9696-97.7504-132.2948-161.9041-187.6886-170.2128C1237.1282,942.6027,1343.8474,986.7349,1379.848,1038.9615z
	 M1242.04,921.4789c-49.8135,2.2718-100.9674-5.2761-126.0419,13.0384c36.7921-51.3458,83.8729-69.879,136.1639-56.6487
	c30.6033,7.7433,59.4299,12.4473,87.8772,6.0292C1312.288,903.3141,1280.1754,919.7399,1242.04,921.4789z M1294.8632,856.2122
	c-88.4878-17.0327-157.5809,8.2741-188.4556,62.5132c53.189-156.7455,170.8346-210.0471,245.7922-166.6801
	c40.0498,20.0397,52.4332,81.9055,19.7047,104.287C1352.0776,869.8912,1324.6859,861.9526,1294.8632,856.2122z M1400.2784,923.5251
	c105.7174-36.468,147.3152-104.9145,112.3224-197.7708c-5.0618,23.1533-10.5298,50.4607-29.8755,68.3701
	c-7.2634-67.8798-39.0154-115.6342-94.201-141.0461c7.0426,24.0095,13.0801,40.7742,17.5187,63.6829
	c-93.7729-72.6889-212.7858-50.4386-288.694,102.3475c20.8502-86.7979,68.2535-159.0464,145.1608-210.0906
	c114.1681-75.7745,282.7031-55.2036,332.9955,58.8406C1654.5134,801.6685,1548.6727,936.7056,1400.2784,923.5251z
	 M1743.1165,749.4755c-26.2885,48.0288-68.7227,84.4568-122.6172,111.5414c47.3-81.8648,37.5464-161.6097-17.9492-239.655
	c52.7842,29.0045,146.155,12.8371,261.9978-38.2473C1818.8607,619.3661,1782.3065,677.876,1743.1165,749.4755z M1721.0515,546.1461
	c-80.0665,16.1328-211.3312-59.1989-181.6071-171.7909c38.5634-146.0742,198.8578-233.117,417.7753-247.2621
	C1922.6465,359.3791,1832.8601,523.6166,1721.0515,546.1461z"/>
</svg>
